<mxfile host="app.diagrams.net" modified="2023-07-22T00:45:58.495Z" agent="Mozilla/5.0 (Windows NT 10.0; Win64; x64) AppleWebKit/537.36 (KHTML, like Gecko) Chrome/115.0.0.0 Safari/537.36" etag="dqhQh4RlNf1ct3oi2Q-G" version="21.6.5" type="device">
  <diagram name="Page-1" id="VCjjCdKJDzhmTGbdYX-o">
    <mxGraphModel dx="2213" dy="831" grid="1" gridSize="10" guides="1" tooltips="1" connect="1" arrows="1" fold="1" page="1" pageScale="1" pageWidth="850" pageHeight="1100" math="0" shadow="0">
      <root>
        <mxCell id="0" />
        <mxCell id="1" parent="0" />
        <mxCell id="b2N0IGfm3zC9qGrUOJeF-6" value="" style="rounded=1;whiteSpace=wrap;html=1;" vertex="1" parent="1">
          <mxGeometry x="2935" y="330" width="250" height="295" as="geometry" />
        </mxCell>
        <mxCell id="b2N0IGfm3zC9qGrUOJeF-1" value="" style="rounded=1;whiteSpace=wrap;html=1;fillColor=default;" vertex="1" parent="1">
          <mxGeometry x="1560" y="232.5" width="1280" height="827.5" as="geometry" />
        </mxCell>
        <mxCell id="jNzlEzwgy13GT3eduAT7-9" value="&lt;font style=&quot;font-size: 21px;&quot; color=&quot;#33ff99&quot;&gt;My-Course-architecture&lt;/font&gt;" style="text;html=1;strokeColor=none;fillColor=none;align=center;verticalAlign=middle;whiteSpace=wrap;rounded=0;strokeWidth=7;" parent="1" vertex="1">
          <mxGeometry x="246.5" y="20" width="290" height="30" as="geometry" />
        </mxCell>
        <mxCell id="jNzlEzwgy13GT3eduAT7-10" value="CLOUD ARCHITECTURE" style="text;html=1;strokeColor=#2D7600;fillColor=#60a917;align=center;verticalAlign=middle;whiteSpace=wrap;rounded=0;fontColor=#ffffff;" parent="1" vertex="1">
          <mxGeometry x="300" y="50" width="180" height="30" as="geometry" />
        </mxCell>
        <mxCell id="d25lLXQw6UzLvYD5PqAA-10" style="edgeStyle=orthogonalEdgeStyle;rounded=0;orthogonalLoop=1;jettySize=auto;html=1;entryX=0;entryY=0.6;entryDx=0;entryDy=0;entryPerimeter=0;" parent="1" source="d25lLXQw6UzLvYD5PqAA-4" target="d25lLXQw6UzLvYD5PqAA-7" edge="1">
          <mxGeometry relative="1" as="geometry">
            <Array as="points">
              <mxPoint x="-5" y="435" />
              <mxPoint x="-5" y="590" />
            </Array>
          </mxGeometry>
        </mxCell>
        <mxCell id="Yk7LDbt8gfweT-zW2T4R-12" style="edgeStyle=orthogonalEdgeStyle;rounded=0;orthogonalLoop=1;jettySize=auto;html=1;entryX=0;entryY=0.5;entryDx=0;entryDy=0;" parent="1" source="d25lLXQw6UzLvYD5PqAA-4" target="Yk7LDbt8gfweT-zW2T4R-4" edge="1">
          <mxGeometry relative="1" as="geometry">
            <Array as="points">
              <mxPoint x="155" y="435" />
              <mxPoint x="155" y="705" />
            </Array>
          </mxGeometry>
        </mxCell>
        <mxCell id="Yk7LDbt8gfweT-zW2T4R-13" style="edgeStyle=orthogonalEdgeStyle;rounded=0;orthogonalLoop=1;jettySize=auto;html=1;entryX=-0.013;entryY=0.623;entryDx=0;entryDy=0;entryPerimeter=0;" parent="1" source="d25lLXQw6UzLvYD5PqAA-4" target="Yk7LDbt8gfweT-zW2T4R-1" edge="1">
          <mxGeometry relative="1" as="geometry">
            <Array as="points">
              <mxPoint x="155" y="435" />
              <mxPoint x="155" y="791" />
            </Array>
          </mxGeometry>
        </mxCell>
        <mxCell id="zBErQ_lC7ytDDQyFHN0Z-5" style="edgeStyle=orthogonalEdgeStyle;rounded=0;orthogonalLoop=1;jettySize=auto;html=1;entryX=1.025;entryY=0.669;entryDx=0;entryDy=0;entryPerimeter=0;strokeColor=#3399FF;" parent="1" source="d25lLXQw6UzLvYD5PqAA-4" target="zBErQ_lC7ytDDQyFHN0Z-3" edge="1">
          <mxGeometry relative="1" as="geometry">
            <Array as="points">
              <mxPoint x="-30" y="450" />
              <mxPoint x="-30" y="511" />
            </Array>
          </mxGeometry>
        </mxCell>
        <mxCell id="d25lLXQw6UzLvYD5PqAA-4" value="" style="shape=image;verticalLabelPosition=bottom;labelBackgroundColor=default;verticalAlign=top;aspect=fixed;imageAspect=0;image=data:image/svg+xml,PHN2ZyB4bWxucz0iaHR0cDovL3d3dy53My5vcmcvMjAwMC9zdmciIHZpZXdCb3g9IjAgMCAxOCAxOCIgaGVpZ2h0PSIxOCIgd2lkdGg9IjE4IiBpZD0iYWY2YTJjNDItYmQ0OC00ODU3LWE0NzktYWVjZjhiM2RlNGY2Ij48ZGVmcz48bGluZWFyR3JhZGllbnQgZ3JhZGllbnRVbml0cz0idXNlclNwYWNlT25Vc2UiIHkyPSIzLjc0IiB4Mj0iOC42NyIgeTE9IjMuNzQiIHgxPSIyLjk0IiBpZD0iYjcwYzljZjEtYmFiOC00N2UwLWJiZGItY2UxY2Q2NjRkMjY4Ij48c3RvcCBzdG9wLWNvbG9yPSIjYjc3YWY0IiBvZmZzZXQ9IjAiLz48c3RvcCBzdG9wLWNvbG9yPSIjNzczYWRjIiBvZmZzZXQ9IjEiLz48L2xpbmVhckdyYWRpZW50PjxsaW5lYXJHcmFkaWVudCBncmFkaWVudFVuaXRzPSJ1c2VyU3BhY2VPblVzZSIgeTI9IjMuNzkiIHgyPSIxNC44NSIgeTE9IjMuNzkiIHgxPSI5LjEzIiBpZD0iYmViNjk5NTMtYmQ5Ni00NTE1LTg4NDMtYWMxMjU0NmFmOTM2Ij48c3RvcCBzdG9wLWNvbG9yPSIjYjc3YWY0IiBvZmZzZXQ9IjAiLz48c3RvcCBzdG9wLWNvbG9yPSIjNzczYWRjIiBvZmZzZXQ9IjEiLz48L2xpbmVhckdyYWRpZW50PjxsaW5lYXJHcmFkaWVudCBncmFkaWVudFVuaXRzPSJ1c2VyU3BhY2VPblVzZSIgeTI9IjkuMTIiIHgyPSI1LjczIiB5MT0iOS4xMiIgeDE9IjAuMDEiIGlkPSJhMzljNzZlOC01NDdlLTRlYjQtYmMyNS1kODFjMGY4Y2RhNjIiPjxzdG9wIHN0b3AtY29sb3I9IiNiNzdhZjQiIG9mZnNldD0iMCIvPjxzdG9wIHN0b3AtY29sb3I9IiM3NzNhZGMiIG9mZnNldD0iMSIvPjwvbGluZWFyR3JhZGllbnQ+PGxpbmVhckdyYWRpZW50IGdyYWRpZW50VW5pdHM9InVzZXJTcGFjZU9uVXNlIiB5Mj0iOS4wOCIgeDI9IjExLjkiIHkxPSI5LjA4IiB4MT0iNi4xOCIgaWQ9ImYwYTJhNDkxLTE3ZGMtNGJiOC1iYmZjLWVlNThhNWNmNDdkYSI+PHN0b3Agc3RvcC1jb2xvcj0iI2I3N2FmNCIgb2Zmc2V0PSIwIi8+PHN0b3Agc3RvcC1jb2xvcj0iIzc3M2FkYyIgb2Zmc2V0PSIxIi8+PC9saW5lYXJHcmFkaWVudD48bGluZWFyR3JhZGllbnQgZ3JhZGllbnRVbml0cz0idXNlclNwYWNlT25Vc2UiIHkyPSI5LjEzIiB4Mj0iMTguMDgiIHkxPSI5LjEzIiB4MT0iMTIuMzUiIGlkPSJlZmM2YTU2ZC04NTg1LTQxN2QtOTMxYS0xZGFjMjExNGNjZDAiPjxzdG9wIHN0b3AtY29sb3I9IiNiNzdhZjQiIG9mZnNldD0iMCIvPjxzdG9wIHN0b3AtY29sb3I9IiM3NzNhZGMiIG9mZnNldD0iMSIvPjwvbGluZWFyR3JhZGllbnQ+PGxpbmVhckdyYWRpZW50IGdyYWRpZW50VW5pdHM9InVzZXJTcGFjZU9uVXNlIiB5Mj0iMTQuNTYiIHgyPSI4LjYiIHkxPSIxNC41NiIgeDE9IjIuODciIGlkPSJlMzk5YWE5My0zNDFmLTRkZjItOWMwMi02MDNiODJiNDg0YzIiPjxzdG9wIHN0b3AtY29sb3I9IiNiNzdhZjQiIG9mZnNldD0iMCIvPjxzdG9wIHN0b3AtY29sb3I9IiM3NzNhZGMiIG9mZnNldD0iMSIvPjwvbGluZWFyR3JhZGllbnQ+PGxpbmVhckdyYWRpZW50IGdyYWRpZW50VW5pdHM9InVzZXJTcGFjZU9uVXNlIiB5Mj0iMTQuNiIgeDI9IjE0Ljc4IiB5MT0iMTQuNiIgeDE9IjkuMDUiIGlkPSJhMTUyYmJhMC1iYTJiLTQ4M2EtYjhjMS0wYWU3ZGUzNTU5OTAiPjxzdG9wIHN0b3AtY29sb3I9IiNiNzdhZjQiIG9mZnNldD0iMCIvPjxzdG9wIHN0b3AtY29sb3I9IiM3NzNhZGMiIG9mZnNldD0iMSIvPjwvbGluZWFyR3JhZGllbnQ+PC9kZWZzPjx0aXRsZT5JY29uLWNvbXB1dGUtMjM8L3RpdGxlPjxwb2x5Z29uIGZpbGw9InVybCgjYjcwYzljZjEtYmFiOC00N2UwLWJiZGItY2UxY2Q2NjRkMjY4KSIgcG9pbnRzPSI1LjggMS4yMiAyLjk0IDEuNzUgMi45NCA1LjY1IDUuOCA2LjI2IDguNjcgNS4xMSA4LjY3IDIuMiA1LjggMS4yMiIvPjxwYXRoIGZpbGw9Im5vbmUiIGQ9Ik01LjkxLDYuMiw4LjUzLDUuMTRBLjIuMiwwLDAsMCw4LjY1LDVWMi4zNmEuMjEuMjEsMCwwLDAtLjEzLS4xOGwtMi42NS0uOUg1Ljc1bC0yLjYuNDhBLjIuMiwwLDAsMCwzLDEuOTRWNS40N2EuMTkuMTksMCwwLDAsLjE1LjE5bDIuNjMuNTVBLjMyLjMyLDAsMCwwLDUuOTEsNi4yWiIvPjxwYXRoIGZpbGw9IiMzNDFhNmUiIGQ9Ik0yLjk0LDEuNzV2My45bDIuODkuNjF2LTVabTEuMjIsMy42LS44MS0uMTZ2LTNsLjgxLS4xM1ptMS4yNi4yMy0uOTMtLjE1VjJsLjkzLS4xNloiLz48cG9seWdvbiBmaWxsPSJ1cmwoI2JlYjY5OTUzLWJkOTYtNDUxNS04ODQzLWFjMTI1NDZhZjkzNikiIHBvaW50cz0iMTEuOTkgMS4yNyA5LjEzIDEuOCA5LjEzIDUuNyAxMS45OSA2LjMxIDE0Ljg1IDUuMTUgMTQuODUgMi4yNSAxMS45OSAxLjI3Ii8+PHBhdGggZmlsbD0iIzM0MWE2ZSIgZD0iTTkuMTMsMS44VjUuN0wxMiw2LjMxdi01Wm0xLjIxLDMuNi0uODEtLjE2di0zbC44MS0uMTNabTEuMjYuMjMtLjkzLS4xNVYyLjA1bC45My0uMTdaIi8+PHBvbHlnb24gZmlsbD0idXJsKCNhMzljNzZlOC01NDdlLTRlYjQtYmMyNS1kODFjMGY4Y2RhNjIpIiBwb2ludHM9IjIuODcgNi42IDAuMDEgNy4xMyAwLjAxIDExLjAzIDIuODcgMTEuNjQgNS43NCAxMC40OSA1Ljc0IDcuNTggMi44NyA2LjYiLz48cGF0aCBmaWxsPSIjMzQxYTZlIiBkPSJNMCw3LjEzVjExbDIuODkuNjF2LTVabTEuMjEsMy42MS0uODEtLjE3di0zbC44MS0uMTRaTTIuNDgsMTFsLS45My0uMTVWNy4zOGwuOTMtLjE2WiIvPjxwb2x5Z29uIGZpbGw9InVybCgjZjBhMmE0OTEtMTdkYy00YmI4LWJiZmMtZWU1OGE1Y2Y0N2RhKSIgcG9pbnRzPSI5LjA0IDYuNTYgNi4xOCA3LjA5IDYuMTggMTAuOTkgOS4wNCAxMS42MSAxMS45IDEwLjQ1IDExLjkgNy41NCA5LjA0IDYuNTYiLz48cGF0aCBmaWxsPSIjMzQxYTZlIiBkPSJNNi4xOCw3LjA5VjExbDIuODguNjF2LTVaTTcuMzksMTAuN2wtLjgxLS4xN3YtM2wuODEtLjE0Wm0xLjI2LjIyLS45My0uMTVWNy4zNGwuOTMtLjE2WiIvPjxwb2x5Z29uIGZpbGw9InVybCgjZWZjNmE1NmQtODU4NS00MTdkLTkzMWEtMWRhYzIxMTRjY2QwKSIgcG9pbnRzPSIxNS4yMSA2LjYxIDEyLjM1IDcuMTQgMTIuMzUgMTEuMDQgMTUuMjEgMTEuNjUgMTguMDggMTAuNSAxOC4wOCA3LjU5IDE1LjIxIDYuNjEiLz48cGF0aCBmaWxsPSIjMzQxYTZlIiBkPSJNMTIuMzUsNy4xNFYxMWwyLjg5LjYxdi01Wm0xLjIyLDMuNjEtLjgxLS4xN3YtM2wuODEtLjE0Wm0xLjI2LjIyLS45My0uMTVWNy4zOWwuOTMtLjE2WiIvPjxwb2x5Z29uIGZpbGw9InVybCgjZTM5OWFhOTMtMzQxZi00ZGYyLTljMDItNjAzYjgyYjQ4NGMyKSIgcG9pbnRzPSI1LjczIDEyLjA0IDIuODcgMTIuNTYgMi44NyAxNi40NiA1LjczIDE3LjA4IDguNiAxNS45MiA4LjYgMTMuMDIgNS43MyAxMi4wNCIvPjxwYXRoIGZpbGw9Im5vbmUiIGQ9Ik01Ljg0LDE3LDguNDUsMTZhLjE4LjE4LDAsMCwwLC4xMi0uMTh2LTIuNkEuMi4yLDAsMCwwLDguNDQsMTNMNS44LDEyLjFhLjE3LjE3LDAsMCwwLS4xMiwwbC0yLjYuNDdhLjE5LjE5LDAsMCwwLS4xNi4xOXYzLjU0YS4xOS4xOSwwLDAsMCwuMTUuMTlMNS43LDE3QS4yMy4yMywwLDAsMCw1Ljg0LDE3WiIvPjxwYXRoIGZpbGw9IiMzNDFhNmUiIGQ9Ik0yLjg3LDEyLjU2djMuOWwyLjg5LjYyVjEyWm0xLjIyLDMuNjFMMy4yOCwxNlYxM2wuODEtLjE0Wm0xLjI2LjIzLS45My0uMTVWMTIuODFsLjkzLS4xNloiLz48cG9seWdvbiBmaWxsPSJ1cmwoI2ExNTJiYmEwLWJhMmItNDgzYS1iOGMxLTBhZTdkZTM1NTk5MCkiIHBvaW50cz0iMTEuOTEgMTIuMDggOS4wNSAxMi42MSA5LjA1IDE2LjUxIDExLjkxIDE3LjEyIDE0Ljc4IDE1Ljk3IDE0Ljc4IDEzLjA2IDExLjkxIDEyLjA4Ii8+PHBhdGggZmlsbD0iIzM0MWE2ZSIgZD0iTTkuMDUsMTIuNjF2My45bDIuODkuNjF2LTVabTEuMjIsMy42MS0uODEtLjE3di0zbC44MS0uMTRabTEuMjYuMjItLjkzLS4xNVYxMi44NmwuOTMtLjE2WiIvPjwvc3ZnPg==;" parent="1" vertex="1">
          <mxGeometry x="35" y="410" width="50" height="50" as="geometry" />
        </mxCell>
        <mxCell id="d25lLXQw6UzLvYD5PqAA-5" value="AKS" style="text;html=1;strokeColor=none;fillColor=none;align=center;verticalAlign=middle;whiteSpace=wrap;rounded=0;" parent="1" vertex="1">
          <mxGeometry x="22.5" y="460" width="75" height="30" as="geometry" />
        </mxCell>
        <mxCell id="d25lLXQw6UzLvYD5PqAA-6" value="&lt;font color=&quot;#33ffff&quot;&gt;Cart App&lt;/font&gt;" style="text;html=1;strokeColor=none;fillColor=none;align=center;verticalAlign=middle;whiteSpace=wrap;rounded=0;" parent="1" vertex="1">
          <mxGeometry x="20" y="475" width="80" height="20" as="geometry" />
        </mxCell>
        <mxCell id="d25lLXQw6UzLvYD5PqAA-7" value="" style="shape=image;verticalLabelPosition=bottom;labelBackgroundColor=default;verticalAlign=top;aspect=fixed;imageAspect=0;image=data:image/svg+xml,PHN2ZyB4bWxucz0iaHR0cDovL3d3dy53My5vcmcvMjAwMC9zdmciIHZpZXdCb3g9IjAgMCAxOCAxOCIgaGVpZ2h0PSIxOCIgd2lkdGg9IjE4IiBpZD0iZTlmN2JhNzMtNTZiOC00ODY0LTk2ZmYtZGNlODBiZWY3MjlhIj48ZGVmcz48bGluZWFyR3JhZGllbnQgZ3JhZGllbnRVbml0cz0idXNlclNwYWNlT25Vc2UiIHkyPSIxNi43MzkiIHgyPSI4LjYzNyIgeTE9Ii0xLjk5MSIgeDE9IjguNjM3IiBpZD0iYmRmMjdkYzYtMDI1Yy00ODA1LThiZmQtM2EwNWRlZmQzZmJkIj48c3RvcCBzdG9wLWNvbG9yPSIjNWVhMGVmIiBvZmZzZXQ9IjAiLz48c3RvcCBzdG9wLWNvbG9yPSIjMDA3OGQ0IiBvZmZzZXQ9IjEiLz48L2xpbmVhckdyYWRpZW50PjxsaW5lYXJHcmFkaWVudCBncmFkaWVudFVuaXRzPSJ1c2VyU3BhY2VPblVzZSIgZ3JhZGllbnRUcmFuc2Zvcm09Im1hdHJpeCgxLCAwLCAwLCAtMSwgMCwgMjApIiB5Mj0iNi4xNDEiIHgyPSIxMi45NiIgeTE9IjguNTYxIiB4MT0iMTIuOTYiIGlkPSJmY2Q2YzZjNy1lMmViLTRhMzItYjkxNC0zYTg0ODU1ODVhMWIiPjxzdG9wIHN0b3AtY29sb3I9IiMzMzMxMzIiIG9mZnNldD0iMCIvPjxzdG9wIHN0b3AtY29sb3I9IiM1YjVhNWMiIG9mZnNldD0iMSIvPjwvbGluZWFyR3JhZGllbnQ+PC9kZWZzPjxwYXRoIGZpbGw9InVybCgjYmRmMjdkYzYtMDI1Yy00ODA1LThiZmQtM2EwNWRlZmQzZmJkKSIgZD0iTTcuNDMsOC4xNzhsMi41ODktMS41NzMsNy4yNTUsMi43MzFBMy42NjQsMy42NjQsMCwwLDAsMTYuMjMsNy40OWwtLjAxLS4wNUE0LjE5NCw0LjE5NCwwLDAsMCwxNCw2LjMyYTQuOTEsNC45MSwwLDAsMC01LjEtNC43QTUuMDcxLDUuMDcxLDAsMCwwLDQuMDYsNC45MSw0LjYyMSw0LjYyMSwwLDAsMCwwLDkuMzlhNC43Myw0LjczLDAsMCwwLDQuODksNC41NEg3LjQzWiIvPjxwb2x5Z29uIGZpbGw9IiM3Njc2NzYiIHBvaW50cz0iMTAuMDcgNy4xNTkgMTAuMDggMTEuNDM5IDE3Ljk5IDEzLjExOSAxNy45OSAxMC4xMzkgMTAuMDcgNy4xNTkiLz48cG9seWxpbmUgZmlsbD0iIzk5OSIgcG9pbnRzPSIxMC4wNyA3LjE1OSA3LjkzIDguNDU5IDcuOTMgMTIuNDM5IDEwLjA4IDExLjQzOSIvPjxwb2x5Z29uIGZpbGw9IiNhM2EzYTMiIHBvaW50cz0iMTMuNjggMTEuNDk5IDE0LjQgMTEuNjk5IDE0LjQgOS4zNjkgMTMuNjggOS4xMTkgMTMuNjggMTEuNDk5Ii8+PHBvbHlnb24gZmlsbD0iI2EzYTNhMyIgcG9pbnRzPSIxMi45NiA4Ljg4OSAxMi4yNCA4LjYyOSAxMi4yNCAxMS4xMTkgMTIuOTYgMTEuMzE5IDEyLjk2IDguODg5Ii8+PHBvbHlnb24gZmlsbD0iI2EzYTNhMyIgcG9pbnRzPSIxNS4xMiAxMS44ODkgMTUuODIgMTIuMDc5IDE1Ljg0IDkuODU5IDE1LjEyIDkuNjE5IDE1LjEyIDExLjg4OSIvPjxwb2x5Z29uIGZpbGw9IiNhM2EzYTMiIHBvaW50cz0iMTAuODEgMTAuNzQ5IDExLjUzIDEwLjkyOSAxMS41MyA4LjM5OSAxMC44MSA4LjE1OSAxMC44MSAxMC43NDkiLz48cG9seWdvbiBmaWxsPSIjYTNhM2EzIiBwb2ludHM9IjE3LjI3IDEwLjM0OSAxNi41NSAxMC4wOTkgMTYuNTUgMTIuMjY5IDE3LjI3IDEyLjQ2OSAxNy4yNyAxMC4zNDkiLz48cGF0aCBmaWxsPSIjYjNiM2IzIiBkPSJNOC42NiwxMS4zNjlsLS4zNi4yMVY4Ljc0OWwuMzYtLjE5Wm0uNzEtMy4yMkw5LDguMzg5djIuNzVsLjM3LS4yWiIgaWQ9ImVmMGQxYjU0LWExZTctNGNiOS1hNGU1LThhODUxOGU3YzEyNyIvPjxwb2x5Z29uIGZpbGw9InVybCgjZmNkNmM2YzctZTJlYi00YTMyLWI5MTQtM2E4NDg1NTg1YTFiKSIgcG9pbnRzPSIxNy45OSAxMy4xMTkgMTUuODMgMTMuODU5IDcuOTMgMTIuNDM5IDEwLjA4IDExLjQzOSAxNy45OSAxMy4xMTkiLz48cG9seWdvbiBmaWxsPSIjNzY3Njc2IiBwb2ludHM9IjE3Ljk5IDE2LjE2OSAxMC4wNCAxNy42NzkgMTAuMDggMTIuMDg5IDE3Ljk5IDEzLjU1OSAxNy45OSAxNi4xNjkiLz48cG9seWdvbiBmaWxsPSIjYTNhM2EzIiBwb2ludHM9IjEwLjgxIDE2Ljc1OSAxMC44MSAxMy4yMDkgMTEuNTMgMTMuMjk5IDExLjUzIDE2LjYzOSAxMC44MSAxNi43NTkiLz48cG9seWdvbiBmaWxsPSIjYTNhM2EzIiBwb2ludHM9IjEyLjk2IDE2LjM5OSAxMi4yNCAxNi41MjkgMTIuMjQgMTMuMzg5IDEyLjk2IDEzLjQ5OSAxMi45NiAxNi4zOTkgMTIuOTYgMTYuMzk5Ii8+PHBvbHlnb24gZmlsbD0iI2EzYTNhMyIgcG9pbnRzPSIxMy42OCAxNi4yODkgMTMuNjggMTMuNTY5IDE0LjQgMTMuNjU5IDE0LjQgMTYuMTU5IDEzLjY4IDE2LjI4OSIvPjxwb2x5Z29uIGZpbGw9IiNhM2EzYTMiIHBvaW50cz0iMTUuODMgMTUuOTA5IDE1LjEyIDE2LjAzOSAxNS4xMiAxMy43NDkgMTUuODMgMTMuODU5IDE1LjgzIDE1LjkwOSIvPjxwb2x5Z29uIGZpbGw9IiNhM2EzYTMiIHBvaW50cz0iMTcuMjkgMTUuNjc5IDE2LjU1IDE1LjgwOSAxNi41NSAxMy45MjkgMTcuMjQgMTQuMDE5IDE3LjI5IDE1LjY3OSIvPjxwYXRoIGZpbGw9IiM5OTkiIGQ9Ik03LjkzLDE2LjR2LTMuMjZsMi4xNi0xdjUuNloiIGlkPSJiOWYyNWViNC00Yzg4LTQ1YzItYmM0ZC1mOTkyNzU3ZDdlMGUiLz48cGF0aCBmaWxsPSIjYjNiM2IzIiBkPSJNOC42MSwxNi4zODlsLS4zMi0uMTZ2LTIuNzZsLjMyLS4xNVptLjc3LTMuNDUtLjM4LjE5djMuNDhsLjM3LjE5di0zLjg2WiIgaWQ9ImViOTIwMGE3LTQ2OTMtNDQyNy1iZGFlLWIzM2NlOTBmZjdmMiIvPjwvc3ZnPg==;" parent="1" vertex="1">
          <mxGeometry x="35" y="560" width="50" height="50" as="geometry" />
        </mxCell>
        <mxCell id="d25lLXQw6UzLvYD5PqAA-8" value="Azure Container Registry (ACR)" style="text;html=1;strokeColor=none;fillColor=none;align=center;verticalAlign=middle;whiteSpace=wrap;rounded=0;" parent="1" vertex="1">
          <mxGeometry x="-25" y="610" width="200" height="30" as="geometry" />
        </mxCell>
        <mxCell id="d25lLXQw6UzLvYD5PqAA-9" value="&lt;font color=&quot;#33ffff&quot;&gt;Cart docker&lt;/font&gt;" style="text;html=1;strokeColor=none;fillColor=none;align=center;verticalAlign=middle;whiteSpace=wrap;rounded=0;" parent="1" vertex="1">
          <mxGeometry x="22.5" y="630" width="80" height="20" as="geometry" />
        </mxCell>
        <mxCell id="d25lLXQw6UzLvYD5PqAA-11" value="&lt;font style=&quot;font-size: 9px;&quot;&gt;Host the docker image&lt;/font&gt;" style="rounded=1;whiteSpace=wrap;html=1;" parent="1" vertex="1">
          <mxGeometry x="97.5" y="570" width="77.5" height="40" as="geometry" />
        </mxCell>
        <mxCell id="d25lLXQw6UzLvYD5PqAA-12" value="&lt;font style=&quot;font-size: 9px;&quot;&gt;push the docker image, builds the container and run the docker service to make it public&lt;/font&gt;" style="rounded=1;whiteSpace=wrap;html=1;" parent="1" vertex="1">
          <mxGeometry x="-55" y="350" width="100" height="70" as="geometry" />
        </mxCell>
        <mxCell id="d25lLXQw6UzLvYD5PqAA-13" value="&lt;font style=&quot;font-size: 9px;&quot;&gt;Repository or collection of repositories to store docker images (private)&lt;/font&gt;" style="rounded=1;whiteSpace=wrap;html=1;" parent="1" vertex="1">
          <mxGeometry x="20" y="510" width="130" height="50" as="geometry" />
        </mxCell>
        <mxCell id="CiojnqRroy4dIicwmazC-4" value="" style="rounded=0;whiteSpace=wrap;html=1;dashed=1;" parent="1" vertex="1">
          <mxGeometry x="317" y="370" width="120" height="270" as="geometry" />
        </mxCell>
        <mxCell id="CiojnqRroy4dIicwmazC-32" value="" style="shape=image;verticalLabelPosition=bottom;labelBackgroundColor=default;verticalAlign=top;aspect=fixed;imageAspect=0;image=data:image/svg+xml,PHN2ZyB4bWxucz0iaHR0cDovL3d3dy53My5vcmcvMjAwMC9zdmciIHZpZXdCb3g9IjAgMCAxOCAxOCIgaGVpZ2h0PSIxOCIgd2lkdGg9IjE4IiBpZD0iYjc1OTQzYmEtMWEzZi00ODVkLWI0NWQtM2ZlZTAwZWQ3ZTVlIj48ZGVmcz48bGluZWFyR3JhZGllbnQgZ3JhZGllbnRVbml0cz0idXNlclNwYWNlT25Vc2UiIHkyPSIxNy4yNSIgeDI9IjkuMDEiIHkxPSIwLjc1IiB4MT0iOS4wMSIgaWQ9ImZlNWNlNDNmLTI4MjMtNDYxNy1iYjU0LTU3ZGY5ZTc3ODM3MiI+PHN0b3Agc3RvcC1jb2xvcj0iIzVlYTBlZiIgb2Zmc2V0PSIwIi8+PHN0b3Agc3RvcC1jb2xvcj0iIzU1OWNlYyIgb2Zmc2V0PSIwLjE4Ii8+PHN0b3Agc3RvcC1jb2xvcj0iIzNjOTFlNSIgb2Zmc2V0PSIwLjQ3Ii8+PHN0b3Agc3RvcC1jb2xvcj0iIzEzODBkYSIgb2Zmc2V0PSIwLjg0Ii8+PHN0b3Agc3RvcC1jb2xvcj0iIzAwNzhkNCIgb2Zmc2V0PSIxIi8+PC9saW5lYXJHcmFkaWVudD48L2RlZnM+PHRpdGxlPkljb24tbmV0d29ya2luZy02NzwvdGl0bGU+PHBhdGggZmlsbD0iIzAwNzhkNCIgZD0iTTE2LjM2LDguNGMwLDQuODQtNS44NSw4Ljc0LTcuMTIsOS41M2EuNDYuNDYsMCwwLDEtLjQ4LDBjLTEuMjctLjc5LTcuMTItNC42OS03LjEyLTkuNTNWMi41OGEuNDYuNDYsMCwwLDEsLjQ1LS40NkM2LjY0LDIsNS41OSwwLDksMHMyLjM2LDIsNi45MSwyLjEyYS40Ni40NiwwLDAsMSwuNDUuNDZaIi8+PHBhdGggZmlsbD0iIzZiYjlmMiIgZD0iTTE1Ljc1LDguNDVjMCw0LjQ0LTUuMzYsOC02LjUzLDguNzRhLjQzLjQzLDAsMCwxLS40NCwwYy0xLjE3LS43Mi02LjUzLTQuMy02LjUzLTguNzRWMy4xMWEuNDIuNDIsMCwwLDEsLjQxLS40MkM2LjgzLDIuNTgsNS44Ny43NSw5LC43NXMyLjE3LDEuODMsNi4zNCwxLjk0YS40Mi40MiwwLDAsMSwuNDEuNDJaIi8+PHBhdGggZmlsbD0idXJsKCNmZTVjZTQzZi0yODIzLTQ2MTctYmI1NC01N2RmOWU3NzgzNzIpIiBkPSJNOSw5Vi43NWMzLjEzLDAsMi4xNywxLjgzLDYuMzQsMS45NGEuNDMuNDMsMCwwLDEsLjQxLjQzVjguNDZhNC44OSw0Ljg5LDAsMCwxLDAsLjU0Wk05LDlIMi4yOGMuNCw0LjE4LDUuMzgsNy41LDYuNSw4LjE5YS4zOS4zOSwwLDAsMCwuMTguMDZIOVoiLz48cGF0aCBmaWxsPSIjNTBlNmZmIiBkPSJNMi42NiwyLjY5QzYuODMsMi41OCw1Ljg3Ljc1LDksLjc1VjlIMi4yOGE0Ljg5LDQuODksMCwwLDEsMC0uNTRWMy4xMkEuNDMuNDMsMCwwLDEsMi42NiwyLjY5WiIvPjxwYXRoIGZpbGw9IiM1MGU2ZmYiIGQ9Ik0xNS43Miw5SDl2OC4yNUg5YS4zOS4zOSwwLDAsMCwuMTgtLjA2QzEwLjM0LDE2LjUsMTUuMzIsMTMuMTgsMTUuNzIsOVoiLz48L3N2Zz4=;" parent="1" vertex="1">
          <mxGeometry x="355" y="340" width="44" height="44" as="geometry" />
        </mxCell>
        <mxCell id="CiojnqRroy4dIicwmazC-35" value="Network&lt;br&gt;Security&lt;br&gt;Group &lt;br&gt;( NSG)" style="text;html=1;strokeColor=none;fillColor=none;align=center;verticalAlign=middle;whiteSpace=wrap;rounded=0;" parent="1" vertex="1">
          <mxGeometry x="334.5" y="400" width="85" height="30" as="geometry" />
        </mxCell>
        <mxCell id="CiojnqRroy4dIicwmazC-53" style="edgeStyle=orthogonalEdgeStyle;rounded=0;orthogonalLoop=1;jettySize=auto;html=1;" parent="1" source="CiojnqRroy4dIicwmazC-36" edge="1">
          <mxGeometry relative="1" as="geometry">
            <mxPoint x="455" y="505" as="targetPoint" />
          </mxGeometry>
        </mxCell>
        <mxCell id="CiojnqRroy4dIicwmazC-36" value="" style="rounded=0;whiteSpace=wrap;html=1;dashed=1;" parent="1" vertex="1">
          <mxGeometry x="520" y="376.5" width="285" height="270" as="geometry" />
        </mxCell>
        <mxCell id="CiojnqRroy4dIicwmazC-37" value="" style="shape=image;verticalLabelPosition=bottom;labelBackgroundColor=default;verticalAlign=top;aspect=fixed;imageAspect=0;image=data:image/svg+xml,PHN2ZyB4bWxucz0iaHR0cDovL3d3dy53My5vcmcvMjAwMC9zdmciIHZpZXdCb3g9IjAgMCAxOCAxOCIgaGVpZ2h0PSIxOCIgd2lkdGg9IjE4IiBpZD0iYjc1OTQzYmEtMWEzZi00ODVkLWI0NWQtM2ZlZTAwZWQ3ZTVlIj48ZGVmcz48bGluZWFyR3JhZGllbnQgZ3JhZGllbnRVbml0cz0idXNlclNwYWNlT25Vc2UiIHkyPSIxNy4yNSIgeDI9IjkuMDEiIHkxPSIwLjc1IiB4MT0iOS4wMSIgaWQ9ImZlNWNlNDNmLTI4MjMtNDYxNy1iYjU0LTU3ZGY5ZTc3ODM3MiI+PHN0b3Agc3RvcC1jb2xvcj0iIzVlYTBlZiIgb2Zmc2V0PSIwIi8+PHN0b3Agc3RvcC1jb2xvcj0iIzU1OWNlYyIgb2Zmc2V0PSIwLjE4Ii8+PHN0b3Agc3RvcC1jb2xvcj0iIzNjOTFlNSIgb2Zmc2V0PSIwLjQ3Ii8+PHN0b3Agc3RvcC1jb2xvcj0iIzEzODBkYSIgb2Zmc2V0PSIwLjg0Ii8+PHN0b3Agc3RvcC1jb2xvcj0iIzAwNzhkNCIgb2Zmc2V0PSIxIi8+PC9saW5lYXJHcmFkaWVudD48L2RlZnM+PHRpdGxlPkljb24tbmV0d29ya2luZy02NzwvdGl0bGU+PHBhdGggZmlsbD0iIzAwNzhkNCIgZD0iTTE2LjM2LDguNGMwLDQuODQtNS44NSw4Ljc0LTcuMTIsOS41M2EuNDYuNDYsMCwwLDEtLjQ4LDBjLTEuMjctLjc5LTcuMTItNC42OS03LjEyLTkuNTNWMi41OGEuNDYuNDYsMCwwLDEsLjQ1LS40NkM2LjY0LDIsNS41OSwwLDksMHMyLjM2LDIsNi45MSwyLjEyYS40Ni40NiwwLDAsMSwuNDUuNDZaIi8+PHBhdGggZmlsbD0iIzZiYjlmMiIgZD0iTTE1Ljc1LDguNDVjMCw0LjQ0LTUuMzYsOC02LjUzLDguNzRhLjQzLjQzLDAsMCwxLS40NCwwYy0xLjE3LS43Mi02LjUzLTQuMy02LjUzLTguNzRWMy4xMWEuNDIuNDIsMCwwLDEsLjQxLS40MkM2LjgzLDIuNTgsNS44Ny43NSw5LC43NXMyLjE3LDEuODMsNi4zNCwxLjk0YS40Mi40MiwwLDAsMSwuNDEuNDJaIi8+PHBhdGggZmlsbD0idXJsKCNmZTVjZTQzZi0yODIzLTQ2MTctYmI1NC01N2RmOWU3NzgzNzIpIiBkPSJNOSw5Vi43NWMzLjEzLDAsMi4xNywxLjgzLDYuMzQsMS45NGEuNDMuNDMsMCwwLDEsLjQxLjQzVjguNDZhNC44OSw0Ljg5LDAsMCwxLDAsLjU0Wk05LDlIMi4yOGMuNCw0LjE4LDUuMzgsNy41LDYuNSw4LjE5YS4zOS4zOSwwLDAsMCwuMTguMDZIOVoiLz48cGF0aCBmaWxsPSIjNTBlNmZmIiBkPSJNMi42NiwyLjY5QzYuODMsMi41OCw1Ljg3Ljc1LDksLjc1VjlIMi4yOGE0Ljg5LDQuODksMCwwLDEsMC0uNTRWMy4xMkEuNDMuNDMsMCwwLDEsMi42NiwyLjY5WiIvPjxwYXRoIGZpbGw9IiM1MGU2ZmYiIGQ9Ik0xNS43Miw5SDl2OC4yNUg5YS4zOS4zOSwwLDAsMCwuMTgtLjA2QzEwLjM0LDE2LjUsMTUuMzIsMTMuMTgsMTUuNzIsOVoiLz48L3N2Zz4=;" parent="1" vertex="1">
          <mxGeometry x="645.5" y="340" width="44" height="44" as="geometry" />
        </mxCell>
        <mxCell id="CiojnqRroy4dIicwmazC-38" value="NSG" style="text;html=1;strokeColor=none;fillColor=none;align=center;verticalAlign=middle;whiteSpace=wrap;rounded=0;" parent="1" vertex="1">
          <mxGeometry x="637.5" y="380" width="60" height="30" as="geometry" />
        </mxCell>
        <mxCell id="CiojnqRroy4dIicwmazC-39" value="" style="shape=image;verticalLabelPosition=bottom;labelBackgroundColor=default;verticalAlign=top;aspect=fixed;imageAspect=0;image=data:image/svg+xml,PHN2ZyB4bWxucz0iaHR0cDovL3d3dy53My5vcmcvMjAwMC9zdmciIHZpZXdCb3g9IjAgMCAxOCAxOCIgaGVpZ2h0PSIxOCIgd2lkdGg9IjE4IiBpZD0iYTI2NGQ2NTUtMWRiYi00OWQyLWFiMTEtNTY2MTYzNmRjYWMzIj48ZGVmcz48bGluZWFyR3JhZGllbnQgZ3JhZGllbnRVbml0cz0idXNlclNwYWNlT25Vc2UiIGdyYWRpZW50VHJhbnNmb3JtPSJ0cmFuc2xhdGUoMi4wMyAtMS4xNSkgcm90YXRlKC0wLjA4KSIgeTI9IjkiIHgyPSIxMC43IiB5MT0iMTEuMzIiIHgxPSIxMC43IiBpZD0iYTg1MmU2MTEtNTg0OS00NjcwLTg5Y2UtNTE4ZGRmN2VkZWFlIj48c3RvcCBzdG9wLWNvbG9yPSIjMDA3OGQ0IiBvZmZzZXQ9IjAiLz48c3RvcCBzdG9wLWNvbG9yPSIjNWVhMGVmIiBvZmZzZXQ9IjAuODIiLz48L2xpbmVhckdyYWRpZW50PjxsaW5lYXJHcmFkaWVudCBncmFkaWVudFVuaXRzPSJ1c2VyU3BhY2VPblVzZSIgeTI9IjkiIHgyPSI3IiB5MT0iMTEuMzIiIHgxPSI2Ljk5IiBpZD0iYTIzNTA4NjItZjk5Ny00YzU3LWFhZDAtYzE2ZjljYTRjMGMzIj48c3RvcCBzdG9wLWNvbG9yPSIjMDA3OGQ0IiBvZmZzZXQ9IjAiLz48c3RvcCBzdG9wLWNvbG9yPSIjNWVhMGVmIiBvZmZzZXQ9IjAuODIiLz48L2xpbmVhckdyYWRpZW50PjxsaW5lYXJHcmFkaWVudCBncmFkaWVudFVuaXRzPSJ1c2VyU3BhY2VPblVzZSIgeTI9IjkiIHgyPSIzLjMiIHkxPSIxMS4zMiIgeDE9IjMuMjkiIGlkPSJlNTQ3MzY5NS0wNjhhLTQ0ZmYtYjNkYy05MjcxNTkyMjZhOGUiPjxzdG9wIHN0b3AtY29sb3I9IiMwMDc4ZDQiIG9mZnNldD0iMCIvPjxzdG9wIHN0b3AtY29sb3I9IiM1ZWEwZWYiIG9mZnNldD0iMC44MiIvPjwvbGluZWFyR3JhZGllbnQ+PC9kZWZzPjx0aXRsZT5JY29uLW5ldHdvcmtpbmctNzU8L3RpdGxlPjxjaXJjbGUgZmlsbD0idXJsKCNhODUyZTYxMS01ODQ5LTQ2NzAtODljZS01MThkZGY3ZWRlYWUpIiByPSIxLjE2IiBjeT0iOC45OSIgY3g9IjEyLjc0Ii8+PGNpcmNsZSBmaWxsPSJ1cmwoI2EyMzUwODYyLWY5OTctNGM1Ny1hYWQwLWMxNmY5Y2E0YzBjMykiIHI9IjEuMTYiIGN5PSI5IiBjeD0iOS4wNCIvPjxjaXJjbGUgZmlsbD0idXJsKCNlNTQ3MzY5NS0wNjhhLTQ0ZmYtYjNkYy05MjcxNTkyMjZhOGUpIiByPSIxLjE2IiBjeT0iOSIgY3g9IjUuMzQiLz48cGF0aCBmaWxsPSIjNTBlNmZmIiB0cmFuc2Zvcm09InRyYW5zbGF0ZSgxMy4xOCAxNi45Mykgcm90YXRlKDEzNC45MikiIGQ9Ik0yLjYxLDcuMjhoLjk0YS4zLjMsMCwwLDEsLjMuM3Y2Ljk0YS42LjYsMCwwLDEtLjYuNkgyLjMxYTAsMCwwLDAsMSwwLDBWNy41OEEuMy4zLDAsMCwxLDIuNjEsNy4yOFoiLz48cGF0aCBmaWxsPSIjMTQ5MGRmIiB0cmFuc2Zvcm09InRyYW5zbGF0ZSg1LjY2IC0wLjE2KSByb3RhdGUoNDQuOTIpIiBkPSJNMi41NiwyLjkxSDMuNWEuMy4zLDAsMCwxLC4zLjN2Ny40M2EwLDAsMCwwLDEsMCwwSDIuODZhLjYuNiwwLDAsMS0uNi0uNlYzLjIxYS4zLjMsMCwwLDEsLjMtLjNaIi8+PHBhdGggZmlsbD0iIzUwZTZmZiIgdHJhbnNmb3JtPSJ0cmFuc2xhdGUoMTIuMzIgLTcuMjgpIHJvdGF0ZSg0NS4wOCkiIGQ9Ik0xNC4xNSw3LjI4aC45NGEuNi42LDAsMCwxLC42LjZ2Ni45NGEuMy4zLDAsMCwxLS4zLjNoLS45NGEuMy4zLDAsMCwxLS4zLS4zVjcuMjhhMCwwLDAsMCwxLDAsMFoiLz48cGF0aCBmaWxsPSIjMTQ5MGRmIiB0cmFuc2Zvcm09InRyYW5zbGF0ZSgzMC4zNiAwLjk5KSByb3RhdGUoMTM1LjA4KSIgZD0iTTE0LjgxLDIuOTFoLjk0YTAsMCwwLDAsMSwwLDB2Ny40M2EuMy4zLDAsMCwxLS4zLjNIMTQuNWEuMy4zLDAsMCwxLS4zLS4zVjMuNTFhLjYuNiwwLDAsMSwuNi0uNloiLz48L3N2Zz4=;" parent="1" vertex="1">
          <mxGeometry x="296" y="305" width="40" height="40" as="geometry" />
        </mxCell>
        <mxCell id="CiojnqRroy4dIicwmazC-41" value="Vnet" style="text;html=1;strokeColor=none;fillColor=none;align=center;verticalAlign=middle;whiteSpace=wrap;rounded=0;" parent="1" vertex="1">
          <mxGeometry x="286" y="325" width="60" height="30" as="geometry" />
        </mxCell>
        <mxCell id="CiojnqRroy4dIicwmazC-42" value="&lt;font color=&quot;#33ffff&quot;&gt;Weather VNet&lt;/font&gt;" style="text;html=1;strokeColor=none;fillColor=none;align=center;verticalAlign=middle;whiteSpace=wrap;rounded=0;" parent="1" vertex="1">
          <mxGeometry x="274" y="335" width="80" height="30" as="geometry" />
        </mxCell>
        <mxCell id="CiojnqRroy4dIicwmazC-43" value="" style="shape=image;verticalLabelPosition=bottom;labelBackgroundColor=default;verticalAlign=top;aspect=fixed;imageAspect=0;image=data:image/svg+xml,PHN2ZyB4bWxucz0iaHR0cDovL3d3dy53My5vcmcvMjAwMC9zdmciIHZpZXdCb3g9IjAgMCAxOCAxOCIgaGVpZ2h0PSIxOCIgd2lkdGg9IjE4IiBpZD0iYTI2NGQ2NTUtMWRiYi00OWQyLWFiMTEtNTY2MTYzNmRjYWMzIj48ZGVmcz48bGluZWFyR3JhZGllbnQgZ3JhZGllbnRVbml0cz0idXNlclNwYWNlT25Vc2UiIGdyYWRpZW50VHJhbnNmb3JtPSJ0cmFuc2xhdGUoMi4wMyAtMS4xNSkgcm90YXRlKC0wLjA4KSIgeTI9IjkiIHgyPSIxMC43IiB5MT0iMTEuMzIiIHgxPSIxMC43IiBpZD0iYTg1MmU2MTEtNTg0OS00NjcwLTg5Y2UtNTE4ZGRmN2VkZWFlIj48c3RvcCBzdG9wLWNvbG9yPSIjMDA3OGQ0IiBvZmZzZXQ9IjAiLz48c3RvcCBzdG9wLWNvbG9yPSIjNWVhMGVmIiBvZmZzZXQ9IjAuODIiLz48L2xpbmVhckdyYWRpZW50PjxsaW5lYXJHcmFkaWVudCBncmFkaWVudFVuaXRzPSJ1c2VyU3BhY2VPblVzZSIgeTI9IjkiIHgyPSI3IiB5MT0iMTEuMzIiIHgxPSI2Ljk5IiBpZD0iYTIzNTA4NjItZjk5Ny00YzU3LWFhZDAtYzE2ZjljYTRjMGMzIj48c3RvcCBzdG9wLWNvbG9yPSIjMDA3OGQ0IiBvZmZzZXQ9IjAiLz48c3RvcCBzdG9wLWNvbG9yPSIjNWVhMGVmIiBvZmZzZXQ9IjAuODIiLz48L2xpbmVhckdyYWRpZW50PjxsaW5lYXJHcmFkaWVudCBncmFkaWVudFVuaXRzPSJ1c2VyU3BhY2VPblVzZSIgeTI9IjkiIHgyPSIzLjMiIHkxPSIxMS4zMiIgeDE9IjMuMjkiIGlkPSJlNTQ3MzY5NS0wNjhhLTQ0ZmYtYjNkYy05MjcxNTkyMjZhOGUiPjxzdG9wIHN0b3AtY29sb3I9IiMwMDc4ZDQiIG9mZnNldD0iMCIvPjxzdG9wIHN0b3AtY29sb3I9IiM1ZWEwZWYiIG9mZnNldD0iMC44MiIvPjwvbGluZWFyR3JhZGllbnQ+PC9kZWZzPjx0aXRsZT5JY29uLW5ldHdvcmtpbmctNzU8L3RpdGxlPjxjaXJjbGUgZmlsbD0idXJsKCNhODUyZTYxMS01ODQ5LTQ2NzAtODljZS01MThkZGY3ZWRlYWUpIiByPSIxLjE2IiBjeT0iOC45OSIgY3g9IjEyLjc0Ii8+PGNpcmNsZSBmaWxsPSJ1cmwoI2EyMzUwODYyLWY5OTctNGM1Ny1hYWQwLWMxNmY5Y2E0YzBjMykiIHI9IjEuMTYiIGN5PSI5IiBjeD0iOS4wNCIvPjxjaXJjbGUgZmlsbD0idXJsKCNlNTQ3MzY5NS0wNjhhLTQ0ZmYtYjNkYy05MjcxNTkyMjZhOGUpIiByPSIxLjE2IiBjeT0iOSIgY3g9IjUuMzQiLz48cGF0aCBmaWxsPSIjNTBlNmZmIiB0cmFuc2Zvcm09InRyYW5zbGF0ZSgxMy4xOCAxNi45Mykgcm90YXRlKDEzNC45MikiIGQ9Ik0yLjYxLDcuMjhoLjk0YS4zLjMsMCwwLDEsLjMuM3Y2Ljk0YS42LjYsMCwwLDEtLjYuNkgyLjMxYTAsMCwwLDAsMSwwLDBWNy41OEEuMy4zLDAsMCwxLDIuNjEsNy4yOFoiLz48cGF0aCBmaWxsPSIjMTQ5MGRmIiB0cmFuc2Zvcm09InRyYW5zbGF0ZSg1LjY2IC0wLjE2KSByb3RhdGUoNDQuOTIpIiBkPSJNMi41NiwyLjkxSDMuNWEuMy4zLDAsMCwxLC4zLjN2Ny40M2EwLDAsMCwwLDEsMCwwSDIuODZhLjYuNiwwLDAsMS0uNi0uNlYzLjIxYS4zLjMsMCwwLDEsLjMtLjNaIi8+PHBhdGggZmlsbD0iIzUwZTZmZiIgdHJhbnNmb3JtPSJ0cmFuc2xhdGUoMTIuMzIgLTcuMjgpIHJvdGF0ZSg0NS4wOCkiIGQ9Ik0xNC4xNSw3LjI4aC45NGEuNi42LDAsMCwxLC42LjZ2Ni45NGEuMy4zLDAsMCwxLS4zLjNoLS45NGEuMy4zLDAsMCwxLS4zLS4zVjcuMjhhMCwwLDAsMCwxLDAsMFoiLz48cGF0aCBmaWxsPSIjMTQ5MGRmIiB0cmFuc2Zvcm09InRyYW5zbGF0ZSgzMC4zNiAwLjk5KSByb3RhdGUoMTM1LjA4KSIgZD0iTTE0LjgxLDIuOTFoLjk0YTAsMCwwLDAsMSwwLDB2Ny40M2EuMy4zLDAsMCwxLS4zLjNIMTQuNWEuMy4zLDAsMCwxLS4zLS4zVjMuNTFhLjYuNiwwLDAsMSwuNi0uNloiLz48L3N2Zz4=;" parent="1" vertex="1">
          <mxGeometry x="757" y="305" width="40" height="40" as="geometry" />
        </mxCell>
        <mxCell id="CiojnqRroy4dIicwmazC-44" value="Vnet" style="text;html=1;strokeColor=none;fillColor=none;align=center;verticalAlign=middle;whiteSpace=wrap;rounded=0;" parent="1" vertex="1">
          <mxGeometry x="745" y="325" width="62" height="30" as="geometry" />
        </mxCell>
        <mxCell id="CiojnqRroy4dIicwmazC-45" value="&lt;font color=&quot;#33ffff&quot;&gt;Catalog VNet&lt;/font&gt;" style="text;html=1;strokeColor=none;fillColor=none;align=center;verticalAlign=middle;whiteSpace=wrap;rounded=0;" parent="1" vertex="1">
          <mxGeometry x="735" y="335" width="80" height="30" as="geometry" />
        </mxCell>
        <mxCell id="jNzlEzwgy13GT3eduAT7-3" value="" style="shape=image;verticalLabelPosition=bottom;labelBackgroundColor=default;verticalAlign=top;aspect=fixed;imageAspect=0;image=data:image/svg+xml,PHN2ZyB4bWxucz0iaHR0cDovL3d3dy53My5vcmcvMjAwMC9zdmciIHZpZXdCb3g9IjAgMCAxOCAxOCIgaGVpZ2h0PSIxOCIgd2lkdGg9IjE4IiBpZD0iZWM2ZGM1ZTgtNTk1OC00Njg4LTgzM2ItZjk1ZWMwNjFhNGE4Ij48ZGVmcz48bGluZWFyR3JhZGllbnQgZ3JhZGllbnRVbml0cz0idXNlclNwYWNlT25Vc2UiIHkyPSIxLjAyIiB4Mj0iOC44NiIgeTE9IjEzLjAyIiB4MT0iOC44NiIgaWQ9ImFiZTNlMGZkLWY1ZjUtNGQ2Ny04Y2NhLWNiNjMxNGQ1ZGE2MiI+PHN0b3Agc3RvcC1jb2xvcj0iIzAwNzhkNCIgb2Zmc2V0PSIwIi8+PHN0b3Agc3RvcC1jb2xvcj0iIzVlYTBlZiIgb2Zmc2V0PSIwLjgyIi8+PC9saW5lYXJHcmFkaWVudD48bGluZWFyR3JhZGllbnQgZ3JhZGllbnRVbml0cz0idXNlclNwYWNlT25Vc2UiIHkyPSIxMy4wMiIgeDI9IjguODYiIHkxPSIxNy42NSIgeDE9IjguODYiIGlkPSJhNDljMmZkMi03YzcxLTRkNjMtYjY4Zi1kZGY1NTk0ZGQwYjgiPjxzdG9wIHN0b3AtY29sb3I9IiMxNDkwZGYiIG9mZnNldD0iMCIvPjxzdG9wIHN0b3AtY29sb3I9IiMxZjU2YTMiIG9mZnNldD0iMC45OCIvPjwvbGluZWFyR3JhZGllbnQ+PC9kZWZzPjx0aXRsZT5JY29uLWNvbXB1dGUtMjg8L3RpdGxlPjxyZWN0IGZpbGw9InVybCgjYWJlM2UwZmQtZjVmNS00ZDY3LThjY2EtY2I2MzE0ZDVkYTYyKSIgcng9IjAuNiIgaGVpZ2h0PSIxMiIgd2lkdGg9IjE4IiB5PSIxLjAyIiB4PSItMC4xNCIvPjxyZWN0IGZpbGw9IiNmZmYiIHJ4PSIwLjMzIiBoZWlnaHQ9IjEwIiB3aWR0aD0iMTYiIHk9IjIuMDIiIHg9IjAuODYiLz48cG9seWdvbiBmaWxsPSIjMDA3OGQ0IiBwb2ludHM9IjExLjg2IDUuMjcgMTEuODYgOC43NiA4Ljg2IDEwLjUyIDguODYgNy4wMiAxMS44NiA1LjI3Ii8+PHBvbHlnb24gZmlsbD0iIzgzYjlmOSIgcG9pbnRzPSIxMS44NiA1LjI3IDguODYgNy4wMyA1Ljg2IDUuMjcgOC44NiAzLjUyIDExLjg2IDUuMjciLz48cG9seWdvbiBmaWxsPSIjNWVhMGVmIiBwb2ludHM9IjguODYgNy4wMyA4Ljg2IDEwLjUyIDUuODYgOC43NiA1Ljg2IDUuMjcgOC44NiA3LjAzIi8+PHBvbHlnb24gb3BhY2l0eT0iMC4yIiBmaWxsPSIjODNiOWY5IiBwb2ludHM9IjUuODYgOC43NiA4Ljg2IDcuMDIgOC44NiAxMC41MiA1Ljg2IDguNzYiLz48cG9seWdvbiBvcGFjaXR5PSIwLjIiIGZpbGw9IiM1ZWEwZWYiIHBvaW50cz0iMTEuODYgOC43NiA4Ljg2IDcuMDIgOC44NiAxMC41MiAxMS44NiA4Ljc2Ii8+PHBhdGggZmlsbD0idXJsKCNhNDljMmZkMi03YzcxLTRkNjMtYjY4Zi1kZGY1NTk0ZGQwYjgpIiBkPSJNMTIuNDYsMTYuNjVjLTEuNzctLjI4LTEuODQtMS41Ny0xLjg0LTMuNjNINy4wOWMwLDIuMDYtLjA3LDMuMzUtMS44NCwzLjYzYTEsMSwwLDAsMC0uODksMWg5QTEsMSwwLDAsMCwxMi40NiwxNi42NVoiLz48L3N2Zz4=;" parent="1" vertex="1">
          <mxGeometry x="354" y="465" width="45" height="45" as="geometry" />
        </mxCell>
        <mxCell id="jNzlEzwgy13GT3eduAT7-5" value="VM" style="text;html=1;strokeColor=none;fillColor=none;align=center;verticalAlign=middle;whiteSpace=wrap;rounded=0;" parent="1" vertex="1">
          <mxGeometry x="347" y="500" width="60" height="30" as="geometry" />
        </mxCell>
        <mxCell id="jNzlEzwgy13GT3eduAT7-7" value="&lt;font color=&quot;#33ffff&quot;&gt;Weather API&lt;/font&gt;" style="text;html=1;strokeColor=none;fillColor=none;align=center;verticalAlign=middle;whiteSpace=wrap;rounded=0;" parent="1" vertex="1">
          <mxGeometry x="337" y="510" width="80" height="30" as="geometry" />
        </mxCell>
        <mxCell id="jNzlEzwgy13GT3eduAT7-4" value="" style="shape=image;verticalLabelPosition=bottom;labelBackgroundColor=default;verticalAlign=top;aspect=fixed;imageAspect=0;image=data:image/svg+xml,PHN2ZyB4bWxucz0iaHR0cDovL3d3dy53My5vcmcvMjAwMC9zdmciIHZpZXdCb3g9IjAgMCAxOCAxOCIgaGVpZ2h0PSIxOCIgd2lkdGg9IjE4IiBpZD0iZWM2ZGM1ZTgtNTk1OC00Njg4LTgzM2ItZjk1ZWMwNjFhNGE4Ij48ZGVmcz48bGluZWFyR3JhZGllbnQgZ3JhZGllbnRVbml0cz0idXNlclNwYWNlT25Vc2UiIHkyPSIxLjAyIiB4Mj0iOC44NiIgeTE9IjEzLjAyIiB4MT0iOC44NiIgaWQ9ImFiZTNlMGZkLWY1ZjUtNGQ2Ny04Y2NhLWNiNjMxNGQ1ZGE2MiI+PHN0b3Agc3RvcC1jb2xvcj0iIzAwNzhkNCIgb2Zmc2V0PSIwIi8+PHN0b3Agc3RvcC1jb2xvcj0iIzVlYTBlZiIgb2Zmc2V0PSIwLjgyIi8+PC9saW5lYXJHcmFkaWVudD48bGluZWFyR3JhZGllbnQgZ3JhZGllbnRVbml0cz0idXNlclNwYWNlT25Vc2UiIHkyPSIxMy4wMiIgeDI9IjguODYiIHkxPSIxNy42NSIgeDE9IjguODYiIGlkPSJhNDljMmZkMi03YzcxLTRkNjMtYjY4Zi1kZGY1NTk0ZGQwYjgiPjxzdG9wIHN0b3AtY29sb3I9IiMxNDkwZGYiIG9mZnNldD0iMCIvPjxzdG9wIHN0b3AtY29sb3I9IiMxZjU2YTMiIG9mZnNldD0iMC45OCIvPjwvbGluZWFyR3JhZGllbnQ+PC9kZWZzPjx0aXRsZT5JY29uLWNvbXB1dGUtMjg8L3RpdGxlPjxyZWN0IGZpbGw9InVybCgjYWJlM2UwZmQtZjVmNS00ZDY3LThjY2EtY2I2MzE0ZDVkYTYyKSIgcng9IjAuNiIgaGVpZ2h0PSIxMiIgd2lkdGg9IjE4IiB5PSIxLjAyIiB4PSItMC4xNCIvPjxyZWN0IGZpbGw9IiNmZmYiIHJ4PSIwLjMzIiBoZWlnaHQ9IjEwIiB3aWR0aD0iMTYiIHk9IjIuMDIiIHg9IjAuODYiLz48cG9seWdvbiBmaWxsPSIjMDA3OGQ0IiBwb2ludHM9IjExLjg2IDUuMjcgMTEuODYgOC43NiA4Ljg2IDEwLjUyIDguODYgNy4wMiAxMS44NiA1LjI3Ii8+PHBvbHlnb24gZmlsbD0iIzgzYjlmOSIgcG9pbnRzPSIxMS44NiA1LjI3IDguODYgNy4wMyA1Ljg2IDUuMjcgOC44NiAzLjUyIDExLjg2IDUuMjciLz48cG9seWdvbiBmaWxsPSIjNWVhMGVmIiBwb2ludHM9IjguODYgNy4wMyA4Ljg2IDEwLjUyIDUuODYgOC43NiA1Ljg2IDUuMjcgOC44NiA3LjAzIi8+PHBvbHlnb24gb3BhY2l0eT0iMC4yIiBmaWxsPSIjODNiOWY5IiBwb2ludHM9IjUuODYgOC43NiA4Ljg2IDcuMDIgOC44NiAxMC41MiA1Ljg2IDguNzYiLz48cG9seWdvbiBvcGFjaXR5PSIwLjIiIGZpbGw9IiM1ZWEwZWYiIHBvaW50cz0iMTEuODYgOC43NiA4Ljg2IDcuMDIgOC44NiAxMC41MiAxMS44NiA4Ljc2Ii8+PHBhdGggZmlsbD0idXJsKCNhNDljMmZkMi03YzcxLTRkNjMtYjY4Zi1kZGY1NTk0ZGQwYjgpIiBkPSJNMTIuNDYsMTYuNjVjLTEuNzctLjI4LTEuODQtMS41Ny0xLjg0LTMuNjNINy4wOWMwLDIuMDYtLjA3LDMuMzUtMS44NCwzLjYzYTEsMSwwLDAsMC0uODksMWg5QTEsMSwwLDAsMCwxMi40NiwxNi42NVoiLz48L3N2Zz4=;" parent="1" vertex="1">
          <mxGeometry x="645.5" y="470" width="45" height="45" as="geometry" />
        </mxCell>
        <mxCell id="jNzlEzwgy13GT3eduAT7-6" value="VM" style="text;html=1;strokeColor=none;fillColor=none;align=center;verticalAlign=middle;whiteSpace=wrap;rounded=0;" parent="1" vertex="1">
          <mxGeometry x="632.5" y="510" width="60" height="30" as="geometry" />
        </mxCell>
        <mxCell id="Yk7LDbt8gfweT-zW2T4R-7" style="edgeStyle=orthogonalEdgeStyle;rounded=0;orthogonalLoop=1;jettySize=auto;html=1;entryX=1;entryY=0.5;entryDx=0;entryDy=0;" parent="1" source="jNzlEzwgy13GT3eduAT7-8" target="Yk7LDbt8gfweT-zW2T4R-4" edge="1">
          <mxGeometry relative="1" as="geometry">
            <Array as="points">
              <mxPoint x="668" y="705" />
            </Array>
          </mxGeometry>
        </mxCell>
        <mxCell id="Yk7LDbt8gfweT-zW2T4R-8" style="edgeStyle=orthogonalEdgeStyle;rounded=0;orthogonalLoop=1;jettySize=auto;html=1;entryX=1;entryY=0.5;entryDx=0;entryDy=0;" parent="1" source="jNzlEzwgy13GT3eduAT7-8" target="Yk7LDbt8gfweT-zW2T4R-1" edge="1">
          <mxGeometry relative="1" as="geometry">
            <Array as="points">
              <mxPoint x="668" y="782" />
            </Array>
          </mxGeometry>
        </mxCell>
        <mxCell id="jNzlEzwgy13GT3eduAT7-8" value="&lt;font color=&quot;#33ffff&quot;&gt;Catalog App&lt;/font&gt;" style="text;html=1;strokeColor=none;fillColor=none;align=center;verticalAlign=middle;whiteSpace=wrap;rounded=0;" parent="1" vertex="1">
          <mxGeometry x="627.5" y="530" width="80" height="30" as="geometry" />
        </mxCell>
        <mxCell id="Yk7LDbt8gfweT-zW2T4R-11" style="edgeStyle=orthogonalEdgeStyle;rounded=0;orthogonalLoop=1;jettySize=auto;html=1;entryX=0;entryY=0.623;entryDx=0;entryDy=0;entryPerimeter=0;strokeColor=#FF66FF;" parent="1" source="CiojnqRroy4dIicwmazC-46" target="Yk7LDbt8gfweT-zW2T4R-1" edge="1">
          <mxGeometry relative="1" as="geometry">
            <Array as="points">
              <mxPoint x="285" y="418" />
              <mxPoint x="285" y="791" />
            </Array>
          </mxGeometry>
        </mxCell>
        <mxCell id="CiojnqRroy4dIicwmazC-46" value="" style="shape=image;verticalLabelPosition=bottom;labelBackgroundColor=default;verticalAlign=top;aspect=fixed;imageAspect=0;image=data:image/svg+xml,PHN2ZyB4bWxucz0iaHR0cDovL3d3dy53My5vcmcvMjAwMC9zdmciIHZpZXdCb3g9IjAgMCAxOCAxOCIgaGVpZ2h0PSIxOCIgd2lkdGg9IjE4IiBpZD0iYjcwYWNmMGEtMzRiNC00YmRmLTkwMjQtNzQ5NjA0M2ZmOTE1Ij48ZGVmcz48cmFkaWFsR3JhZGllbnQgZ3JhZGllbnRVbml0cz0idXNlclNwYWNlT25Vc2UiIGdyYWRpZW50VHJhbnNmb3JtPSJ0cmFuc2xhdGUoLTIwMDUuMzMgLTUxOC44Mykgc2NhbGUoMC4xNSkiIHI9IjU2LjY3IiBjeT0iMzUxOC44NiIgY3g9IjEzNDI4LjgxIiBpZD0iZTJjZjg3NDYtYzlhOC00ZWVlLTg2YzItNDk1MTk4M2M2MDMyIj48c3RvcCBzdG9wLWNvbG9yPSIjNWVhMGVmIiBvZmZzZXQ9IjAuMTgiLz48c3RvcCBzdG9wLWNvbG9yPSIjMDA3OGQ0IiBvZmZzZXQ9IjEiLz48L3JhZGlhbEdyYWRpZW50PjxsaW5lYXJHcmFkaWVudCBncmFkaWVudFVuaXRzPSJ1c2VyU3BhY2VPblVzZSIgeTI9IjcuNTMiIHgyPSI0LjM3IiB5MT0iMTEuNDgiIHgxPSI0LjQiIGlkPSJiZGQyMTNkZC1kMzEzLTQ3M2MtOGZmNC0wMTMzZmQzYTkwMzMiPjxzdG9wIHN0b3AtY29sb3I9IiNjY2MiIG9mZnNldD0iMCIvPjxzdG9wIHN0b3AtY29sb3I9IiNmY2ZjZmMiIG9mZnNldD0iMSIvPjwvbGluZWFyR3JhZGllbnQ+PGxpbmVhckdyYWRpZW50IGdyYWRpZW50VW5pdHM9InVzZXJTcGFjZU9uVXNlIiB5Mj0iMTEuOSIgeDI9IjEwLjEzIiB5MT0iMTUuNDUiIHgxPSIxMC4xMyIgaWQ9ImFmY2M2M2M1LTM2NDktNDQ3Ni1hNzQyLWJjYjUzYTU2OWYzYyI+PHN0b3Agc3RvcC1jb2xvcj0iI2NjYyIgb2Zmc2V0PSIwIi8+PHN0b3Agc3RvcC1jb2xvcj0iI2ZjZmNmYyIgb2Zmc2V0PSIxIi8+PC9saW5lYXJHcmFkaWVudD48bGluZWFyR3JhZGllbnQgZ3JhZGllbnRVbml0cz0idXNlclNwYWNlT25Vc2UiIHkyPSI3LjM4IiB4Mj0iMTQuMTgiIHkxPSIxMS4xNSIgeDE9IjE0LjE4IiBpZD0iYmQ4NzNmMGItOTk1NC00YWE1LWEzZGYtOWY0YzY0ZTg3MjlkIj48c3RvcCBzdG9wLWNvbG9yPSIjY2NjIiBvZmZzZXQ9IjAiLz48c3RvcCBzdG9wLWNvbG9yPSIjZmNmY2ZjIiBvZmZzZXQ9IjEiLz48L2xpbmVhckdyYWRpZW50PjwvZGVmcz48dGl0bGU+SWNvbi13ZWItNDE8L3RpdGxlPjxwYXRoIGZpbGw9InVybCgjZTJjZjg3NDYtYzlhOC00ZWVlLTg2YzItNDk1MTk4M2M2MDMyKSIgZD0iTTE0LjIxLDE1LjcyQTguNSw4LjUsMCwwLDEsMy43OSwyLjI4bC4wOS0uMDZhOC41LDguNSwwLDAsMSwxMC4zMywxMy41IiBpZD0iZWU3NWRkMDYtMWFjYS00Zjc2LTlkMTEtZDA1YTI4NDAyMGFkIi8+PHBhdGggb3BhY2l0eT0iMC42IiBmaWxsPSIjZmZmIiBkPSJNNi42OSw3LjIzQTEzLDEzLDAsMCwxLDE1LjYsMy42NWE4LjQ3LDguNDcsMCwwLDAtMS40OS0xLjQ0LDE0LjM0LDE0LjM0LDAsMCwwLTQuNjksMS4xQTEyLjU0LDEyLjU0LDAsMCwwLDUuMzQsNi4xMywyLjc2LDIuNzYsMCwwLDEsNi42OSw3LjIzWiIvPjxwYXRoIG9wYWNpdHk9IjAuNiIgZmlsbD0iI2ZmZiIgZD0iTTIuNDgsMTAuNjVhMTcuODYsMTcuODYsMCwwLDAtLjgzLDIuNjIsNy44Miw3LjgyLDAsMCwwLC42Mi45MmMuMTguMjMuMzUuNDQuNTUuNjVBMTcuOTQsMTcuOTQsMCwwLDEsMy45LDExLjM3LDIuNzYsMi43NiwwLDAsMSwyLjQ4LDEwLjY1WiIvPjxwYXRoIG9wYWNpdHk9IjAuNTUiIGZpbGw9IiNmMmYyZjIiIGQ9Ik0zLjQ2LDYuMTFhMTIsMTIsMCwwLDEtLjY5LTIuOTQsOC4xNSw4LjE1LDAsMCwwLTEuMSwxLjQ1QTEyLjY5LDEyLjY5LDAsMCwwLDIuMjQsNywyLjY5LDIuNjksMCwwLDEsMy40Niw2LjExWiIvPjxjaXJjbGUgZmlsbD0idXJsKCNiZGQyMTNkZC1kMzEzLTQ3M2MtOGZmNC0wMTMzZmQzYTkwMzMpIiByPSIyLjczIiBjeT0iOC42OCIgY3g9IjQuMzgiLz48cGF0aCBvcGFjaXR5PSIwLjU1IiBmaWxsPSIjZjJmMmYyIiBkPSJNOC4zNiwxMy42N0ExLjc3LDEuNzcsMCwwLDEsOC45LDEyLjRhMTEuODgsMTEuODgsMCwwLDEtMi41My0xLjg2LDIuNzQsMi43NCwwLDAsMS0xLjQ5LjgzLDEzLjEsMTMuMSwwLDAsMCwxLjQ1LDEuMjhBMTIuMTIsMTIuMTIsMCwwLDAsOC4zOCwxMy45LDEuNzksMS43OSwwLDAsMSw4LjM2LDEzLjY3WiIvPjxwYXRoIG9wYWNpdHk9IjAuNTUiIGZpbGw9IiNmMmYyZjIiIGQ9Ik0xNC42NiwxMy44OGExMiwxMiwwLDAsMS0yLjc2LS4zMi40MS40MSwwLDAsMSwwLC4xMSwxLjc1LDEuNzUsMCwwLDEtLjUxLDEuMjQsMTMuNjksMTMuNjksMCwwLDAsMy40Mi4yNEE4LjIxLDguMjEsMCwwLDAsMTYsMTMuODEsMTEuNSwxMS41LDAsMCwxLDE0LjY2LDEzLjg4WiIvPjxjaXJjbGUgZmlsbD0idXJsKCNhZmNjNjNjNS0zNjQ5LTQ0NzYtYTc0Mi1iY2I1M2E1NjlmM2MpIiByPSIxLjc4IiBjeT0iMTMuNjciIGN4PSIxMC4xMyIvPjxwYXRoIG9wYWNpdHk9IjAuNyIgZmlsbD0iI2YyZjJmMiIgZD0iTTEyLjMyLDguOTNhMS44MywxLjgzLDAsMCwxLC42MS0xQTI1LjUsMjUuNSwwLDAsMSw4LjQ3LDMuNzlhMTYuOTEsMTYuOTEsMCwwLDEtMi0yLjkyLDcuNjQsNy42NCwwLDAsMC0xLjA5LjQyQTE4LjE0LDE4LjE0LDAsMCwwLDcuNTMsNC40NywyNi40NCwyNi40NCwwLDAsMCwxMi4zMiw4LjkzWiIvPjxjaXJjbGUgZmlsbD0idXJsKCNiZDg3M2YwYi05OTU0LTRhYTUtYTNkZi05ZjRjNjRlODcyOWQpIiByPSIxLjg5IiBjeT0iOS4yNyIgY3g9IjE0LjE4Ii8+PHBhdGggb3BhY2l0eT0iMC41NSIgZmlsbD0iI2YyZjJmMiIgZD0iTTE3LjM1LDEwLjU0LDE3LDEwLjM3bDAsMC0uMy0uMTYtLjA2LDBMMTYuMzgsMTBsLS4wNywwTDE2LDkuOGExLjc2LDEuNzYsMCwwLDEtLjY0LjkyYy4xMi4wOC4yNS4xNS4zOC4yMmwuMDguMDUuMzUuMTksMCwwLC44Ni40NWgwYTguNjMsOC42MywwLDAsMCwuMjktMS4xMVoiLz48Y2lyY2xlIGZpbGw9InVybCgjYmRkMjEzZGQtZDMxMy00NzNjLThmZjQtMDEzM2ZkM2E5MDMzKSIgcj0iMi43MyIgY3k9IjguNjgiIGN4PSI0LjM4Ii8+PGNpcmNsZSBmaWxsPSJ1cmwoI2FmY2M2M2M1LTM2NDktNDQ3Ni1hNzQyLWJjYjUzYTU2OWYzYykiIHI9IjEuNzgiIGN5PSIxMy42NyIgY3g9IjEwLjEzIi8+PC9zdmc+;" parent="1" vertex="1">
          <mxGeometry x="175" y="392.5" width="50" height="50" as="geometry" />
        </mxCell>
        <mxCell id="CiojnqRroy4dIicwmazC-47" value="App Service" style="text;html=1;strokeColor=none;fillColor=none;align=center;verticalAlign=middle;whiteSpace=wrap;rounded=0;" parent="1" vertex="1">
          <mxGeometry x="175" y="442.5" width="75" height="30" as="geometry" />
        </mxCell>
        <mxCell id="CiojnqRroy4dIicwmazC-48" value="&lt;font color=&quot;#33ffff&quot;&gt;Inventory App&lt;/font&gt;" style="text;html=1;strokeColor=none;fillColor=none;align=center;verticalAlign=middle;whiteSpace=wrap;rounded=0;" parent="1" vertex="1">
          <mxGeometry x="175" y="452.5" width="80" height="30" as="geometry" />
        </mxCell>
        <mxCell id="CiojnqRroy4dIicwmazC-49" value="" style="shape=image;verticalLabelPosition=bottom;labelBackgroundColor=default;verticalAlign=top;aspect=fixed;imageAspect=0;image=data:image/svg+xml,PHN2ZyB4bWxucz0iaHR0cDovL3d3dy53My5vcmcvMjAwMC9zdmciIHZpZXdCb3g9IjAgMCAxOCAxOCIgaGVpZ2h0PSIxOCIgd2lkdGg9IjE4IiBpZD0iYTJjODgzMDYtZmEwMy00ZTViLWIxOTItNDAxZjBiNzc4MDhiIj48ZGVmcz48bGluZWFyR3JhZGllbnQgZ3JhZGllbnRVbml0cz0idXNlclNwYWNlT25Vc2UiIGdyYWRpZW50VHJhbnNmb3JtPSJ0cmFuc2xhdGUoMjEyLjU3MyAzNzAuNTQ4KSBzY2FsZSgxLjE1NiAxLjAyOSkiIHkyPSItMzU5LjIzMiIgeDI9Ii0xNzUuOTkzIiB5MT0iLTM0My43MjMiIHgxPSItMTc1Ljk5MyIgaWQ9ImI0MDNhY2E3LWYzODctNDQzNC05NmI0LWFlMTU3ZWRjODM1ZiI+PHN0b3Agc3RvcC1jb2xvcj0iI2ZlYTExYiIgb2Zmc2V0PSIwIi8+PHN0b3Agc3RvcC1jb2xvcj0iI2ZlYTUxYSIgb2Zmc2V0PSIwLjI4NCIvPjxzdG9wIHN0b3AtY29sb3I9IiNmZWIwMTgiIG9mZnNldD0iMC41NDciLz48c3RvcCBzdG9wLWNvbG9yPSIjZmZjMzE0IiBvZmZzZXQ9IjAuOCIvPjxzdG9wIHN0b3AtY29sb3I9IiNmZmQ3MGYiIG9mZnNldD0iMSIvPjwvbGluZWFyR3JhZGllbnQ+PC9kZWZzPjx0aXRsZT5JY29uLWNvbXB1dGUtMjk8L3RpdGxlPjxnPjxwYXRoIGZpbGw9IiM1MGU2ZmYiIHRyYW5zZm9ybT0idHJhbnNsYXRlKDEyLjUwNyAxNi43MDUpIHJvdGF0ZSgxMzQuOTE5KSIgZD0iTTIuMzcsNy40NzVIMy4yYS4yNjcuMjY3LDAsMCwxLC4yNjcuMjY3djYuMTQ4YS41MzMuNTMzLDAsMCwxLS41MzMuNTMzSDIuMWEwLDAsMCwwLDEsMCwwVjcuNzQxYS4yNjcuMjY3LDAsMCwxLC4yNjctLjI2N1oiLz48cGF0aCBmaWxsPSIjMTQ5MGRmIiB0cmFuc2Zvcm09InRyYW5zbGF0ZSg1Ljc1OSAwLjExNCkgcm90YXRlKDQ0LjkxOSkiIGQ9Ik0yLjMyNSwzLjZoLjgzM2EuMjY3LjI2NywwLDAsMSwuMjY3LjI2N3Y2LjU4M2EwLDAsMCwwLDEsMCwwSDIuNTkxYS41MzMuNTMzLDAsMCwxLS41MzMtLjUzM1YzLjg2NUEuMjY3LjI2NywwLDAsMSwyLjMyNSwzLjZaIi8+PC9nPjxnPjxwYXRoIGZpbGw9IiM1MGU2ZmYiIHRyYW5zZm9ybT0idHJhbnNsYXRlKDEyLjIyMyAtNy41NTUpIHJvdGF0ZSg0NS4wODEpIiBkPSJNMTQuNTMsNy40NzVoLjgzM2EuNTMzLjUzMywwLDAsMSwuNTMzLjUzM3Y2LjE0OGEuMjY3LjI2NywwLDAsMS0uMjY3LjI2N0gxNC44YS4yNjcuMjY3LDAsMCwxLS4yNjctLjI2N1Y3LjQ3NWEwLDAsMCwwLDEsMCwwWiIvPjxwYXRoIGZpbGw9IiMxNDkwZGYiIHRyYW5zZm9ybT0idHJhbnNsYXRlKDMxLjAyMiAxLjIyMikgcm90YXRlKDEzNS4wODEpIiBkPSJNMTUuMTA4LDMuNmguODMzYTAsMCwwLDAsMSwwLDB2Ni41ODNhLjI2Ny4yNjcsMCwwLDEtLjI2Ny4yNjdoLS44MzNhLjI2Ny4yNjcsMCwwLDEtLjI2Ny0uMjY3VjQuMTMxYS41MzMuNTMzLDAsMCwxLC41MzMtLjUzM1oiLz48L2c+PHBhdGggZmlsbD0idXJsKCNiNDAzYWNhNy1mMzg3LTQ0MzQtOTZiNC1hZTE1N2VkYzgzNWYpIiBkPSJNOC40NTksOS45SDQuODdhLjE5My4xOTMsMCwwLDEtLjItLjE4MS4xNjYuMTY2LDAsMCwxLC4wMTgtLjA3NUw4Ljk5MSwxLjEzYS4yMDYuMjA2LDAsMCwxLC4xODYtLjEwNmg0LjI0NWEuMTkzLjE5MywwLDAsMSwuMi4xODEuMTY1LjE2NSwwLDAsMS0uMDM1LjFMOC41MzQsNy45NjZoNC45MjhhLjE5My4xOTMsMCwwLDEsLjIuMTgxLjE3Ni4xNzYsMCwwLDEtLjA1Mi4xMjJMNS40MjEsMTYuNzg4Yy0uMDc3LjA0Ni0uNjI0LjUtLjM1Ni0uMTg5aDBaIi8+PC9zdmc+;" parent="1" vertex="1">
          <mxGeometry x="-367.5" y="389" width="50" height="50" as="geometry" />
        </mxCell>
        <mxCell id="Yk7LDbt8gfweT-zW2T4R-5" style="edgeStyle=orthogonalEdgeStyle;rounded=0;orthogonalLoop=1;jettySize=auto;html=1;" parent="1" source="CiojnqRroy4dIicwmazC-50" target="Yk7LDbt8gfweT-zW2T4R-3" edge="1">
          <mxGeometry relative="1" as="geometry" />
        </mxCell>
        <mxCell id="CiojnqRroy4dIicwmazC-50" value="Function App" style="text;html=1;strokeColor=none;fillColor=none;align=center;verticalAlign=middle;whiteSpace=wrap;rounded=0;" parent="1" vertex="1">
          <mxGeometry x="-380" y="431.5" width="75" height="27.5" as="geometry" />
        </mxCell>
        <mxCell id="CiojnqRroy4dIicwmazC-51" value="&lt;font color=&quot;#33ffff&quot;&gt;Order processing&lt;/font&gt;" style="text;html=1;strokeColor=none;fillColor=none;align=center;verticalAlign=middle;whiteSpace=wrap;rounded=0;" parent="1" vertex="1">
          <mxGeometry x="-390" y="449" width="95" height="20" as="geometry" />
        </mxCell>
        <mxCell id="CiojnqRroy4dIicwmazC-52" value="" style="shape=image;verticalLabelPosition=bottom;labelBackgroundColor=default;verticalAlign=top;aspect=fixed;imageAspect=0;image=data:image/svg+xml,PHN2ZyB4bWxucz0iaHR0cDovL3d3dy53My5vcmcvMjAwMC9zdmciIHZpZXdCb3g9IjAgMCAxOCAxOCIgaGVpZ2h0PSIxOCIgd2lkdGg9IjE4IiBpZD0iYjc1OTQzYmEtMWEzZi00ODVkLWI0NWQtM2ZlZTAwZWQ3ZTVlIj48ZGVmcz48bGluZWFyR3JhZGllbnQgZ3JhZGllbnRVbml0cz0idXNlclNwYWNlT25Vc2UiIHkyPSIxNy4yNSIgeDI9IjkuMDEiIHkxPSIwLjc1IiB4MT0iOS4wMSIgaWQ9ImZlNWNlNDNmLTI4MjMtNDYxNy1iYjU0LTU3ZGY5ZTc3ODM3MiI+PHN0b3Agc3RvcC1jb2xvcj0iIzVlYTBlZiIgb2Zmc2V0PSIwIi8+PHN0b3Agc3RvcC1jb2xvcj0iIzU1OWNlYyIgb2Zmc2V0PSIwLjE4Ii8+PHN0b3Agc3RvcC1jb2xvcj0iIzNjOTFlNSIgb2Zmc2V0PSIwLjQ3Ii8+PHN0b3Agc3RvcC1jb2xvcj0iIzEzODBkYSIgb2Zmc2V0PSIwLjg0Ii8+PHN0b3Agc3RvcC1jb2xvcj0iIzAwNzhkNCIgb2Zmc2V0PSIxIi8+PC9saW5lYXJHcmFkaWVudD48L2RlZnM+PHRpdGxlPkljb24tbmV0d29ya2luZy02NzwvdGl0bGU+PHBhdGggZmlsbD0iIzAwNzhkNCIgZD0iTTE2LjM2LDguNGMwLDQuODQtNS44NSw4Ljc0LTcuMTIsOS41M2EuNDYuNDYsMCwwLDEtLjQ4LDBjLTEuMjctLjc5LTcuMTItNC42OS03LjEyLTkuNTNWMi41OGEuNDYuNDYsMCwwLDEsLjQ1LS40NkM2LjY0LDIsNS41OSwwLDksMHMyLjM2LDIsNi45MSwyLjEyYS40Ni40NiwwLDAsMSwuNDUuNDZaIi8+PHBhdGggZmlsbD0iIzZiYjlmMiIgZD0iTTE1Ljc1LDguNDVjMCw0LjQ0LTUuMzYsOC02LjUzLDguNzRhLjQzLjQzLDAsMCwxLS40NCwwYy0xLjE3LS43Mi02LjUzLTQuMy02LjUzLTguNzRWMy4xMWEuNDIuNDIsMCwwLDEsLjQxLS40MkM2LjgzLDIuNTgsNS44Ny43NSw5LC43NXMyLjE3LDEuODMsNi4zNCwxLjk0YS40Mi40MiwwLDAsMSwuNDEuNDJaIi8+PHBhdGggZmlsbD0idXJsKCNmZTVjZTQzZi0yODIzLTQ2MTctYmI1NC01N2RmOWU3NzgzNzIpIiBkPSJNOSw5Vi43NWMzLjEzLDAsMi4xNywxLjgzLDYuMzQsMS45NGEuNDMuNDMsMCwwLDEsLjQxLjQzVjguNDZhNC44OSw0Ljg5LDAsMCwxLDAsLjU0Wk05LDlIMi4yOGMuNCw0LjE4LDUuMzgsNy41LDYuNSw4LjE5YS4zOS4zOSwwLDAsMCwuMTguMDZIOVoiLz48cGF0aCBmaWxsPSIjNTBlNmZmIiBkPSJNMi42NiwyLjY5QzYuODMsMi41OCw1Ljg3Ljc1LDksLjc1VjlIMi4yOGE0Ljg5LDQuODksMCwwLDEsMC0uNTRWMy4xMkEuNDMuNDMsMCwwLDEsMi42NiwyLjY5WiIvPjxwYXRoIGZpbGw9IiM1MGU2ZmYiIGQ9Ik0xNS43Miw5SDl2OC4yNUg5YS4zOS4zOSwwLDAsMCwuMTgtLjA2QzEwLjM0LDE2LjUsMTUuMzIsMTMuMTgsMTUuNzIsOVoiLz48L3N2Zz4=;" parent="1" vertex="1">
          <mxGeometry x="419.5" y="490" width="30" height="30" as="geometry" />
        </mxCell>
        <mxCell id="CiojnqRroy4dIicwmazC-54" value="Peering" style="text;html=1;strokeColor=#A50040;fillColor=#d80073;align=center;verticalAlign=middle;whiteSpace=wrap;rounded=1;fontColor=#ffffff;" parent="1" vertex="1">
          <mxGeometry x="449.5" y="515" width="54.5" height="20" as="geometry" />
        </mxCell>
        <mxCell id="CiojnqRroy4dIicwmazC-55" value="Open ports&lt;br&gt;8080,&lt;br&gt;RDP,&lt;br&gt;SSH" style="text;html=1;strokeColor=none;fillColor=none;align=center;verticalAlign=middle;whiteSpace=wrap;rounded=0;" parent="1" vertex="1">
          <mxGeometry x="595" y="330" width="70" height="10" as="geometry" />
        </mxCell>
        <mxCell id="CiojnqRroy4dIicwmazC-57" value="" style="endArrow=classic;html=1;rounded=0;strokeColor=#FF0000;" parent="1" target="jNzlEzwgy13GT3eduAT7-3" edge="1">
          <mxGeometry width="50" height="50" relative="1" as="geometry">
            <mxPoint x="376.7" y="384" as="sourcePoint" />
            <mxPoint x="376.7" y="434" as="targetPoint" />
          </mxGeometry>
        </mxCell>
        <mxCell id="CiojnqRroy4dIicwmazC-58" value="&lt;font color=&quot;#ff0000&quot;&gt;Attack Surface&lt;/font&gt;" style="text;html=1;strokeColor=none;fillColor=none;align=center;verticalAlign=middle;whiteSpace=wrap;rounded=0;" parent="1" vertex="1">
          <mxGeometry x="465" y="240" width="90" height="30" as="geometry" />
        </mxCell>
        <mxCell id="CiojnqRroy4dIicwmazC-59" value="" style="endArrow=classic;html=1;rounded=0;entryX=0.5;entryY=0;entryDx=0;entryDy=0;strokeColor=#FF0000;" parent="1" edge="1">
          <mxGeometry width="50" height="50" relative="1" as="geometry">
            <mxPoint x="667.2" y="290" as="sourcePoint" />
            <mxPoint x="667.2" y="340" as="targetPoint" />
          </mxGeometry>
        </mxCell>
        <mxCell id="CiojnqRroy4dIicwmazC-60" value="" style="endArrow=classic;html=1;rounded=0;strokeColor=#FF0000;" parent="1" edge="1">
          <mxGeometry width="50" height="50" relative="1" as="geometry">
            <mxPoint x="667.2" y="390" as="sourcePoint" />
            <mxPoint x="667.5" y="471" as="targetPoint" />
          </mxGeometry>
        </mxCell>
        <mxCell id="CiojnqRroy4dIicwmazC-62" value="&lt;font style=&quot;font-size: 9px;&quot;&gt;The public APIS of the VM are exposed to the interned, and it could be&amp;nbsp; and attack surface for the hackers that can access to the VM to makes data breach or event shutdown the vm&lt;/font&gt;" style="text;html=1;strokeColor=none;fillColor=none;align=center;verticalAlign=middle;whiteSpace=wrap;rounded=0;" parent="1" vertex="1">
          <mxGeometry x="430" y="255" width="165" height="85" as="geometry" />
        </mxCell>
        <mxCell id="0DpliHtyRFmvJdhoWtfq-1" value="&lt;font style=&quot;font-size: 21px;&quot; color=&quot;#33ff99&quot;&gt;Course&lt;/font&gt;" style="text;html=1;strokeColor=none;fillColor=none;align=center;verticalAlign=middle;whiteSpace=wrap;rounded=0;strokeWidth=7;" parent="1" vertex="1">
          <mxGeometry x="2271.5" width="110" height="30" as="geometry" />
        </mxCell>
        <mxCell id="0DpliHtyRFmvJdhoWtfq-2" value="CLOUD ARCHITECTURE" style="text;html=1;strokeColor=#2D7600;fillColor=#60a917;align=center;verticalAlign=middle;whiteSpace=wrap;rounded=0;fontColor=#ffffff;" parent="1" vertex="1">
          <mxGeometry x="2239.5" y="30" width="180" height="30" as="geometry" />
        </mxCell>
        <mxCell id="0DpliHtyRFmvJdhoWtfq-3" style="edgeStyle=orthogonalEdgeStyle;rounded=0;orthogonalLoop=1;jettySize=auto;html=1;entryX=0;entryY=0.6;entryDx=0;entryDy=0;entryPerimeter=0;" parent="1" source="0DpliHtyRFmvJdhoWtfq-4" target="0DpliHtyRFmvJdhoWtfq-7" edge="1">
          <mxGeometry relative="1" as="geometry">
            <Array as="points">
              <mxPoint x="2012.5" y="630" />
              <mxPoint x="2012.5" y="785" />
            </Array>
          </mxGeometry>
        </mxCell>
        <mxCell id="zBErQ_lC7ytDDQyFHN0Z-21" style="edgeStyle=orthogonalEdgeStyle;rounded=0;orthogonalLoop=1;jettySize=auto;html=1;exitX=0;exitY=0.75;exitDx=0;exitDy=0;entryX=1;entryY=0.5;entryDx=0;entryDy=0;strokeColor=#3399FF;" parent="1" source="0DpliHtyRFmvJdhoWtfq-4" target="zBErQ_lC7ytDDQyFHN0Z-18" edge="1">
          <mxGeometry relative="1" as="geometry" />
        </mxCell>
        <mxCell id="0DpliHtyRFmvJdhoWtfq-4" value="" style="shape=image;verticalLabelPosition=bottom;labelBackgroundColor=default;verticalAlign=top;aspect=fixed;imageAspect=0;image=data:image/svg+xml,PHN2ZyB4bWxucz0iaHR0cDovL3d3dy53My5vcmcvMjAwMC9zdmciIHZpZXdCb3g9IjAgMCAxOCAxOCIgaGVpZ2h0PSIxOCIgd2lkdGg9IjE4IiBpZD0iYWY2YTJjNDItYmQ0OC00ODU3LWE0NzktYWVjZjhiM2RlNGY2Ij48ZGVmcz48bGluZWFyR3JhZGllbnQgZ3JhZGllbnRVbml0cz0idXNlclNwYWNlT25Vc2UiIHkyPSIzLjc0IiB4Mj0iOC42NyIgeTE9IjMuNzQiIHgxPSIyLjk0IiBpZD0iYjcwYzljZjEtYmFiOC00N2UwLWJiZGItY2UxY2Q2NjRkMjY4Ij48c3RvcCBzdG9wLWNvbG9yPSIjYjc3YWY0IiBvZmZzZXQ9IjAiLz48c3RvcCBzdG9wLWNvbG9yPSIjNzczYWRjIiBvZmZzZXQ9IjEiLz48L2xpbmVhckdyYWRpZW50PjxsaW5lYXJHcmFkaWVudCBncmFkaWVudFVuaXRzPSJ1c2VyU3BhY2VPblVzZSIgeTI9IjMuNzkiIHgyPSIxNC44NSIgeTE9IjMuNzkiIHgxPSI5LjEzIiBpZD0iYmViNjk5NTMtYmQ5Ni00NTE1LTg4NDMtYWMxMjU0NmFmOTM2Ij48c3RvcCBzdG9wLWNvbG9yPSIjYjc3YWY0IiBvZmZzZXQ9IjAiLz48c3RvcCBzdG9wLWNvbG9yPSIjNzczYWRjIiBvZmZzZXQ9IjEiLz48L2xpbmVhckdyYWRpZW50PjxsaW5lYXJHcmFkaWVudCBncmFkaWVudFVuaXRzPSJ1c2VyU3BhY2VPblVzZSIgeTI9IjkuMTIiIHgyPSI1LjczIiB5MT0iOS4xMiIgeDE9IjAuMDEiIGlkPSJhMzljNzZlOC01NDdlLTRlYjQtYmMyNS1kODFjMGY4Y2RhNjIiPjxzdG9wIHN0b3AtY29sb3I9IiNiNzdhZjQiIG9mZnNldD0iMCIvPjxzdG9wIHN0b3AtY29sb3I9IiM3NzNhZGMiIG9mZnNldD0iMSIvPjwvbGluZWFyR3JhZGllbnQ+PGxpbmVhckdyYWRpZW50IGdyYWRpZW50VW5pdHM9InVzZXJTcGFjZU9uVXNlIiB5Mj0iOS4wOCIgeDI9IjExLjkiIHkxPSI5LjA4IiB4MT0iNi4xOCIgaWQ9ImYwYTJhNDkxLTE3ZGMtNGJiOC1iYmZjLWVlNThhNWNmNDdkYSI+PHN0b3Agc3RvcC1jb2xvcj0iI2I3N2FmNCIgb2Zmc2V0PSIwIi8+PHN0b3Agc3RvcC1jb2xvcj0iIzc3M2FkYyIgb2Zmc2V0PSIxIi8+PC9saW5lYXJHcmFkaWVudD48bGluZWFyR3JhZGllbnQgZ3JhZGllbnRVbml0cz0idXNlclNwYWNlT25Vc2UiIHkyPSI5LjEzIiB4Mj0iMTguMDgiIHkxPSI5LjEzIiB4MT0iMTIuMzUiIGlkPSJlZmM2YTU2ZC04NTg1LTQxN2QtOTMxYS0xZGFjMjExNGNjZDAiPjxzdG9wIHN0b3AtY29sb3I9IiNiNzdhZjQiIG9mZnNldD0iMCIvPjxzdG9wIHN0b3AtY29sb3I9IiM3NzNhZGMiIG9mZnNldD0iMSIvPjwvbGluZWFyR3JhZGllbnQ+PGxpbmVhckdyYWRpZW50IGdyYWRpZW50VW5pdHM9InVzZXJTcGFjZU9uVXNlIiB5Mj0iMTQuNTYiIHgyPSI4LjYiIHkxPSIxNC41NiIgeDE9IjIuODciIGlkPSJlMzk5YWE5My0zNDFmLTRkZjItOWMwMi02MDNiODJiNDg0YzIiPjxzdG9wIHN0b3AtY29sb3I9IiNiNzdhZjQiIG9mZnNldD0iMCIvPjxzdG9wIHN0b3AtY29sb3I9IiM3NzNhZGMiIG9mZnNldD0iMSIvPjwvbGluZWFyR3JhZGllbnQ+PGxpbmVhckdyYWRpZW50IGdyYWRpZW50VW5pdHM9InVzZXJTcGFjZU9uVXNlIiB5Mj0iMTQuNiIgeDI9IjE0Ljc4IiB5MT0iMTQuNiIgeDE9IjkuMDUiIGlkPSJhMTUyYmJhMC1iYTJiLTQ4M2EtYjhjMS0wYWU3ZGUzNTU5OTAiPjxzdG9wIHN0b3AtY29sb3I9IiNiNzdhZjQiIG9mZnNldD0iMCIvPjxzdG9wIHN0b3AtY29sb3I9IiM3NzNhZGMiIG9mZnNldD0iMSIvPjwvbGluZWFyR3JhZGllbnQ+PC9kZWZzPjx0aXRsZT5JY29uLWNvbXB1dGUtMjM8L3RpdGxlPjxwb2x5Z29uIGZpbGw9InVybCgjYjcwYzljZjEtYmFiOC00N2UwLWJiZGItY2UxY2Q2NjRkMjY4KSIgcG9pbnRzPSI1LjggMS4yMiAyLjk0IDEuNzUgMi45NCA1LjY1IDUuOCA2LjI2IDguNjcgNS4xMSA4LjY3IDIuMiA1LjggMS4yMiIvPjxwYXRoIGZpbGw9Im5vbmUiIGQ9Ik01LjkxLDYuMiw4LjUzLDUuMTRBLjIuMiwwLDAsMCw4LjY1LDVWMi4zNmEuMjEuMjEsMCwwLDAtLjEzLS4xOGwtMi42NS0uOUg1Ljc1bC0yLjYuNDhBLjIuMiwwLDAsMCwzLDEuOTRWNS40N2EuMTkuMTksMCwwLDAsLjE1LjE5bDIuNjMuNTVBLjMyLjMyLDAsMCwwLDUuOTEsNi4yWiIvPjxwYXRoIGZpbGw9IiMzNDFhNmUiIGQ9Ik0yLjk0LDEuNzV2My45bDIuODkuNjF2LTVabTEuMjIsMy42LS44MS0uMTZ2LTNsLjgxLS4xM1ptMS4yNi4yMy0uOTMtLjE1VjJsLjkzLS4xNloiLz48cG9seWdvbiBmaWxsPSJ1cmwoI2JlYjY5OTUzLWJkOTYtNDUxNS04ODQzLWFjMTI1NDZhZjkzNikiIHBvaW50cz0iMTEuOTkgMS4yNyA5LjEzIDEuOCA5LjEzIDUuNyAxMS45OSA2LjMxIDE0Ljg1IDUuMTUgMTQuODUgMi4yNSAxMS45OSAxLjI3Ii8+PHBhdGggZmlsbD0iIzM0MWE2ZSIgZD0iTTkuMTMsMS44VjUuN0wxMiw2LjMxdi01Wm0xLjIxLDMuNi0uODEtLjE2di0zbC44MS0uMTNabTEuMjYuMjMtLjkzLS4xNVYyLjA1bC45My0uMTdaIi8+PHBvbHlnb24gZmlsbD0idXJsKCNhMzljNzZlOC01NDdlLTRlYjQtYmMyNS1kODFjMGY4Y2RhNjIpIiBwb2ludHM9IjIuODcgNi42IDAuMDEgNy4xMyAwLjAxIDExLjAzIDIuODcgMTEuNjQgNS43NCAxMC40OSA1Ljc0IDcuNTggMi44NyA2LjYiLz48cGF0aCBmaWxsPSIjMzQxYTZlIiBkPSJNMCw3LjEzVjExbDIuODkuNjF2LTVabTEuMjEsMy42MS0uODEtLjE3di0zbC44MS0uMTRaTTIuNDgsMTFsLS45My0uMTVWNy4zOGwuOTMtLjE2WiIvPjxwb2x5Z29uIGZpbGw9InVybCgjZjBhMmE0OTEtMTdkYy00YmI4LWJiZmMtZWU1OGE1Y2Y0N2RhKSIgcG9pbnRzPSI5LjA0IDYuNTYgNi4xOCA3LjA5IDYuMTggMTAuOTkgOS4wNCAxMS42MSAxMS45IDEwLjQ1IDExLjkgNy41NCA5LjA0IDYuNTYiLz48cGF0aCBmaWxsPSIjMzQxYTZlIiBkPSJNNi4xOCw3LjA5VjExbDIuODguNjF2LTVaTTcuMzksMTAuN2wtLjgxLS4xN3YtM2wuODEtLjE0Wm0xLjI2LjIyLS45My0uMTVWNy4zNGwuOTMtLjE2WiIvPjxwb2x5Z29uIGZpbGw9InVybCgjZWZjNmE1NmQtODU4NS00MTdkLTkzMWEtMWRhYzIxMTRjY2QwKSIgcG9pbnRzPSIxNS4yMSA2LjYxIDEyLjM1IDcuMTQgMTIuMzUgMTEuMDQgMTUuMjEgMTEuNjUgMTguMDggMTAuNSAxOC4wOCA3LjU5IDE1LjIxIDYuNjEiLz48cGF0aCBmaWxsPSIjMzQxYTZlIiBkPSJNMTIuMzUsNy4xNFYxMWwyLjg5LjYxdi01Wm0xLjIyLDMuNjEtLjgxLS4xN3YtM2wuODEtLjE0Wm0xLjI2LjIyLS45My0uMTVWNy4zOWwuOTMtLjE2WiIvPjxwb2x5Z29uIGZpbGw9InVybCgjZTM5OWFhOTMtMzQxZi00ZGYyLTljMDItNjAzYjgyYjQ4NGMyKSIgcG9pbnRzPSI1LjczIDEyLjA0IDIuODcgMTIuNTYgMi44NyAxNi40NiA1LjczIDE3LjA4IDguNiAxNS45MiA4LjYgMTMuMDIgNS43MyAxMi4wNCIvPjxwYXRoIGZpbGw9Im5vbmUiIGQ9Ik01Ljg0LDE3LDguNDUsMTZhLjE4LjE4LDAsMCwwLC4xMi0uMTh2LTIuNkEuMi4yLDAsMCwwLDguNDQsMTNMNS44LDEyLjFhLjE3LjE3LDAsMCwwLS4xMiwwbC0yLjYuNDdhLjE5LjE5LDAsMCwwLS4xNi4xOXYzLjU0YS4xOS4xOSwwLDAsMCwuMTUuMTlMNS43LDE3QS4yMy4yMywwLDAsMCw1Ljg0LDE3WiIvPjxwYXRoIGZpbGw9IiMzNDFhNmUiIGQ9Ik0yLjg3LDEyLjU2djMuOWwyLjg5LjYyVjEyWm0xLjIyLDMuNjFMMy4yOCwxNlYxM2wuODEtLjE0Wm0xLjI2LjIzLS45My0uMTVWMTIuODFsLjkzLS4xNloiLz48cG9seWdvbiBmaWxsPSJ1cmwoI2ExNTJiYmEwLWJhMmItNDgzYS1iOGMxLTBhZTdkZTM1NTk5MCkiIHBvaW50cz0iMTEuOTEgMTIuMDggOS4wNSAxMi42MSA5LjA1IDE2LjUxIDExLjkxIDE3LjEyIDE0Ljc4IDE1Ljk3IDE0Ljc4IDEzLjA2IDExLjkxIDEyLjA4Ii8+PHBhdGggZmlsbD0iIzM0MWE2ZSIgZD0iTTkuMDUsMTIuNjF2My45bDIuODkuNjF2LTVabTEuMjIsMy42MS0uODEtLjE3di0zbC44MS0uMTRabTEuMjYuMjItLjkzLS4xNVYxMi44NmwuOTMtLjE2WiIvPjwvc3ZnPg==;" parent="1" vertex="1">
          <mxGeometry x="2052.5" y="605" width="50" height="50" as="geometry" />
        </mxCell>
        <mxCell id="0DpliHtyRFmvJdhoWtfq-5" value="AKS" style="text;html=1;strokeColor=none;fillColor=none;align=center;verticalAlign=middle;whiteSpace=wrap;rounded=0;" parent="1" vertex="1">
          <mxGeometry x="2040" y="655" width="75" height="30" as="geometry" />
        </mxCell>
        <mxCell id="0DpliHtyRFmvJdhoWtfq-6" value="&lt;font color=&quot;#33ffff&quot;&gt;Cart App&lt;/font&gt;" style="text;html=1;strokeColor=none;fillColor=none;align=center;verticalAlign=middle;whiteSpace=wrap;rounded=0;" parent="1" vertex="1">
          <mxGeometry x="2037.5" y="665" width="80" height="25" as="geometry" />
        </mxCell>
        <mxCell id="0DpliHtyRFmvJdhoWtfq-7" value="" style="shape=image;verticalLabelPosition=bottom;labelBackgroundColor=default;verticalAlign=top;aspect=fixed;imageAspect=0;image=data:image/svg+xml,PHN2ZyB4bWxucz0iaHR0cDovL3d3dy53My5vcmcvMjAwMC9zdmciIHZpZXdCb3g9IjAgMCAxOCAxOCIgaGVpZ2h0PSIxOCIgd2lkdGg9IjE4IiBpZD0iZTlmN2JhNzMtNTZiOC00ODY0LTk2ZmYtZGNlODBiZWY3MjlhIj48ZGVmcz48bGluZWFyR3JhZGllbnQgZ3JhZGllbnRVbml0cz0idXNlclNwYWNlT25Vc2UiIHkyPSIxNi43MzkiIHgyPSI4LjYzNyIgeTE9Ii0xLjk5MSIgeDE9IjguNjM3IiBpZD0iYmRmMjdkYzYtMDI1Yy00ODA1LThiZmQtM2EwNWRlZmQzZmJkIj48c3RvcCBzdG9wLWNvbG9yPSIjNWVhMGVmIiBvZmZzZXQ9IjAiLz48c3RvcCBzdG9wLWNvbG9yPSIjMDA3OGQ0IiBvZmZzZXQ9IjEiLz48L2xpbmVhckdyYWRpZW50PjxsaW5lYXJHcmFkaWVudCBncmFkaWVudFVuaXRzPSJ1c2VyU3BhY2VPblVzZSIgZ3JhZGllbnRUcmFuc2Zvcm09Im1hdHJpeCgxLCAwLCAwLCAtMSwgMCwgMjApIiB5Mj0iNi4xNDEiIHgyPSIxMi45NiIgeTE9IjguNTYxIiB4MT0iMTIuOTYiIGlkPSJmY2Q2YzZjNy1lMmViLTRhMzItYjkxNC0zYTg0ODU1ODVhMWIiPjxzdG9wIHN0b3AtY29sb3I9IiMzMzMxMzIiIG9mZnNldD0iMCIvPjxzdG9wIHN0b3AtY29sb3I9IiM1YjVhNWMiIG9mZnNldD0iMSIvPjwvbGluZWFyR3JhZGllbnQ+PC9kZWZzPjxwYXRoIGZpbGw9InVybCgjYmRmMjdkYzYtMDI1Yy00ODA1LThiZmQtM2EwNWRlZmQzZmJkKSIgZD0iTTcuNDMsOC4xNzhsMi41ODktMS41NzMsNy4yNTUsMi43MzFBMy42NjQsMy42NjQsMCwwLDAsMTYuMjMsNy40OWwtLjAxLS4wNUE0LjE5NCw0LjE5NCwwLDAsMCwxNCw2LjMyYTQuOTEsNC45MSwwLDAsMC01LjEtNC43QTUuMDcxLDUuMDcxLDAsMCwwLDQuMDYsNC45MSw0LjYyMSw0LjYyMSwwLDAsMCwwLDkuMzlhNC43Myw0LjczLDAsMCwwLDQuODksNC41NEg3LjQzWiIvPjxwb2x5Z29uIGZpbGw9IiM3Njc2NzYiIHBvaW50cz0iMTAuMDcgNy4xNTkgMTAuMDggMTEuNDM5IDE3Ljk5IDEzLjExOSAxNy45OSAxMC4xMzkgMTAuMDcgNy4xNTkiLz48cG9seWxpbmUgZmlsbD0iIzk5OSIgcG9pbnRzPSIxMC4wNyA3LjE1OSA3LjkzIDguNDU5IDcuOTMgMTIuNDM5IDEwLjA4IDExLjQzOSIvPjxwb2x5Z29uIGZpbGw9IiNhM2EzYTMiIHBvaW50cz0iMTMuNjggMTEuNDk5IDE0LjQgMTEuNjk5IDE0LjQgOS4zNjkgMTMuNjggOS4xMTkgMTMuNjggMTEuNDk5Ii8+PHBvbHlnb24gZmlsbD0iI2EzYTNhMyIgcG9pbnRzPSIxMi45NiA4Ljg4OSAxMi4yNCA4LjYyOSAxMi4yNCAxMS4xMTkgMTIuOTYgMTEuMzE5IDEyLjk2IDguODg5Ii8+PHBvbHlnb24gZmlsbD0iI2EzYTNhMyIgcG9pbnRzPSIxNS4xMiAxMS44ODkgMTUuODIgMTIuMDc5IDE1Ljg0IDkuODU5IDE1LjEyIDkuNjE5IDE1LjEyIDExLjg4OSIvPjxwb2x5Z29uIGZpbGw9IiNhM2EzYTMiIHBvaW50cz0iMTAuODEgMTAuNzQ5IDExLjUzIDEwLjkyOSAxMS41MyA4LjM5OSAxMC44MSA4LjE1OSAxMC44MSAxMC43NDkiLz48cG9seWdvbiBmaWxsPSIjYTNhM2EzIiBwb2ludHM9IjE3LjI3IDEwLjM0OSAxNi41NSAxMC4wOTkgMTYuNTUgMTIuMjY5IDE3LjI3IDEyLjQ2OSAxNy4yNyAxMC4zNDkiLz48cGF0aCBmaWxsPSIjYjNiM2IzIiBkPSJNOC42NiwxMS4zNjlsLS4zNi4yMVY4Ljc0OWwuMzYtLjE5Wm0uNzEtMy4yMkw5LDguMzg5djIuNzVsLjM3LS4yWiIgaWQ9ImVmMGQxYjU0LWExZTctNGNiOS1hNGU1LThhODUxOGU3YzEyNyIvPjxwb2x5Z29uIGZpbGw9InVybCgjZmNkNmM2YzctZTJlYi00YTMyLWI5MTQtM2E4NDg1NTg1YTFiKSIgcG9pbnRzPSIxNy45OSAxMy4xMTkgMTUuODMgMTMuODU5IDcuOTMgMTIuNDM5IDEwLjA4IDExLjQzOSAxNy45OSAxMy4xMTkiLz48cG9seWdvbiBmaWxsPSIjNzY3Njc2IiBwb2ludHM9IjE3Ljk5IDE2LjE2OSAxMC4wNCAxNy42NzkgMTAuMDggMTIuMDg5IDE3Ljk5IDEzLjU1OSAxNy45OSAxNi4xNjkiLz48cG9seWdvbiBmaWxsPSIjYTNhM2EzIiBwb2ludHM9IjEwLjgxIDE2Ljc1OSAxMC44MSAxMy4yMDkgMTEuNTMgMTMuMjk5IDExLjUzIDE2LjYzOSAxMC44MSAxNi43NTkiLz48cG9seWdvbiBmaWxsPSIjYTNhM2EzIiBwb2ludHM9IjEyLjk2IDE2LjM5OSAxMi4yNCAxNi41MjkgMTIuMjQgMTMuMzg5IDEyLjk2IDEzLjQ5OSAxMi45NiAxNi4zOTkgMTIuOTYgMTYuMzk5Ii8+PHBvbHlnb24gZmlsbD0iI2EzYTNhMyIgcG9pbnRzPSIxMy42OCAxNi4yODkgMTMuNjggMTMuNTY5IDE0LjQgMTMuNjU5IDE0LjQgMTYuMTU5IDEzLjY4IDE2LjI4OSIvPjxwb2x5Z29uIGZpbGw9IiNhM2EzYTMiIHBvaW50cz0iMTUuODMgMTUuOTA5IDE1LjEyIDE2LjAzOSAxNS4xMiAxMy43NDkgMTUuODMgMTMuODU5IDE1LjgzIDE1LjkwOSIvPjxwb2x5Z29uIGZpbGw9IiNhM2EzYTMiIHBvaW50cz0iMTcuMjkgMTUuNjc5IDE2LjU1IDE1LjgwOSAxNi41NSAxMy45MjkgMTcuMjQgMTQuMDE5IDE3LjI5IDE1LjY3OSIvPjxwYXRoIGZpbGw9IiM5OTkiIGQ9Ik03LjkzLDE2LjR2LTMuMjZsMi4xNi0xdjUuNloiIGlkPSJiOWYyNWViNC00Yzg4LTQ1YzItYmM0ZC1mOTkyNzU3ZDdlMGUiLz48cGF0aCBmaWxsPSIjYjNiM2IzIiBkPSJNOC42MSwxNi4zODlsLS4zMi0uMTZ2LTIuNzZsLjMyLS4xNVptLjc3LTMuNDUtLjM4LjE5djMuNDhsLjM3LjE5di0zLjg2WiIgaWQ9ImViOTIwMGE3LTQ2OTMtNDQyNy1iZGFlLWIzM2NlOTBmZjdmMiIvPjwvc3ZnPg==;" parent="1" vertex="1">
          <mxGeometry x="2052.5" y="755" width="50" height="50" as="geometry" />
        </mxCell>
        <mxCell id="0DpliHtyRFmvJdhoWtfq-8" value="Azure Container Registry (ACR)" style="text;html=1;strokeColor=none;fillColor=none;align=center;verticalAlign=middle;whiteSpace=wrap;rounded=0;" parent="1" vertex="1">
          <mxGeometry x="1992.5" y="805" width="200" height="30" as="geometry" />
        </mxCell>
        <mxCell id="0DpliHtyRFmvJdhoWtfq-9" value="&lt;font color=&quot;#33ffff&quot;&gt;Cart docker&lt;/font&gt;" style="text;html=1;strokeColor=none;fillColor=none;align=center;verticalAlign=middle;whiteSpace=wrap;rounded=0;" parent="1" vertex="1">
          <mxGeometry x="2040" y="825" width="80" height="20" as="geometry" />
        </mxCell>
        <mxCell id="0DpliHtyRFmvJdhoWtfq-10" value="&lt;font style=&quot;font-size: 9px;&quot;&gt;Host the docker image&lt;/font&gt;" style="rounded=1;whiteSpace=wrap;html=1;" parent="1" vertex="1">
          <mxGeometry x="2115" y="765" width="77.5" height="40" as="geometry" />
        </mxCell>
        <mxCell id="0DpliHtyRFmvJdhoWtfq-11" value="&lt;font style=&quot;font-size: 9px;&quot;&gt;push the docker image, builds the container and run the docker service to make it public&lt;/font&gt;" style="rounded=1;whiteSpace=wrap;html=1;" parent="1" vertex="1">
          <mxGeometry x="1962.5" y="545" width="100" height="70" as="geometry" />
        </mxCell>
        <mxCell id="0DpliHtyRFmvJdhoWtfq-12" value="&lt;font style=&quot;font-size: 9px;&quot;&gt;Repository or collection of repositories to store docker images (private)&lt;/font&gt;" style="rounded=1;whiteSpace=wrap;html=1;" parent="1" vertex="1">
          <mxGeometry x="2037.5" y="705" width="130" height="50" as="geometry" />
        </mxCell>
        <mxCell id="0DpliHtyRFmvJdhoWtfq-13" value="" style="rounded=0;whiteSpace=wrap;html=1;dashed=1;" parent="1" vertex="1">
          <mxGeometry x="2329.5" y="580" width="120" height="270" as="geometry" />
        </mxCell>
        <mxCell id="0DpliHtyRFmvJdhoWtfq-14" value="" style="shape=image;verticalLabelPosition=bottom;labelBackgroundColor=default;verticalAlign=top;aspect=fixed;imageAspect=0;image=data:image/svg+xml,PHN2ZyB4bWxucz0iaHR0cDovL3d3dy53My5vcmcvMjAwMC9zdmciIHZpZXdCb3g9IjAgMCAxOCAxOCIgaGVpZ2h0PSIxOCIgd2lkdGg9IjE4IiBpZD0iYjc1OTQzYmEtMWEzZi00ODVkLWI0NWQtM2ZlZTAwZWQ3ZTVlIj48ZGVmcz48bGluZWFyR3JhZGllbnQgZ3JhZGllbnRVbml0cz0idXNlclNwYWNlT25Vc2UiIHkyPSIxNy4yNSIgeDI9IjkuMDEiIHkxPSIwLjc1IiB4MT0iOS4wMSIgaWQ9ImZlNWNlNDNmLTI4MjMtNDYxNy1iYjU0LTU3ZGY5ZTc3ODM3MiI+PHN0b3Agc3RvcC1jb2xvcj0iIzVlYTBlZiIgb2Zmc2V0PSIwIi8+PHN0b3Agc3RvcC1jb2xvcj0iIzU1OWNlYyIgb2Zmc2V0PSIwLjE4Ii8+PHN0b3Agc3RvcC1jb2xvcj0iIzNjOTFlNSIgb2Zmc2V0PSIwLjQ3Ii8+PHN0b3Agc3RvcC1jb2xvcj0iIzEzODBkYSIgb2Zmc2V0PSIwLjg0Ii8+PHN0b3Agc3RvcC1jb2xvcj0iIzAwNzhkNCIgb2Zmc2V0PSIxIi8+PC9saW5lYXJHcmFkaWVudD48L2RlZnM+PHRpdGxlPkljb24tbmV0d29ya2luZy02NzwvdGl0bGU+PHBhdGggZmlsbD0iIzAwNzhkNCIgZD0iTTE2LjM2LDguNGMwLDQuODQtNS44NSw4Ljc0LTcuMTIsOS41M2EuNDYuNDYsMCwwLDEtLjQ4LDBjLTEuMjctLjc5LTcuMTItNC42OS03LjEyLTkuNTNWMi41OGEuNDYuNDYsMCwwLDEsLjQ1LS40NkM2LjY0LDIsNS41OSwwLDksMHMyLjM2LDIsNi45MSwyLjEyYS40Ni40NiwwLDAsMSwuNDUuNDZaIi8+PHBhdGggZmlsbD0iIzZiYjlmMiIgZD0iTTE1Ljc1LDguNDVjMCw0LjQ0LTUuMzYsOC02LjUzLDguNzRhLjQzLjQzLDAsMCwxLS40NCwwYy0xLjE3LS43Mi02LjUzLTQuMy02LjUzLTguNzRWMy4xMWEuNDIuNDIsMCwwLDEsLjQxLS40MkM2LjgzLDIuNTgsNS44Ny43NSw5LC43NXMyLjE3LDEuODMsNi4zNCwxLjk0YS40Mi40MiwwLDAsMSwuNDEuNDJaIi8+PHBhdGggZmlsbD0idXJsKCNmZTVjZTQzZi0yODIzLTQ2MTctYmI1NC01N2RmOWU3NzgzNzIpIiBkPSJNOSw5Vi43NWMzLjEzLDAsMi4xNywxLjgzLDYuMzQsMS45NGEuNDMuNDMsMCwwLDEsLjQxLjQzVjguNDZhNC44OSw0Ljg5LDAsMCwxLDAsLjU0Wk05LDlIMi4yOGMuNCw0LjE4LDUuMzgsNy41LDYuNSw4LjE5YS4zOS4zOSwwLDAsMCwuMTguMDZIOVoiLz48cGF0aCBmaWxsPSIjNTBlNmZmIiBkPSJNMi42NiwyLjY5QzYuODMsMi41OCw1Ljg3Ljc1LDksLjc1VjlIMi4yOGE0Ljg5LDQuODksMCwwLDEsMC0uNTRWMy4xMkEuNDMuNDMsMCwwLDEsMi42NiwyLjY5WiIvPjxwYXRoIGZpbGw9IiM1MGU2ZmYiIGQ9Ik0xNS43Miw5SDl2OC4yNUg5YS4zOS4zOSwwLDAsMCwuMTgtLjA2QzEwLjM0LDE2LjUsMTUuMzIsMTMuMTgsMTUuNzIsOVoiLz48L3N2Zz4=;" parent="1" vertex="1">
          <mxGeometry x="2367.5" y="550" width="44" height="44" as="geometry" />
        </mxCell>
        <mxCell id="0DpliHtyRFmvJdhoWtfq-15" value="Network&lt;br&gt;Security&lt;br&gt;Group &lt;br&gt;( NSG)" style="text;html=1;strokeColor=none;fillColor=none;align=center;verticalAlign=middle;whiteSpace=wrap;rounded=0;" parent="1" vertex="1">
          <mxGeometry x="2347" y="610" width="85" height="30" as="geometry" />
        </mxCell>
        <mxCell id="0DpliHtyRFmvJdhoWtfq-16" style="edgeStyle=orthogonalEdgeStyle;rounded=0;orthogonalLoop=1;jettySize=auto;html=1;" parent="1" source="0DpliHtyRFmvJdhoWtfq-17" edge="1">
          <mxGeometry relative="1" as="geometry">
            <mxPoint x="2467.5" y="715" as="targetPoint" />
          </mxGeometry>
        </mxCell>
        <mxCell id="0DpliHtyRFmvJdhoWtfq-17" value="" style="rounded=0;whiteSpace=wrap;html=1;dashed=1;" parent="1" vertex="1">
          <mxGeometry x="2532.5" y="580" width="285" height="270" as="geometry" />
        </mxCell>
        <mxCell id="0DpliHtyRFmvJdhoWtfq-18" value="" style="shape=image;verticalLabelPosition=bottom;labelBackgroundColor=default;verticalAlign=top;aspect=fixed;imageAspect=0;image=data:image/svg+xml,PHN2ZyB4bWxucz0iaHR0cDovL3d3dy53My5vcmcvMjAwMC9zdmciIHZpZXdCb3g9IjAgMCAxOCAxOCIgaGVpZ2h0PSIxOCIgd2lkdGg9IjE4IiBpZD0iYjc1OTQzYmEtMWEzZi00ODVkLWI0NWQtM2ZlZTAwZWQ3ZTVlIj48ZGVmcz48bGluZWFyR3JhZGllbnQgZ3JhZGllbnRVbml0cz0idXNlclNwYWNlT25Vc2UiIHkyPSIxNy4yNSIgeDI9IjkuMDEiIHkxPSIwLjc1IiB4MT0iOS4wMSIgaWQ9ImZlNWNlNDNmLTI4MjMtNDYxNy1iYjU0LTU3ZGY5ZTc3ODM3MiI+PHN0b3Agc3RvcC1jb2xvcj0iIzVlYTBlZiIgb2Zmc2V0PSIwIi8+PHN0b3Agc3RvcC1jb2xvcj0iIzU1OWNlYyIgb2Zmc2V0PSIwLjE4Ii8+PHN0b3Agc3RvcC1jb2xvcj0iIzNjOTFlNSIgb2Zmc2V0PSIwLjQ3Ii8+PHN0b3Agc3RvcC1jb2xvcj0iIzEzODBkYSIgb2Zmc2V0PSIwLjg0Ii8+PHN0b3Agc3RvcC1jb2xvcj0iIzAwNzhkNCIgb2Zmc2V0PSIxIi8+PC9saW5lYXJHcmFkaWVudD48L2RlZnM+PHRpdGxlPkljb24tbmV0d29ya2luZy02NzwvdGl0bGU+PHBhdGggZmlsbD0iIzAwNzhkNCIgZD0iTTE2LjM2LDguNGMwLDQuODQtNS44NSw4Ljc0LTcuMTIsOS41M2EuNDYuNDYsMCwwLDEtLjQ4LDBjLTEuMjctLjc5LTcuMTItNC42OS03LjEyLTkuNTNWMi41OGEuNDYuNDYsMCwwLDEsLjQ1LS40NkM2LjY0LDIsNS41OSwwLDksMHMyLjM2LDIsNi45MSwyLjEyYS40Ni40NiwwLDAsMSwuNDUuNDZaIi8+PHBhdGggZmlsbD0iIzZiYjlmMiIgZD0iTTE1Ljc1LDguNDVjMCw0LjQ0LTUuMzYsOC02LjUzLDguNzRhLjQzLjQzLDAsMCwxLS40NCwwYy0xLjE3LS43Mi02LjUzLTQuMy02LjUzLTguNzRWMy4xMWEuNDIuNDIsMCwwLDEsLjQxLS40MkM2LjgzLDIuNTgsNS44Ny43NSw5LC43NXMyLjE3LDEuODMsNi4zNCwxLjk0YS40Mi40MiwwLDAsMSwuNDEuNDJaIi8+PHBhdGggZmlsbD0idXJsKCNmZTVjZTQzZi0yODIzLTQ2MTctYmI1NC01N2RmOWU3NzgzNzIpIiBkPSJNOSw5Vi43NWMzLjEzLDAsMi4xNywxLjgzLDYuMzQsMS45NGEuNDMuNDMsMCwwLDEsLjQxLjQzVjguNDZhNC44OSw0Ljg5LDAsMCwxLDAsLjU0Wk05LDlIMi4yOGMuNCw0LjE4LDUuMzgsNy41LDYuNSw4LjE5YS4zOS4zOSwwLDAsMCwuMTguMDZIOVoiLz48cGF0aCBmaWxsPSIjNTBlNmZmIiBkPSJNMi42NiwyLjY5QzYuODMsMi41OCw1Ljg3Ljc1LDksLjc1VjlIMi4yOGE0Ljg5LDQuODksMCwwLDEsMC0uNTRWMy4xMkEuNDMuNDMsMCwwLDEsMi42NiwyLjY5WiIvPjxwYXRoIGZpbGw9IiM1MGU2ZmYiIGQ9Ik0xNS43Miw5SDl2OC4yNUg5YS4zOS4zOSwwLDAsMCwuMTgtLjA2QzEwLjM0LDE2LjUsMTUuMzIsMTMuMTgsMTUuNzIsOVoiLz48L3N2Zz4=;" parent="1" vertex="1">
          <mxGeometry x="2658" y="550" width="44" height="44" as="geometry" />
        </mxCell>
        <mxCell id="0DpliHtyRFmvJdhoWtfq-19" value="NSG" style="text;html=1;strokeColor=none;fillColor=none;align=center;verticalAlign=middle;whiteSpace=wrap;rounded=0;" parent="1" vertex="1">
          <mxGeometry x="2650" y="590" width="60" height="30" as="geometry" />
        </mxCell>
        <mxCell id="0DpliHtyRFmvJdhoWtfq-20" value="" style="shape=image;verticalLabelPosition=bottom;labelBackgroundColor=default;verticalAlign=top;aspect=fixed;imageAspect=0;image=data:image/svg+xml,PHN2ZyB4bWxucz0iaHR0cDovL3d3dy53My5vcmcvMjAwMC9zdmciIHZpZXdCb3g9IjAgMCAxOCAxOCIgaGVpZ2h0PSIxOCIgd2lkdGg9IjE4IiBpZD0iYTI2NGQ2NTUtMWRiYi00OWQyLWFiMTEtNTY2MTYzNmRjYWMzIj48ZGVmcz48bGluZWFyR3JhZGllbnQgZ3JhZGllbnRVbml0cz0idXNlclNwYWNlT25Vc2UiIGdyYWRpZW50VHJhbnNmb3JtPSJ0cmFuc2xhdGUoMi4wMyAtMS4xNSkgcm90YXRlKC0wLjA4KSIgeTI9IjkiIHgyPSIxMC43IiB5MT0iMTEuMzIiIHgxPSIxMC43IiBpZD0iYTg1MmU2MTEtNTg0OS00NjcwLTg5Y2UtNTE4ZGRmN2VkZWFlIj48c3RvcCBzdG9wLWNvbG9yPSIjMDA3OGQ0IiBvZmZzZXQ9IjAiLz48c3RvcCBzdG9wLWNvbG9yPSIjNWVhMGVmIiBvZmZzZXQ9IjAuODIiLz48L2xpbmVhckdyYWRpZW50PjxsaW5lYXJHcmFkaWVudCBncmFkaWVudFVuaXRzPSJ1c2VyU3BhY2VPblVzZSIgeTI9IjkiIHgyPSI3IiB5MT0iMTEuMzIiIHgxPSI2Ljk5IiBpZD0iYTIzNTA4NjItZjk5Ny00YzU3LWFhZDAtYzE2ZjljYTRjMGMzIj48c3RvcCBzdG9wLWNvbG9yPSIjMDA3OGQ0IiBvZmZzZXQ9IjAiLz48c3RvcCBzdG9wLWNvbG9yPSIjNWVhMGVmIiBvZmZzZXQ9IjAuODIiLz48L2xpbmVhckdyYWRpZW50PjxsaW5lYXJHcmFkaWVudCBncmFkaWVudFVuaXRzPSJ1c2VyU3BhY2VPblVzZSIgeTI9IjkiIHgyPSIzLjMiIHkxPSIxMS4zMiIgeDE9IjMuMjkiIGlkPSJlNTQ3MzY5NS0wNjhhLTQ0ZmYtYjNkYy05MjcxNTkyMjZhOGUiPjxzdG9wIHN0b3AtY29sb3I9IiMwMDc4ZDQiIG9mZnNldD0iMCIvPjxzdG9wIHN0b3AtY29sb3I9IiM1ZWEwZWYiIG9mZnNldD0iMC44MiIvPjwvbGluZWFyR3JhZGllbnQ+PC9kZWZzPjx0aXRsZT5JY29uLW5ldHdvcmtpbmctNzU8L3RpdGxlPjxjaXJjbGUgZmlsbD0idXJsKCNhODUyZTYxMS01ODQ5LTQ2NzAtODljZS01MThkZGY3ZWRlYWUpIiByPSIxLjE2IiBjeT0iOC45OSIgY3g9IjEyLjc0Ii8+PGNpcmNsZSBmaWxsPSJ1cmwoI2EyMzUwODYyLWY5OTctNGM1Ny1hYWQwLWMxNmY5Y2E0YzBjMykiIHI9IjEuMTYiIGN5PSI5IiBjeD0iOS4wNCIvPjxjaXJjbGUgZmlsbD0idXJsKCNlNTQ3MzY5NS0wNjhhLTQ0ZmYtYjNkYy05MjcxNTkyMjZhOGUpIiByPSIxLjE2IiBjeT0iOSIgY3g9IjUuMzQiLz48cGF0aCBmaWxsPSIjNTBlNmZmIiB0cmFuc2Zvcm09InRyYW5zbGF0ZSgxMy4xOCAxNi45Mykgcm90YXRlKDEzNC45MikiIGQ9Ik0yLjYxLDcuMjhoLjk0YS4zLjMsMCwwLDEsLjMuM3Y2Ljk0YS42LjYsMCwwLDEtLjYuNkgyLjMxYTAsMCwwLDAsMSwwLDBWNy41OEEuMy4zLDAsMCwxLDIuNjEsNy4yOFoiLz48cGF0aCBmaWxsPSIjMTQ5MGRmIiB0cmFuc2Zvcm09InRyYW5zbGF0ZSg1LjY2IC0wLjE2KSByb3RhdGUoNDQuOTIpIiBkPSJNMi41NiwyLjkxSDMuNWEuMy4zLDAsMCwxLC4zLjN2Ny40M2EwLDAsMCwwLDEsMCwwSDIuODZhLjYuNiwwLDAsMS0uNi0uNlYzLjIxYS4zLjMsMCwwLDEsLjMtLjNaIi8+PHBhdGggZmlsbD0iIzUwZTZmZiIgdHJhbnNmb3JtPSJ0cmFuc2xhdGUoMTIuMzIgLTcuMjgpIHJvdGF0ZSg0NS4wOCkiIGQ9Ik0xNC4xNSw3LjI4aC45NGEuNi42LDAsMCwxLC42LjZ2Ni45NGEuMy4zLDAsMCwxLS4zLjNoLS45NGEuMy4zLDAsMCwxLS4zLS4zVjcuMjhhMCwwLDAsMCwxLDAsMFoiLz48cGF0aCBmaWxsPSIjMTQ5MGRmIiB0cmFuc2Zvcm09InRyYW5zbGF0ZSgzMC4zNiAwLjk5KSByb3RhdGUoMTM1LjA4KSIgZD0iTTE0LjgxLDIuOTFoLjk0YTAsMCwwLDAsMSwwLDB2Ny40M2EuMy4zLDAsMCwxLS4zLjNIMTQuNWEuMy4zLDAsMCwxLS4zLS4zVjMuNTFhLjYuNiwwLDAsMSwuNi0uNloiLz48L3N2Zz4=;" parent="1" vertex="1">
          <mxGeometry x="2308.5" y="515" width="40" height="40" as="geometry" />
        </mxCell>
        <mxCell id="0DpliHtyRFmvJdhoWtfq-21" value="Vnet" style="text;html=1;strokeColor=none;fillColor=none;align=center;verticalAlign=middle;whiteSpace=wrap;rounded=0;" parent="1" vertex="1">
          <mxGeometry x="2298.5" y="535" width="60" height="30" as="geometry" />
        </mxCell>
        <mxCell id="0DpliHtyRFmvJdhoWtfq-22" value="&lt;font color=&quot;#33ffff&quot;&gt;Weather VNet&lt;/font&gt;" style="text;html=1;strokeColor=none;fillColor=none;align=center;verticalAlign=middle;whiteSpace=wrap;rounded=0;" parent="1" vertex="1">
          <mxGeometry x="2286.5" y="545" width="80" height="30" as="geometry" />
        </mxCell>
        <mxCell id="0DpliHtyRFmvJdhoWtfq-23" value="" style="shape=image;verticalLabelPosition=bottom;labelBackgroundColor=default;verticalAlign=top;aspect=fixed;imageAspect=0;image=data:image/svg+xml,PHN2ZyB4bWxucz0iaHR0cDovL3d3dy53My5vcmcvMjAwMC9zdmciIHZpZXdCb3g9IjAgMCAxOCAxOCIgaGVpZ2h0PSIxOCIgd2lkdGg9IjE4IiBpZD0iYTI2NGQ2NTUtMWRiYi00OWQyLWFiMTEtNTY2MTYzNmRjYWMzIj48ZGVmcz48bGluZWFyR3JhZGllbnQgZ3JhZGllbnRVbml0cz0idXNlclNwYWNlT25Vc2UiIGdyYWRpZW50VHJhbnNmb3JtPSJ0cmFuc2xhdGUoMi4wMyAtMS4xNSkgcm90YXRlKC0wLjA4KSIgeTI9IjkiIHgyPSIxMC43IiB5MT0iMTEuMzIiIHgxPSIxMC43IiBpZD0iYTg1MmU2MTEtNTg0OS00NjcwLTg5Y2UtNTE4ZGRmN2VkZWFlIj48c3RvcCBzdG9wLWNvbG9yPSIjMDA3OGQ0IiBvZmZzZXQ9IjAiLz48c3RvcCBzdG9wLWNvbG9yPSIjNWVhMGVmIiBvZmZzZXQ9IjAuODIiLz48L2xpbmVhckdyYWRpZW50PjxsaW5lYXJHcmFkaWVudCBncmFkaWVudFVuaXRzPSJ1c2VyU3BhY2VPblVzZSIgeTI9IjkiIHgyPSI3IiB5MT0iMTEuMzIiIHgxPSI2Ljk5IiBpZD0iYTIzNTA4NjItZjk5Ny00YzU3LWFhZDAtYzE2ZjljYTRjMGMzIj48c3RvcCBzdG9wLWNvbG9yPSIjMDA3OGQ0IiBvZmZzZXQ9IjAiLz48c3RvcCBzdG9wLWNvbG9yPSIjNWVhMGVmIiBvZmZzZXQ9IjAuODIiLz48L2xpbmVhckdyYWRpZW50PjxsaW5lYXJHcmFkaWVudCBncmFkaWVudFVuaXRzPSJ1c2VyU3BhY2VPblVzZSIgeTI9IjkiIHgyPSIzLjMiIHkxPSIxMS4zMiIgeDE9IjMuMjkiIGlkPSJlNTQ3MzY5NS0wNjhhLTQ0ZmYtYjNkYy05MjcxNTkyMjZhOGUiPjxzdG9wIHN0b3AtY29sb3I9IiMwMDc4ZDQiIG9mZnNldD0iMCIvPjxzdG9wIHN0b3AtY29sb3I9IiM1ZWEwZWYiIG9mZnNldD0iMC44MiIvPjwvbGluZWFyR3JhZGllbnQ+PC9kZWZzPjx0aXRsZT5JY29uLW5ldHdvcmtpbmctNzU8L3RpdGxlPjxjaXJjbGUgZmlsbD0idXJsKCNhODUyZTYxMS01ODQ5LTQ2NzAtODljZS01MThkZGY3ZWRlYWUpIiByPSIxLjE2IiBjeT0iOC45OSIgY3g9IjEyLjc0Ii8+PGNpcmNsZSBmaWxsPSJ1cmwoI2EyMzUwODYyLWY5OTctNGM1Ny1hYWQwLWMxNmY5Y2E0YzBjMykiIHI9IjEuMTYiIGN5PSI5IiBjeD0iOS4wNCIvPjxjaXJjbGUgZmlsbD0idXJsKCNlNTQ3MzY5NS0wNjhhLTQ0ZmYtYjNkYy05MjcxNTkyMjZhOGUpIiByPSIxLjE2IiBjeT0iOSIgY3g9IjUuMzQiLz48cGF0aCBmaWxsPSIjNTBlNmZmIiB0cmFuc2Zvcm09InRyYW5zbGF0ZSgxMy4xOCAxNi45Mykgcm90YXRlKDEzNC45MikiIGQ9Ik0yLjYxLDcuMjhoLjk0YS4zLjMsMCwwLDEsLjMuM3Y2Ljk0YS42LjYsMCwwLDEtLjYuNkgyLjMxYTAsMCwwLDAsMSwwLDBWNy41OEEuMy4zLDAsMCwxLDIuNjEsNy4yOFoiLz48cGF0aCBmaWxsPSIjMTQ5MGRmIiB0cmFuc2Zvcm09InRyYW5zbGF0ZSg1LjY2IC0wLjE2KSByb3RhdGUoNDQuOTIpIiBkPSJNMi41NiwyLjkxSDMuNWEuMy4zLDAsMCwxLC4zLjN2Ny40M2EwLDAsMCwwLDEsMCwwSDIuODZhLjYuNiwwLDAsMS0uNi0uNlYzLjIxYS4zLjMsMCwwLDEsLjMtLjNaIi8+PHBhdGggZmlsbD0iIzUwZTZmZiIgdHJhbnNmb3JtPSJ0cmFuc2xhdGUoMTIuMzIgLTcuMjgpIHJvdGF0ZSg0NS4wOCkiIGQ9Ik0xNC4xNSw3LjI4aC45NGEuNi42LDAsMCwxLC42LjZ2Ni45NGEuMy4zLDAsMCwxLS4zLjNoLS45NGEuMy4zLDAsMCwxLS4zLS4zVjcuMjhhMCwwLDAsMCwxLDAsMFoiLz48cGF0aCBmaWxsPSIjMTQ5MGRmIiB0cmFuc2Zvcm09InRyYW5zbGF0ZSgzMC4zNiAwLjk5KSByb3RhdGUoMTM1LjA4KSIgZD0iTTE0LjgxLDIuOTFoLjk0YTAsMCwwLDAsMSwwLDB2Ny40M2EuMy4zLDAsMCwxLS4zLjNIMTQuNWEuMy4zLDAsMCwxLS4zLS4zVjMuNTFhLjYuNiwwLDAsMSwuNi0uNloiLz48L3N2Zz4=;" parent="1" vertex="1">
          <mxGeometry x="2769.5" y="515" width="40" height="40" as="geometry" />
        </mxCell>
        <mxCell id="0DpliHtyRFmvJdhoWtfq-24" value="Vnet" style="text;html=1;strokeColor=none;fillColor=none;align=center;verticalAlign=middle;whiteSpace=wrap;rounded=0;" parent="1" vertex="1">
          <mxGeometry x="2757.5" y="535" width="62" height="30" as="geometry" />
        </mxCell>
        <mxCell id="0DpliHtyRFmvJdhoWtfq-25" value="&lt;font color=&quot;#33ffff&quot;&gt;Catalog VNet&lt;/font&gt;" style="text;html=1;strokeColor=none;fillColor=none;align=center;verticalAlign=middle;whiteSpace=wrap;rounded=0;" parent="1" vertex="1">
          <mxGeometry x="2747.5" y="545" width="80" height="30" as="geometry" />
        </mxCell>
        <mxCell id="0DpliHtyRFmvJdhoWtfq-26" value="" style="shape=image;verticalLabelPosition=bottom;labelBackgroundColor=default;verticalAlign=top;aspect=fixed;imageAspect=0;image=data:image/svg+xml,PHN2ZyB4bWxucz0iaHR0cDovL3d3dy53My5vcmcvMjAwMC9zdmciIHZpZXdCb3g9IjAgMCAxOCAxOCIgaGVpZ2h0PSIxOCIgd2lkdGg9IjE4IiBpZD0iZWM2ZGM1ZTgtNTk1OC00Njg4LTgzM2ItZjk1ZWMwNjFhNGE4Ij48ZGVmcz48bGluZWFyR3JhZGllbnQgZ3JhZGllbnRVbml0cz0idXNlclNwYWNlT25Vc2UiIHkyPSIxLjAyIiB4Mj0iOC44NiIgeTE9IjEzLjAyIiB4MT0iOC44NiIgaWQ9ImFiZTNlMGZkLWY1ZjUtNGQ2Ny04Y2NhLWNiNjMxNGQ1ZGE2MiI+PHN0b3Agc3RvcC1jb2xvcj0iIzAwNzhkNCIgb2Zmc2V0PSIwIi8+PHN0b3Agc3RvcC1jb2xvcj0iIzVlYTBlZiIgb2Zmc2V0PSIwLjgyIi8+PC9saW5lYXJHcmFkaWVudD48bGluZWFyR3JhZGllbnQgZ3JhZGllbnRVbml0cz0idXNlclNwYWNlT25Vc2UiIHkyPSIxMy4wMiIgeDI9IjguODYiIHkxPSIxNy42NSIgeDE9IjguODYiIGlkPSJhNDljMmZkMi03YzcxLTRkNjMtYjY4Zi1kZGY1NTk0ZGQwYjgiPjxzdG9wIHN0b3AtY29sb3I9IiMxNDkwZGYiIG9mZnNldD0iMCIvPjxzdG9wIHN0b3AtY29sb3I9IiMxZjU2YTMiIG9mZnNldD0iMC45OCIvPjwvbGluZWFyR3JhZGllbnQ+PC9kZWZzPjx0aXRsZT5JY29uLWNvbXB1dGUtMjg8L3RpdGxlPjxyZWN0IGZpbGw9InVybCgjYWJlM2UwZmQtZjVmNS00ZDY3LThjY2EtY2I2MzE0ZDVkYTYyKSIgcng9IjAuNiIgaGVpZ2h0PSIxMiIgd2lkdGg9IjE4IiB5PSIxLjAyIiB4PSItMC4xNCIvPjxyZWN0IGZpbGw9IiNmZmYiIHJ4PSIwLjMzIiBoZWlnaHQ9IjEwIiB3aWR0aD0iMTYiIHk9IjIuMDIiIHg9IjAuODYiLz48cG9seWdvbiBmaWxsPSIjMDA3OGQ0IiBwb2ludHM9IjExLjg2IDUuMjcgMTEuODYgOC43NiA4Ljg2IDEwLjUyIDguODYgNy4wMiAxMS44NiA1LjI3Ii8+PHBvbHlnb24gZmlsbD0iIzgzYjlmOSIgcG9pbnRzPSIxMS44NiA1LjI3IDguODYgNy4wMyA1Ljg2IDUuMjcgOC44NiAzLjUyIDExLjg2IDUuMjciLz48cG9seWdvbiBmaWxsPSIjNWVhMGVmIiBwb2ludHM9IjguODYgNy4wMyA4Ljg2IDEwLjUyIDUuODYgOC43NiA1Ljg2IDUuMjcgOC44NiA3LjAzIi8+PHBvbHlnb24gb3BhY2l0eT0iMC4yIiBmaWxsPSIjODNiOWY5IiBwb2ludHM9IjUuODYgOC43NiA4Ljg2IDcuMDIgOC44NiAxMC41MiA1Ljg2IDguNzYiLz48cG9seWdvbiBvcGFjaXR5PSIwLjIiIGZpbGw9IiM1ZWEwZWYiIHBvaW50cz0iMTEuODYgOC43NiA4Ljg2IDcuMDIgOC44NiAxMC41MiAxMS44NiA4Ljc2Ii8+PHBhdGggZmlsbD0idXJsKCNhNDljMmZkMi03YzcxLTRkNjMtYjY4Zi1kZGY1NTk0ZGQwYjgpIiBkPSJNMTIuNDYsMTYuNjVjLTEuNzctLjI4LTEuODQtMS41Ny0xLjg0LTMuNjNINy4wOWMwLDIuMDYtLjA3LDMuMzUtMS44NCwzLjYzYTEsMSwwLDAsMC0uODksMWg5QTEsMSwwLDAsMCwxMi40NiwxNi42NVoiLz48L3N2Zz4=;" parent="1" vertex="1">
          <mxGeometry x="2366.5" y="675" width="45" height="45" as="geometry" />
        </mxCell>
        <mxCell id="0DpliHtyRFmvJdhoWtfq-27" value="VM" style="text;html=1;strokeColor=none;fillColor=none;align=center;verticalAlign=middle;whiteSpace=wrap;rounded=0;" parent="1" vertex="1">
          <mxGeometry x="2359.5" y="710" width="60" height="30" as="geometry" />
        </mxCell>
        <mxCell id="0DpliHtyRFmvJdhoWtfq-28" value="&lt;font color=&quot;#33ffff&quot;&gt;Weather API&lt;/font&gt;" style="text;html=1;strokeColor=none;fillColor=none;align=center;verticalAlign=middle;whiteSpace=wrap;rounded=0;" parent="1" vertex="1">
          <mxGeometry x="2349.5" y="720" width="80" height="30" as="geometry" />
        </mxCell>
        <mxCell id="0DpliHtyRFmvJdhoWtfq-29" value="" style="shape=image;verticalLabelPosition=bottom;labelBackgroundColor=default;verticalAlign=top;aspect=fixed;imageAspect=0;image=data:image/svg+xml,PHN2ZyB4bWxucz0iaHR0cDovL3d3dy53My5vcmcvMjAwMC9zdmciIHZpZXdCb3g9IjAgMCAxOCAxOCIgaGVpZ2h0PSIxOCIgd2lkdGg9IjE4IiBpZD0iZWM2ZGM1ZTgtNTk1OC00Njg4LTgzM2ItZjk1ZWMwNjFhNGE4Ij48ZGVmcz48bGluZWFyR3JhZGllbnQgZ3JhZGllbnRVbml0cz0idXNlclNwYWNlT25Vc2UiIHkyPSIxLjAyIiB4Mj0iOC44NiIgeTE9IjEzLjAyIiB4MT0iOC44NiIgaWQ9ImFiZTNlMGZkLWY1ZjUtNGQ2Ny04Y2NhLWNiNjMxNGQ1ZGE2MiI+PHN0b3Agc3RvcC1jb2xvcj0iIzAwNzhkNCIgb2Zmc2V0PSIwIi8+PHN0b3Agc3RvcC1jb2xvcj0iIzVlYTBlZiIgb2Zmc2V0PSIwLjgyIi8+PC9saW5lYXJHcmFkaWVudD48bGluZWFyR3JhZGllbnQgZ3JhZGllbnRVbml0cz0idXNlclNwYWNlT25Vc2UiIHkyPSIxMy4wMiIgeDI9IjguODYiIHkxPSIxNy42NSIgeDE9IjguODYiIGlkPSJhNDljMmZkMi03YzcxLTRkNjMtYjY4Zi1kZGY1NTk0ZGQwYjgiPjxzdG9wIHN0b3AtY29sb3I9IiMxNDkwZGYiIG9mZnNldD0iMCIvPjxzdG9wIHN0b3AtY29sb3I9IiMxZjU2YTMiIG9mZnNldD0iMC45OCIvPjwvbGluZWFyR3JhZGllbnQ+PC9kZWZzPjx0aXRsZT5JY29uLWNvbXB1dGUtMjg8L3RpdGxlPjxyZWN0IGZpbGw9InVybCgjYWJlM2UwZmQtZjVmNS00ZDY3LThjY2EtY2I2MzE0ZDVkYTYyKSIgcng9IjAuNiIgaGVpZ2h0PSIxMiIgd2lkdGg9IjE4IiB5PSIxLjAyIiB4PSItMC4xNCIvPjxyZWN0IGZpbGw9IiNmZmYiIHJ4PSIwLjMzIiBoZWlnaHQ9IjEwIiB3aWR0aD0iMTYiIHk9IjIuMDIiIHg9IjAuODYiLz48cG9seWdvbiBmaWxsPSIjMDA3OGQ0IiBwb2ludHM9IjExLjg2IDUuMjcgMTEuODYgOC43NiA4Ljg2IDEwLjUyIDguODYgNy4wMiAxMS44NiA1LjI3Ii8+PHBvbHlnb24gZmlsbD0iIzgzYjlmOSIgcG9pbnRzPSIxMS44NiA1LjI3IDguODYgNy4wMyA1Ljg2IDUuMjcgOC44NiAzLjUyIDExLjg2IDUuMjciLz48cG9seWdvbiBmaWxsPSIjNWVhMGVmIiBwb2ludHM9IjguODYgNy4wMyA4Ljg2IDEwLjUyIDUuODYgOC43NiA1Ljg2IDUuMjcgOC44NiA3LjAzIi8+PHBvbHlnb24gb3BhY2l0eT0iMC4yIiBmaWxsPSIjODNiOWY5IiBwb2ludHM9IjUuODYgOC43NiA4Ljg2IDcuMDIgOC44NiAxMC41MiA1Ljg2IDguNzYiLz48cG9seWdvbiBvcGFjaXR5PSIwLjIiIGZpbGw9IiM1ZWEwZWYiIHBvaW50cz0iMTEuODYgOC43NiA4Ljg2IDcuMDIgOC44NiAxMC41MiAxMS44NiA4Ljc2Ii8+PHBhdGggZmlsbD0idXJsKCNhNDljMmZkMi03YzcxLTRkNjMtYjY4Zi1kZGY1NTk0ZGQwYjgpIiBkPSJNMTIuNDYsMTYuNjVjLTEuNzctLjI4LTEuODQtMS41Ny0xLjg0LTMuNjNINy4wOWMwLDIuMDYtLjA3LDMuMzUtMS44NCwzLjYzYTEsMSwwLDAsMC0uODksMWg5QTEsMSwwLDAsMCwxMi40NiwxNi42NVoiLz48L3N2Zz4=;" parent="1" vertex="1">
          <mxGeometry x="2737.5" y="715" width="45" height="45" as="geometry" />
        </mxCell>
        <mxCell id="0DpliHtyRFmvJdhoWtfq-30" value="VM" style="text;html=1;strokeColor=none;fillColor=none;align=center;verticalAlign=middle;whiteSpace=wrap;rounded=0;" parent="1" vertex="1">
          <mxGeometry x="2730" y="750" width="60" height="30" as="geometry" />
        </mxCell>
        <mxCell id="0DpliHtyRFmvJdhoWtfq-31" value="&lt;font color=&quot;#33ffff&quot;&gt;Catalog App&lt;/font&gt;" style="text;html=1;strokeColor=none;fillColor=none;align=center;verticalAlign=middle;whiteSpace=wrap;rounded=0;" parent="1" vertex="1">
          <mxGeometry x="2720" y="760" width="80" height="30" as="geometry" />
        </mxCell>
        <mxCell id="0DpliHtyRFmvJdhoWtfq-32" value="" style="shape=image;verticalLabelPosition=bottom;labelBackgroundColor=default;verticalAlign=top;aspect=fixed;imageAspect=0;image=data:image/svg+xml,PHN2ZyB4bWxucz0iaHR0cDovL3d3dy53My5vcmcvMjAwMC9zdmciIHZpZXdCb3g9IjAgMCAxOCAxOCIgaGVpZ2h0PSIxOCIgd2lkdGg9IjE4IiBpZD0iYjcwYWNmMGEtMzRiNC00YmRmLTkwMjQtNzQ5NjA0M2ZmOTE1Ij48ZGVmcz48cmFkaWFsR3JhZGllbnQgZ3JhZGllbnRVbml0cz0idXNlclNwYWNlT25Vc2UiIGdyYWRpZW50VHJhbnNmb3JtPSJ0cmFuc2xhdGUoLTIwMDUuMzMgLTUxOC44Mykgc2NhbGUoMC4xNSkiIHI9IjU2LjY3IiBjeT0iMzUxOC44NiIgY3g9IjEzNDI4LjgxIiBpZD0iZTJjZjg3NDYtYzlhOC00ZWVlLTg2YzItNDk1MTk4M2M2MDMyIj48c3RvcCBzdG9wLWNvbG9yPSIjNWVhMGVmIiBvZmZzZXQ9IjAuMTgiLz48c3RvcCBzdG9wLWNvbG9yPSIjMDA3OGQ0IiBvZmZzZXQ9IjEiLz48L3JhZGlhbEdyYWRpZW50PjxsaW5lYXJHcmFkaWVudCBncmFkaWVudFVuaXRzPSJ1c2VyU3BhY2VPblVzZSIgeTI9IjcuNTMiIHgyPSI0LjM3IiB5MT0iMTEuNDgiIHgxPSI0LjQiIGlkPSJiZGQyMTNkZC1kMzEzLTQ3M2MtOGZmNC0wMTMzZmQzYTkwMzMiPjxzdG9wIHN0b3AtY29sb3I9IiNjY2MiIG9mZnNldD0iMCIvPjxzdG9wIHN0b3AtY29sb3I9IiNmY2ZjZmMiIG9mZnNldD0iMSIvPjwvbGluZWFyR3JhZGllbnQ+PGxpbmVhckdyYWRpZW50IGdyYWRpZW50VW5pdHM9InVzZXJTcGFjZU9uVXNlIiB5Mj0iMTEuOSIgeDI9IjEwLjEzIiB5MT0iMTUuNDUiIHgxPSIxMC4xMyIgaWQ9ImFmY2M2M2M1LTM2NDktNDQ3Ni1hNzQyLWJjYjUzYTU2OWYzYyI+PHN0b3Agc3RvcC1jb2xvcj0iI2NjYyIgb2Zmc2V0PSIwIi8+PHN0b3Agc3RvcC1jb2xvcj0iI2ZjZmNmYyIgb2Zmc2V0PSIxIi8+PC9saW5lYXJHcmFkaWVudD48bGluZWFyR3JhZGllbnQgZ3JhZGllbnRVbml0cz0idXNlclNwYWNlT25Vc2UiIHkyPSI3LjM4IiB4Mj0iMTQuMTgiIHkxPSIxMS4xNSIgeDE9IjE0LjE4IiBpZD0iYmQ4NzNmMGItOTk1NC00YWE1LWEzZGYtOWY0YzY0ZTg3MjlkIj48c3RvcCBzdG9wLWNvbG9yPSIjY2NjIiBvZmZzZXQ9IjAiLz48c3RvcCBzdG9wLWNvbG9yPSIjZmNmY2ZjIiBvZmZzZXQ9IjEiLz48L2xpbmVhckdyYWRpZW50PjwvZGVmcz48dGl0bGU+SWNvbi13ZWItNDE8L3RpdGxlPjxwYXRoIGZpbGw9InVybCgjZTJjZjg3NDYtYzlhOC00ZWVlLTg2YzItNDk1MTk4M2M2MDMyKSIgZD0iTTE0LjIxLDE1LjcyQTguNSw4LjUsMCwwLDEsMy43OSwyLjI4bC4wOS0uMDZhOC41LDguNSwwLDAsMSwxMC4zMywxMy41IiBpZD0iZWU3NWRkMDYtMWFjYS00Zjc2LTlkMTEtZDA1YTI4NDAyMGFkIi8+PHBhdGggb3BhY2l0eT0iMC42IiBmaWxsPSIjZmZmIiBkPSJNNi42OSw3LjIzQTEzLDEzLDAsMCwxLDE1LjYsMy42NWE4LjQ3LDguNDcsMCwwLDAtMS40OS0xLjQ0LDE0LjM0LDE0LjM0LDAsMCwwLTQuNjksMS4xQTEyLjU0LDEyLjU0LDAsMCwwLDUuMzQsNi4xMywyLjc2LDIuNzYsMCwwLDEsNi42OSw3LjIzWiIvPjxwYXRoIG9wYWNpdHk9IjAuNiIgZmlsbD0iI2ZmZiIgZD0iTTIuNDgsMTAuNjVhMTcuODYsMTcuODYsMCwwLDAtLjgzLDIuNjIsNy44Miw3LjgyLDAsMCwwLC42Mi45MmMuMTguMjMuMzUuNDQuNTUuNjVBMTcuOTQsMTcuOTQsMCwwLDEsMy45LDExLjM3LDIuNzYsMi43NiwwLDAsMSwyLjQ4LDEwLjY1WiIvPjxwYXRoIG9wYWNpdHk9IjAuNTUiIGZpbGw9IiNmMmYyZjIiIGQ9Ik0zLjQ2LDYuMTFhMTIsMTIsMCwwLDEtLjY5LTIuOTQsOC4xNSw4LjE1LDAsMCwwLTEuMSwxLjQ1QTEyLjY5LDEyLjY5LDAsMCwwLDIuMjQsNywyLjY5LDIuNjksMCwwLDEsMy40Niw2LjExWiIvPjxjaXJjbGUgZmlsbD0idXJsKCNiZGQyMTNkZC1kMzEzLTQ3M2MtOGZmNC0wMTMzZmQzYTkwMzMpIiByPSIyLjczIiBjeT0iOC42OCIgY3g9IjQuMzgiLz48cGF0aCBvcGFjaXR5PSIwLjU1IiBmaWxsPSIjZjJmMmYyIiBkPSJNOC4zNiwxMy42N0ExLjc3LDEuNzcsMCwwLDEsOC45LDEyLjRhMTEuODgsMTEuODgsMCwwLDEtMi41My0xLjg2LDIuNzQsMi43NCwwLDAsMS0xLjQ5LjgzLDEzLjEsMTMuMSwwLDAsMCwxLjQ1LDEuMjhBMTIuMTIsMTIuMTIsMCwwLDAsOC4zOCwxMy45LDEuNzksMS43OSwwLDAsMSw4LjM2LDEzLjY3WiIvPjxwYXRoIG9wYWNpdHk9IjAuNTUiIGZpbGw9IiNmMmYyZjIiIGQ9Ik0xNC42NiwxMy44OGExMiwxMiwwLDAsMS0yLjc2LS4zMi40MS40MSwwLDAsMSwwLC4xMSwxLjc1LDEuNzUsMCwwLDEtLjUxLDEuMjQsMTMuNjksMTMuNjksMCwwLDAsMy40Mi4yNEE4LjIxLDguMjEsMCwwLDAsMTYsMTMuODEsMTEuNSwxMS41LDAsMCwxLDE0LjY2LDEzLjg4WiIvPjxjaXJjbGUgZmlsbD0idXJsKCNhZmNjNjNjNS0zNjQ5LTQ0NzYtYTc0Mi1iY2I1M2E1NjlmM2MpIiByPSIxLjc4IiBjeT0iMTMuNjciIGN4PSIxMC4xMyIvPjxwYXRoIG9wYWNpdHk9IjAuNyIgZmlsbD0iI2YyZjJmMiIgZD0iTTEyLjMyLDguOTNhMS44MywxLjgzLDAsMCwxLC42MS0xQTI1LjUsMjUuNSwwLDAsMSw4LjQ3LDMuNzlhMTYuOTEsMTYuOTEsMCwwLDEtMi0yLjkyLDcuNjQsNy42NCwwLDAsMC0xLjA5LjQyQTE4LjE0LDE4LjE0LDAsMCwwLDcuNTMsNC40NywyNi40NCwyNi40NCwwLDAsMCwxMi4zMiw4LjkzWiIvPjxjaXJjbGUgZmlsbD0idXJsKCNiZDg3M2YwYi05OTU0LTRhYTUtYTNkZi05ZjRjNjRlODcyOWQpIiByPSIxLjg5IiBjeT0iOS4yNyIgY3g9IjE0LjE4Ii8+PHBhdGggb3BhY2l0eT0iMC41NSIgZmlsbD0iI2YyZjJmMiIgZD0iTTE3LjM1LDEwLjU0LDE3LDEwLjM3bDAsMC0uMy0uMTYtLjA2LDBMMTYuMzgsMTBsLS4wNywwTDE2LDkuOGExLjc2LDEuNzYsMCwwLDEtLjY0LjkyYy4xMi4wOC4yNS4xNS4zOC4yMmwuMDguMDUuMzUuMTksMCwwLC44Ni40NWgwYTguNjMsOC42MywwLDAsMCwuMjktMS4xMVoiLz48Y2lyY2xlIGZpbGw9InVybCgjYmRkMjEzZGQtZDMxMy00NzNjLThmZjQtMDEzM2ZkM2E5MDMzKSIgcj0iMi43MyIgY3k9IjguNjgiIGN4PSI0LjM4Ii8+PGNpcmNsZSBmaWxsPSJ1cmwoI2FmY2M2M2M1LTM2NDktNDQ3Ni1hNzQyLWJjYjUzYTU2OWYzYykiIHI9IjEuNzgiIGN5PSIxMy42NyIgY3g9IjEwLjEzIi8+PC9zdmc+;" parent="1" vertex="1">
          <mxGeometry x="2202.5" y="585" width="50" height="50" as="geometry" />
        </mxCell>
        <mxCell id="0DpliHtyRFmvJdhoWtfq-33" value="App Service" style="text;html=1;strokeColor=none;fillColor=none;align=center;verticalAlign=middle;whiteSpace=wrap;rounded=0;" parent="1" vertex="1">
          <mxGeometry x="2190" y="635" width="75" height="30" as="geometry" />
        </mxCell>
        <mxCell id="0DpliHtyRFmvJdhoWtfq-34" value="&lt;font color=&quot;#33ffff&quot;&gt;Inventory App&lt;/font&gt;" style="text;html=1;strokeColor=none;fillColor=none;align=center;verticalAlign=middle;whiteSpace=wrap;rounded=0;" parent="1" vertex="1">
          <mxGeometry x="2190" y="645" width="80" height="30" as="geometry" />
        </mxCell>
        <mxCell id="0DpliHtyRFmvJdhoWtfq-38" value="" style="shape=image;verticalLabelPosition=bottom;labelBackgroundColor=default;verticalAlign=top;aspect=fixed;imageAspect=0;image=data:image/svg+xml,PHN2ZyB4bWxucz0iaHR0cDovL3d3dy53My5vcmcvMjAwMC9zdmciIHZpZXdCb3g9IjAgMCAxOCAxOCIgaGVpZ2h0PSIxOCIgd2lkdGg9IjE4IiBpZD0iYjc1OTQzYmEtMWEzZi00ODVkLWI0NWQtM2ZlZTAwZWQ3ZTVlIj48ZGVmcz48bGluZWFyR3JhZGllbnQgZ3JhZGllbnRVbml0cz0idXNlclNwYWNlT25Vc2UiIHkyPSIxNy4yNSIgeDI9IjkuMDEiIHkxPSIwLjc1IiB4MT0iOS4wMSIgaWQ9ImZlNWNlNDNmLTI4MjMtNDYxNy1iYjU0LTU3ZGY5ZTc3ODM3MiI+PHN0b3Agc3RvcC1jb2xvcj0iIzVlYTBlZiIgb2Zmc2V0PSIwIi8+PHN0b3Agc3RvcC1jb2xvcj0iIzU1OWNlYyIgb2Zmc2V0PSIwLjE4Ii8+PHN0b3Agc3RvcC1jb2xvcj0iIzNjOTFlNSIgb2Zmc2V0PSIwLjQ3Ii8+PHN0b3Agc3RvcC1jb2xvcj0iIzEzODBkYSIgb2Zmc2V0PSIwLjg0Ii8+PHN0b3Agc3RvcC1jb2xvcj0iIzAwNzhkNCIgb2Zmc2V0PSIxIi8+PC9saW5lYXJHcmFkaWVudD48L2RlZnM+PHRpdGxlPkljb24tbmV0d29ya2luZy02NzwvdGl0bGU+PHBhdGggZmlsbD0iIzAwNzhkNCIgZD0iTTE2LjM2LDguNGMwLDQuODQtNS44NSw4Ljc0LTcuMTIsOS41M2EuNDYuNDYsMCwwLDEtLjQ4LDBjLTEuMjctLjc5LTcuMTItNC42OS03LjEyLTkuNTNWMi41OGEuNDYuNDYsMCwwLDEsLjQ1LS40NkM2LjY0LDIsNS41OSwwLDksMHMyLjM2LDIsNi45MSwyLjEyYS40Ni40NiwwLDAsMSwuNDUuNDZaIi8+PHBhdGggZmlsbD0iIzZiYjlmMiIgZD0iTTE1Ljc1LDguNDVjMCw0LjQ0LTUuMzYsOC02LjUzLDguNzRhLjQzLjQzLDAsMCwxLS40NCwwYy0xLjE3LS43Mi02LjUzLTQuMy02LjUzLTguNzRWMy4xMWEuNDIuNDIsMCwwLDEsLjQxLS40MkM2LjgzLDIuNTgsNS44Ny43NSw5LC43NXMyLjE3LDEuODMsNi4zNCwxLjk0YS40Mi40MiwwLDAsMSwuNDEuNDJaIi8+PHBhdGggZmlsbD0idXJsKCNmZTVjZTQzZi0yODIzLTQ2MTctYmI1NC01N2RmOWU3NzgzNzIpIiBkPSJNOSw5Vi43NWMzLjEzLDAsMi4xNywxLjgzLDYuMzQsMS45NGEuNDMuNDMsMCwwLDEsLjQxLjQzVjguNDZhNC44OSw0Ljg5LDAsMCwxLDAsLjU0Wk05LDlIMi4yOGMuNCw0LjE4LDUuMzgsNy41LDYuNSw4LjE5YS4zOS4zOSwwLDAsMCwuMTguMDZIOVoiLz48cGF0aCBmaWxsPSIjNTBlNmZmIiBkPSJNMi42NiwyLjY5QzYuODMsMi41OCw1Ljg3Ljc1LDksLjc1VjlIMi4yOGE0Ljg5LDQuODksMCwwLDEsMC0uNTRWMy4xMkEuNDMuNDMsMCwwLDEsMi42NiwyLjY5WiIvPjxwYXRoIGZpbGw9IiM1MGU2ZmYiIGQ9Ik0xNS43Miw5SDl2OC4yNUg5YS4zOS4zOSwwLDAsMCwuMTgtLjA2QzEwLjM0LDE2LjUsMTUuMzIsMTMuMTgsMTUuNzIsOVoiLz48L3N2Zz4=;" parent="1" vertex="1">
          <mxGeometry x="2432" y="700" width="30" height="30" as="geometry" />
        </mxCell>
        <mxCell id="0DpliHtyRFmvJdhoWtfq-39" value="Peering" style="text;html=1;strokeColor=#A50040;fillColor=#d80073;align=center;verticalAlign=middle;whiteSpace=wrap;rounded=1;fontColor=#ffffff;" parent="1" vertex="1">
          <mxGeometry x="2462" y="725" width="54.5" height="20" as="geometry" />
        </mxCell>
        <mxCell id="0DpliHtyRFmvJdhoWtfq-40" value="Open ports&lt;br&gt;8080,&lt;br&gt;RDP,&lt;br&gt;SSH" style="text;html=1;strokeColor=none;fillColor=none;align=center;verticalAlign=middle;whiteSpace=wrap;rounded=0;" parent="1" vertex="1">
          <mxGeometry x="2607.5" y="540" width="70" height="10" as="geometry" />
        </mxCell>
        <mxCell id="0DpliHtyRFmvJdhoWtfq-43" value="&lt;font color=&quot;#ff0000&quot;&gt;Attack Surface&lt;/font&gt;" style="text;html=1;strokeColor=none;fillColor=none;align=center;verticalAlign=middle;whiteSpace=wrap;rounded=0;" parent="1" vertex="1">
          <mxGeometry x="2477.5" y="450" width="90" height="30" as="geometry" />
        </mxCell>
        <mxCell id="0DpliHtyRFmvJdhoWtfq-45" value="" style="endArrow=classic;html=1;rounded=0;strokeColor=#FF0000;" parent="1" edge="1">
          <mxGeometry width="50" height="50" relative="1" as="geometry">
            <mxPoint x="2679.7" y="600" as="sourcePoint" />
            <mxPoint x="2680" y="681" as="targetPoint" />
          </mxGeometry>
        </mxCell>
        <mxCell id="0DpliHtyRFmvJdhoWtfq-46" value="&lt;font style=&quot;font-size: 9px;&quot;&gt;The public APIS of the VM are exposed to the interned, and it could be&amp;nbsp; and attack surface for the hackers that can access to the VM to makes data breach or event shutdown the vm&lt;/font&gt;" style="text;html=1;strokeColor=none;fillColor=none;align=center;verticalAlign=middle;whiteSpace=wrap;rounded=0;" parent="1" vertex="1">
          <mxGeometry x="2442.5" y="465" width="165" height="85" as="geometry" />
        </mxCell>
        <mxCell id="0DpliHtyRFmvJdhoWtfq-47" style="edgeStyle=orthogonalEdgeStyle;rounded=0;orthogonalLoop=1;jettySize=auto;html=1;exitX=1;exitY=0.5;exitDx=0;exitDy=0;entryX=0.5;entryY=0;entryDx=0;entryDy=0;opacity=50;fillColor=#60a917;strokeColor=#2D7600;" parent="1" source="0DpliHtyRFmvJdhoWtfq-49" target="0DpliHtyRFmvJdhoWtfq-29" edge="1">
          <mxGeometry relative="1" as="geometry">
            <Array as="points">
              <mxPoint x="2722.5" y="707" />
              <mxPoint x="2760.5" y="707" />
            </Array>
          </mxGeometry>
        </mxCell>
        <mxCell id="0DpliHtyRFmvJdhoWtfq-48" style="edgeStyle=orthogonalEdgeStyle;rounded=0;orthogonalLoop=1;jettySize=auto;html=1;exitX=0;exitY=0.25;exitDx=0;exitDy=0;entryX=1;entryY=0.25;entryDx=0;entryDy=0;opacity=50;fillColor=#60a917;strokeColor=#2D7600;" parent="1" source="0DpliHtyRFmvJdhoWtfq-49" target="0DpliHtyRFmvJdhoWtfq-26" edge="1">
          <mxGeometry relative="1" as="geometry">
            <Array as="points">
              <mxPoint x="2656.5" y="686" />
            </Array>
          </mxGeometry>
        </mxCell>
        <mxCell id="0DpliHtyRFmvJdhoWtfq-49" value="" style="shape=image;verticalLabelPosition=bottom;labelBackgroundColor=default;verticalAlign=top;aspect=fixed;imageAspect=0;image=data:image/svg+xml,PHN2ZyB4bWxucz0iaHR0cDovL3d3dy53My5vcmcvMjAwMC9zdmciIHZpZXdCb3g9IjAgMCAxOCAxOCIgaGVpZ2h0PSIxOCIgd2lkdGg9IjE4IiBpZD0iZWM2ZGM1ZTgtNTk1OC00Njg4LTgzM2ItZjk1ZWMwNjFhNGE4Ij48ZGVmcz48bGluZWFyR3JhZGllbnQgZ3JhZGllbnRVbml0cz0idXNlclNwYWNlT25Vc2UiIHkyPSIxLjAyIiB4Mj0iOC44NiIgeTE9IjEzLjAyIiB4MT0iOC44NiIgaWQ9ImFiZTNlMGZkLWY1ZjUtNGQ2Ny04Y2NhLWNiNjMxNGQ1ZGE2MiI+PHN0b3Agc3RvcC1jb2xvcj0iIzAwNzhkNCIgb2Zmc2V0PSIwIi8+PHN0b3Agc3RvcC1jb2xvcj0iIzVlYTBlZiIgb2Zmc2V0PSIwLjgyIi8+PC9saW5lYXJHcmFkaWVudD48bGluZWFyR3JhZGllbnQgZ3JhZGllbnRVbml0cz0idXNlclNwYWNlT25Vc2UiIHkyPSIxMy4wMiIgeDI9IjguODYiIHkxPSIxNy42NSIgeDE9IjguODYiIGlkPSJhNDljMmZkMi03YzcxLTRkNjMtYjY4Zi1kZGY1NTk0ZGQwYjgiPjxzdG9wIHN0b3AtY29sb3I9IiMxNDkwZGYiIG9mZnNldD0iMCIvPjxzdG9wIHN0b3AtY29sb3I9IiMxZjU2YTMiIG9mZnNldD0iMC45OCIvPjwvbGluZWFyR3JhZGllbnQ+PC9kZWZzPjx0aXRsZT5JY29uLWNvbXB1dGUtMjg8L3RpdGxlPjxyZWN0IGZpbGw9InVybCgjYWJlM2UwZmQtZjVmNS00ZDY3LThjY2EtY2I2MzE0ZDVkYTYyKSIgcng9IjAuNiIgaGVpZ2h0PSIxMiIgd2lkdGg9IjE4IiB5PSIxLjAyIiB4PSItMC4xNCIvPjxyZWN0IGZpbGw9IiNmZmYiIHJ4PSIwLjMzIiBoZWlnaHQ9IjEwIiB3aWR0aD0iMTYiIHk9IjIuMDIiIHg9IjAuODYiLz48cG9seWdvbiBmaWxsPSIjMDA3OGQ0IiBwb2ludHM9IjExLjg2IDUuMjcgMTEuODYgOC43NiA4Ljg2IDEwLjUyIDguODYgNy4wMiAxMS44NiA1LjI3Ii8+PHBvbHlnb24gZmlsbD0iIzgzYjlmOSIgcG9pbnRzPSIxMS44NiA1LjI3IDguODYgNy4wMyA1Ljg2IDUuMjcgOC44NiAzLjUyIDExLjg2IDUuMjciLz48cG9seWdvbiBmaWxsPSIjNWVhMGVmIiBwb2ludHM9IjguODYgNy4wMyA4Ljg2IDEwLjUyIDUuODYgOC43NiA1Ljg2IDUuMjcgOC44NiA3LjAzIi8+PHBvbHlnb24gb3BhY2l0eT0iMC4yIiBmaWxsPSIjODNiOWY5IiBwb2ludHM9IjUuODYgOC43NiA4Ljg2IDcuMDIgOC44NiAxMC41MiA1Ljg2IDguNzYiLz48cG9seWdvbiBvcGFjaXR5PSIwLjIiIGZpbGw9IiM1ZWEwZWYiIHBvaW50cz0iMTEuODYgOC43NiA4Ljg2IDcuMDIgOC44NiAxMC41MiAxMS44NiA4Ljc2Ii8+PHBhdGggZmlsbD0idXJsKCNhNDljMmZkMi03YzcxLTRkNjMtYjY4Zi1kZGY1NTk0ZGQwYjgpIiBkPSJNMTIuNDYsMTYuNjVjLTEuNzctLjI4LTEuODQtMS41Ny0xLjg0LTMuNjNINy4wOWMwLDIuMDYtLjA3LDMuMzUtMS44NCwzLjYzYTEsMSwwLDAsMC0uODksMWg5QTEsMSwwLDAsMCwxMi40NiwxNi42NVoiLz48L3N2Zz4=;fillOpacity=50;" parent="1" vertex="1">
          <mxGeometry x="2657" y="685" width="45" height="45" as="geometry" />
        </mxCell>
        <mxCell id="0DpliHtyRFmvJdhoWtfq-50" value="VM" style="text;html=1;strokeColor=none;fillColor=none;align=center;verticalAlign=middle;whiteSpace=wrap;rounded=0;fillOpacity=50;strokeOpacity=50;opacity=50;" parent="1" vertex="1">
          <mxGeometry x="2649.5" y="725" width="60" height="20" as="geometry" />
        </mxCell>
        <mxCell id="0DpliHtyRFmvJdhoWtfq-51" value="&lt;font style=&quot;font-size: 10px;&quot; color=&quot;#33ffff&quot;&gt;Jump Box&lt;/font&gt;" style="text;html=1;strokeColor=none;fillColor=none;align=center;verticalAlign=middle;whiteSpace=wrap;rounded=0;opacity=50;" parent="1" vertex="1">
          <mxGeometry x="2640" y="730" width="80" height="20" as="geometry" />
        </mxCell>
        <mxCell id="0DpliHtyRFmvJdhoWtfq-52" value="&lt;font style=&quot;font-size: 9px;&quot;&gt;This is how the infraestructure looks with a jump box, in this case is not implemented, the green arrows are not included in the architecture&lt;/font&gt;" style="text;html=1;strokeColor=default;fillColor=none;align=center;verticalAlign=middle;whiteSpace=wrap;rounded=1;" parent="1" vertex="1">
          <mxGeometry x="2550" y="590" width="120" height="90" as="geometry" />
        </mxCell>
        <mxCell id="0DpliHtyRFmvJdhoWtfq-55" value="" style="rounded=1;whiteSpace=wrap;html=1;dashed=1;dashPattern=8 8;" parent="1" vertex="1">
          <mxGeometry x="2462.5" y="274" width="120" height="76" as="geometry" />
        </mxCell>
        <mxCell id="0DpliHtyRFmvJdhoWtfq-54" value="" style="shape=image;verticalLabelPosition=bottom;labelBackgroundColor=default;verticalAlign=top;aspect=fixed;imageAspect=0;image=data:image/svg+xml,PHN2ZyB4bWxucz0iaHR0cDovL3d3dy53My5vcmcvMjAwMC9zdmciIHZpZXdCb3g9IjAgMCAxOCAxOCIgaGVpZ2h0PSIxOCIgd2lkdGg9IjE4IiBpZD0iYTI2NGQ2NTUtMWRiYi00OWQyLWFiMTEtNTY2MTYzNmRjYWMzIj48ZGVmcz48bGluZWFyR3JhZGllbnQgZ3JhZGllbnRVbml0cz0idXNlclNwYWNlT25Vc2UiIGdyYWRpZW50VHJhbnNmb3JtPSJ0cmFuc2xhdGUoMi4wMyAtMS4xNSkgcm90YXRlKC0wLjA4KSIgeTI9IjkiIHgyPSIxMC43IiB5MT0iMTEuMzIiIHgxPSIxMC43IiBpZD0iYTg1MmU2MTEtNTg0OS00NjcwLTg5Y2UtNTE4ZGRmN2VkZWFlIj48c3RvcCBzdG9wLWNvbG9yPSIjMDA3OGQ0IiBvZmZzZXQ9IjAiLz48c3RvcCBzdG9wLWNvbG9yPSIjNWVhMGVmIiBvZmZzZXQ9IjAuODIiLz48L2xpbmVhckdyYWRpZW50PjxsaW5lYXJHcmFkaWVudCBncmFkaWVudFVuaXRzPSJ1c2VyU3BhY2VPblVzZSIgeTI9IjkiIHgyPSI3IiB5MT0iMTEuMzIiIHgxPSI2Ljk5IiBpZD0iYTIzNTA4NjItZjk5Ny00YzU3LWFhZDAtYzE2ZjljYTRjMGMzIj48c3RvcCBzdG9wLWNvbG9yPSIjMDA3OGQ0IiBvZmZzZXQ9IjAiLz48c3RvcCBzdG9wLWNvbG9yPSIjNWVhMGVmIiBvZmZzZXQ9IjAuODIiLz48L2xpbmVhckdyYWRpZW50PjxsaW5lYXJHcmFkaWVudCBncmFkaWVudFVuaXRzPSJ1c2VyU3BhY2VPblVzZSIgeTI9IjkiIHgyPSIzLjMiIHkxPSIxMS4zMiIgeDE9IjMuMjkiIGlkPSJlNTQ3MzY5NS0wNjhhLTQ0ZmYtYjNkYy05MjcxNTkyMjZhOGUiPjxzdG9wIHN0b3AtY29sb3I9IiMwMDc4ZDQiIG9mZnNldD0iMCIvPjxzdG9wIHN0b3AtY29sb3I9IiM1ZWEwZWYiIG9mZnNldD0iMC44MiIvPjwvbGluZWFyR3JhZGllbnQ+PC9kZWZzPjx0aXRsZT5JY29uLW5ldHdvcmtpbmctNzU8L3RpdGxlPjxjaXJjbGUgZmlsbD0idXJsKCNhODUyZTYxMS01ODQ5LTQ2NzAtODljZS01MThkZGY3ZWRlYWUpIiByPSIxLjE2IiBjeT0iOC45OSIgY3g9IjEyLjc0Ii8+PGNpcmNsZSBmaWxsPSJ1cmwoI2EyMzUwODYyLWY5OTctNGM1Ny1hYWQwLWMxNmY5Y2E0YzBjMykiIHI9IjEuMTYiIGN5PSI5IiBjeD0iOS4wNCIvPjxjaXJjbGUgZmlsbD0idXJsKCNlNTQ3MzY5NS0wNjhhLTQ0ZmYtYjNkYy05MjcxNTkyMjZhOGUpIiByPSIxLjE2IiBjeT0iOSIgY3g9IjUuMzQiLz48cGF0aCBmaWxsPSIjNTBlNmZmIiB0cmFuc2Zvcm09InRyYW5zbGF0ZSgxMy4xOCAxNi45Mykgcm90YXRlKDEzNC45MikiIGQ9Ik0yLjYxLDcuMjhoLjk0YS4zLjMsMCwwLDEsLjMuM3Y2Ljk0YS42LjYsMCwwLDEtLjYuNkgyLjMxYTAsMCwwLDAsMSwwLDBWNy41OEEuMy4zLDAsMCwxLDIuNjEsNy4yOFoiLz48cGF0aCBmaWxsPSIjMTQ5MGRmIiB0cmFuc2Zvcm09InRyYW5zbGF0ZSg1LjY2IC0wLjE2KSByb3RhdGUoNDQuOTIpIiBkPSJNMi41NiwyLjkxSDMuNWEuMy4zLDAsMCwxLC4zLjN2Ny40M2EwLDAsMCwwLDEsMCwwSDIuODZhLjYuNiwwLDAsMS0uNi0uNlYzLjIxYS4zLjMsMCwwLDEsLjMtLjNaIi8+PHBhdGggZmlsbD0iIzUwZTZmZiIgdHJhbnNmb3JtPSJ0cmFuc2xhdGUoMTIuMzIgLTcuMjgpIHJvdGF0ZSg0NS4wOCkiIGQ9Ik0xNC4xNSw3LjI4aC45NGEuNi42LDAsMCwxLC42LjZ2Ni45NGEuMy4zLDAsMCwxLS4zLjNoLS45NGEuMy4zLDAsMCwxLS4zLS4zVjcuMjhhMCwwLDAsMCwxLDAsMFoiLz48cGF0aCBmaWxsPSIjMTQ5MGRmIiB0cmFuc2Zvcm09InRyYW5zbGF0ZSgzMC4zNiAwLjk5KSByb3RhdGUoMTM1LjA4KSIgZD0iTTE0LjgxLDIuOTFoLjk0YTAsMCwwLDAsMSwwLDB2Ny40M2EuMy4zLDAsMCwxLS4zLjNIMTQuNWEuMy4zLDAsMCwxLS4zLS4zVjMuNTFhLjYuNiwwLDAsMSwuNi0uNloiLz48L3N2Zz4=;" parent="1" vertex="1">
          <mxGeometry x="2567.5" y="255" width="34" height="34" as="geometry" />
        </mxCell>
        <mxCell id="0DpliHtyRFmvJdhoWtfq-61" style="edgeStyle=orthogonalEdgeStyle;rounded=0;orthogonalLoop=1;jettySize=auto;html=1;exitX=0;exitY=0.5;exitDx=0;exitDy=0;entryX=0.5;entryY=0;entryDx=0;entryDy=0;" parent="1" source="0DpliHtyRFmvJdhoWtfq-53" target="0DpliHtyRFmvJdhoWtfq-32" edge="1">
          <mxGeometry relative="1" as="geometry" />
        </mxCell>
        <mxCell id="0DpliHtyRFmvJdhoWtfq-53" value="" style="shape=image;verticalLabelPosition=bottom;labelBackgroundColor=default;verticalAlign=top;aspect=fixed;imageAspect=0;image=data:image/svg+xml,PHN2ZyB4bWxucz0iaHR0cDovL3d3dy53My5vcmcvMjAwMC9zdmciIHZpZXdCb3g9IjAgMCAxOCAxOCIgaGVpZ2h0PSIxOCIgd2lkdGg9IjE4IiBpZD0iYWNhYzVhMzQtYTAzMi00OWY5LTkzOTctMzdmNGYxYjRhZTlhIj48ZGVmcz48bGluZWFyR3JhZGllbnQgZ3JhZGllbnRVbml0cz0idXNlclNwYWNlT25Vc2UiIGdyYWRpZW50VHJhbnNmb3JtPSJ0cmFuc2xhdGUoOSAtMy43Mykgcm90YXRlKDQ1KSIgeTI9Ii0wLjQ2IiB4Mj0iOSIgeTE9IjE5LjI1IiB4MT0iOSIgaWQ9ImY2ZDUzOTliLWE1Y2ItNGMwOS05NmNjLTllM2JiMWFmMjM4NiI+PHN0b3Agc3RvcC1jb2xvcj0iIzVlOTYyNCIgb2Zmc2V0PSIwIi8+PHN0b3Agc3RvcC1jb2xvcj0iIzZkYWQyYSIgb2Zmc2V0PSIwLjU1Ii8+PHN0b3Agc3RvcC1jb2xvcj0iIzc2YmMyZCIgb2Zmc2V0PSIxIi8+PC9saW5lYXJHcmFkaWVudD48bGluZWFyR3JhZGllbnQgZ3JhZGllbnRVbml0cz0idXNlclNwYWNlT25Vc2UiIHkyPSI1LjE4IiB4Mj0iNy41MyIgeTE9IjYuNDQiIHgxPSI3LjU0IiBpZD0iYTQzMjQyYTItNGQ5NS00ZjZkLTg4NzAtMjcwMmNlYjZhZWJjIj48c3RvcCBzdG9wLWNvbG9yPSIjY2NjIiBvZmZzZXQ9IjAiLz48c3RvcCBzdG9wLWNvbG9yPSIjZDdkN2Q3IiBvZmZzZXQ9IjAuMTIiLz48c3RvcCBzdG9wLWNvbG9yPSIjZWJlYmViIiBvZmZzZXQ9IjAuNDIiLz48c3RvcCBzdG9wLWNvbG9yPSIjZjhmOGY4IiBvZmZzZXQ9IjAuNzIiLz48c3RvcCBzdG9wLWNvbG9yPSIjZmNmY2ZjIiBvZmZzZXQ9IjEiLz48L2xpbmVhckdyYWRpZW50PjxsaW5lYXJHcmFkaWVudCBocmVmPSIjYTQzMjQyYTItNGQ5NS00ZjZkLTg4NzAtMjcwMmNlYjZhZWJjIiB5Mj0iNi41NyIgeDI9IjkuMzYiIHkxPSI3LjY5IiB4MT0iOS4zNiIgaWQ9ImVlZGNlNmRkLTcwNmEtNDNjNC1hYzY2LTY2YjczNTc4MjIxZCIvPjwvZGVmcz48cmVjdCBmaWxsPSJ1cmwoI2Y2ZDUzOTliLWE1Y2ItNGMwOS05NmNjLTllM2JiMWFmMjM4NikiIHRyYW5zZm9ybT0idHJhbnNsYXRlKC0zLjczIDkpIHJvdGF0ZSgtNDUpIiByeD0iMC41NyIgaGVpZ2h0PSIxMi4zNSIgd2lkdGg9IjEyLjM1IiB5PSIyLjgyIiB4PSIyLjgyIi8+PGc+PHBhdGggZmlsbD0iI2ZmZiIgZD0iTTEwLjg5LDEwLjUxaDIuODRhLjExLjExLDAsMCwwLC4xLS4xMVY3LjU3YS4xLjEsMCwwLDAtLjE4LS4wN2wtLjc4Ljc4LDAsLjA1YS4xLjEsMCwwLDEtLjE0LDBMOS4yNiw0LjkxYS4xLjEsMCwwLDAtLjE0LDBsLS44OC44OGEuMTEuMTEsMCwwLDAsMCwuMTVsMy40MSwzLjQxYS4xMS4xMSwwLDAsMSwwLC4xNWwtLjA1LjA1LS43OC43OEEuMTEuMTEsMCwwLDAsMTAuODksMTAuNTFaIi8+PHBhdGggZmlsbD0iI2ZmZiIgZD0iTTYuOTIsMTAuNTFINC4wOEEuMTEuMTEsMCwwLDEsNCwxMC40VjcuNTdhLjEuMSwwLDAsMSwuMTctLjA3bC43OS43OCwwLC4wNWEuMS4xLDAsMCwwLC4xNCwwTDguNTUsNC45MWEuMS4xLDAsMCwxLC4xNCwwbC44OC44OGEuMTEuMTEsMCwwLDEsMCwuMTVMNi4xNiw5LjM1YS4xMS4xMSwwLDAsMCwwLC4xNWwwLC4wNS43OC43OEEuMTEuMTEsMCwwLDEsNi45MiwxMC41MVoiLz48cGF0aCBmaWxsPSIjZmZmIiBkPSJNNi44MiwxMy4wN2wyLDJhLjEuMSwwLDAsMCwuMTQsMGwyLTJhLjEuMSwwLDAsMC0uMDctLjE3SDkuNzJhLjExLjExLDAsMCwxLS4xLS4xVjhhLjEuMSwwLDAsMC0uMS0uMTFIOC4yOEEuMTEuMTEsMCwwLDAsOC4xNyw4VjEyLjhhLjEuMSwwLDAsMS0uMS4xSDYuODlBLjEuMSwwLDAsMCw2LjgyLDEzLjA3WiIvPjwvZz48cGF0aCBmaWxsPSIjMDA3OGQ0IiBkPSJNMTAuNjUsNy43OEEyLjcxLDIuNzEsMCwwLDEsNy4zMywzLjVsMCwwYTIuNzEsMi43MSwwLDAsMSwzLjI5LDQuMyIgaWQ9ImFjMGE5YzBjLTJlOGMtNDg0My1iMDJiLTJmYWRmNzZiMjdkMCIvPjxjaXJjbGUgZmlsbD0idXJsKCNhNDMyNDJhMi00ZDk1LTRmNmQtODg3MC0yNzAyY2ViNmFlYmMpIiByPSIwLjg3IiBjeT0iNS41NSIgY3g9IjcuNTMiLz48Zz48cGF0aCBvcGFjaXR5PSIwLjU1IiBmaWxsPSIjZjJmMmYyIiBkPSJNNi42Nyw3bC4xOS4zTDcsNy41YTUuOTQsNS45NCwwLDAsMSwuMzQtMS4xLjg1Ljg1LDAsMCwxLS40NS0uMjNBNi43MSw2LjcxLDAsMCwwLDYuNjcsN1oiLz48cGF0aCBvcGFjaXR5PSIwLjU1IiBmaWxsPSIjZjJmMmYyIiBkPSJNNy4yNCw0LjczQTQsNCwwLDAsMSw3LDMuOGEyLjQ4LDIuNDgsMCwwLDAtLjM0LjQ2QTMuNTEsMy41MSwwLDAsMCw2Ljg2LDUsMSwxLDAsMCwxLDcuMjQsNC43M1oiLz48cGF0aCBvcGFjaXR5PSIwLjU1IiBmaWxsPSIjZjJmMmYyIiBkPSJNOC4xNyw2LjE0YS44Ny44NywwLDAsMS0uNDguMjYsNC42Miw0LjYyLDAsMCwwLC40Ni40MSw0LjE0LDQuMTQsMCwwLDAsLjY1LjM5VjcuMTNBLjUzLjUzLDAsMCwxLDksNi43MywzLjYsMy42LDAsMCwxLDguMTcsNi4xNFoiLz48cGF0aCBvcGFjaXR5PSIwLjU1IiBmaWxsPSIjZjJmMmYyIiBkPSJNMTAuNzksNy4yYTQuMTQsNC4xNCwwLDAsMS0uODctLjF2MGEuNTUuNTUsMCwwLDEtLjE2LjM5LDMuODQsMy44NCwwLDAsMCwxLjA4LjA4LDIuOTMsMi45MywwLDAsMCwuMzctLjQyWiIvPjwvZz48Y2lyY2xlIGZpbGw9InVybCgjZWVkY2U2ZGQtNzA2YS00M2M0LWFjNjYtNjZiNzM1NzgyMjFkKSIgcj0iMC41NiIgY3k9IjcuMTMiIGN4PSI5LjM2Ii8+PGNpcmNsZSBmaWxsPSIjZjJmMmYyIiByPSIwLjYiIGN5PSI1Ljc0IiBjeD0iMTAuNjQiLz48Zz48cGF0aCBvcGFjaXR5PSIwLjU1IiBmaWxsPSIjZjJmMmYyIiBkPSJNOS4yMSw0LjQyQTQuMjksNC4yOSwwLDAsMSwxMS4wOSw0YTIuMjQsMi4yNCwwLDAsMC0uNDctLjQ1LDQuNSw0LjUsMCwwLDAtMS40OS4zNWMtLjEsMC0uMTkuMTEtLjI5LjE2aDBhNS44NSw1Ljg1LDAsMCwxLS42My0uOTNsLS4zNC4xM2E1LjM1LDUuMzUsMCwwLDAsLjY1LDEsMy45MiwzLjkyLDAsMCwwLS42Ny41NS44Ny44NywwLDAsMSwuNDMuMzUsMy4yOSwzLjI5LDAsMCwxLC42MS0uNDgsOS4xNiw5LjE2LDAsMCwwLDEuMTcsMSwuNTcuNTcsMCwwLDEsLjItLjMyQTguNDQsOC40NCwwLDAsMSw5LjIxLDQuNDJaIi8+PHBhdGggb3BhY2l0eT0iMC41NSIgZmlsbD0iI2YyZjJmMiIgZD0iTTExLjU1LDYuMDloMGwtLjEsMGgwbC0uMDgsMGgwbC0uMS0uMDZhLjYxLjYxLDAsMCwxLS4yLjNsLjEyLjA3aDBsLjExLjA2aDBsLjI4LjE0aDBhMy41OCwzLjU4LDAsMCwwLC4wOS0uMzVaIi8+PC9nPjxjaXJjbGUgZmlsbD0iI2YyZjJmMiIgcj0iMC44NyIgY3k9IjUuNTUiIGN4PSI3LjUzIi8+PGNpcmNsZSBmaWxsPSIjZjJmMmYyIiByPSIwLjU2IiBjeT0iNy4xMyIgY3g9IjkuMzYiLz48L3N2Zz4=;" parent="1" vertex="1">
          <mxGeometry x="2502" y="282" width="48" height="48" as="geometry" />
        </mxCell>
        <mxCell id="0DpliHtyRFmvJdhoWtfq-57" value="App Gateway" style="text;html=1;strokeColor=none;fillColor=none;align=center;verticalAlign=middle;whiteSpace=wrap;rounded=0;" parent="1" vertex="1">
          <mxGeometry x="2479.75" y="322.5" width="92.5" height="30" as="geometry" />
        </mxCell>
        <mxCell id="0DpliHtyRFmvJdhoWtfq-59" value="Peering" style="text;html=1;strokeColor=#A50040;fillColor=#d80073;align=center;verticalAlign=middle;whiteSpace=wrap;rounded=1;fontColor=#ffffff;" parent="1" vertex="1">
          <mxGeometry x="2607.5" y="315" width="54.5" height="20" as="geometry" />
        </mxCell>
        <mxCell id="0DpliHtyRFmvJdhoWtfq-44" value="" style="endArrow=classic;html=1;rounded=0;entryX=0.5;entryY=0;entryDx=0;entryDy=0;strokeColor=#FF0000;exitX=1;exitY=0.5;exitDx=0;exitDy=0;" parent="1" source="0DpliHtyRFmvJdhoWtfq-53" edge="1">
          <mxGeometry width="50" height="50" relative="1" as="geometry">
            <mxPoint x="2680" y="310" as="sourcePoint" />
            <mxPoint x="2679.7" y="550" as="targetPoint" />
            <Array as="points">
              <mxPoint x="2680" y="306" />
            </Array>
          </mxGeometry>
        </mxCell>
        <mxCell id="0DpliHtyRFmvJdhoWtfq-62" value="Service&amp;nbsp;&lt;br&gt;Endpoint" style="text;html=1;strokeColor=none;fillColor=none;align=center;verticalAlign=middle;whiteSpace=wrap;rounded=0;fontColor=#FF00FF;" parent="1" vertex="1">
          <mxGeometry x="2226.5" y="320" width="60" height="30" as="geometry" />
        </mxCell>
        <mxCell id="0DpliHtyRFmvJdhoWtfq-63" value="This service endpoint&amp;nbsp;&lt;br&gt;only allows traffic from the app gateway" style="rounded=1;whiteSpace=wrap;html=1;" parent="1" vertex="1">
          <mxGeometry x="2250" y="352.5" width="127.5" height="70" as="geometry" />
        </mxCell>
        <mxCell id="Yk7LDbt8gfweT-zW2T4R-1" value="" style="shape=image;verticalLabelPosition=bottom;labelBackgroundColor=default;verticalAlign=top;aspect=fixed;imageAspect=0;image=data:image/svg+xml,PHN2ZyB4bWxucz0iaHR0cDovL3d3dy53My5vcmcvMjAwMC9zdmciIHZpZXdCb3g9IjAgMCAxOCAxOCIgaGVpZ2h0PSIxOCIgd2lkdGg9IjE4Ij48ZGVmcz48bGluZWFyR3JhZGllbnQgZ3JhZGllbnRVbml0cz0idXNlclNwYWNlT25Vc2UiIHkyPSIyLjM4MyIgeDI9IjcuNTE2IiB5MT0iMTUuOTQzIiB4MT0iOS45MDgiIGlkPSJmNjdkMTU4NS02MTY0LTRhZDAtYjJkZC1mOWNjNTliMjk2OWYiPjxzdG9wIHN0b3AtY29sb3I9IiMwMDc4ZDQiIG9mZnNldD0iMC4xNSIvPjxzdG9wIHN0b3AtY29sb3I9IiM1ZWEwZWYiIG9mZnNldD0iMC44Ii8+PHN0b3Agc3RvcC1jb2xvcj0iIzgzYjlmOSIgb2Zmc2V0PSIxIi8+PC9saW5lYXJHcmFkaWVudD48L2RlZnM+PGcgaWQ9ImE0ZmQxODY4LTU0ZmUtNGNhNi04ZmY2LTNiMDE4NjZkYzI3YiI+PHBhdGggZmlsbD0idXJsKCNmNjdkMTU4NS02MTY0LTRhZDAtYjJkZC1mOWNjNTliMjk2OWYpIiBkPSJNMTQuNDksNy4xNUE1LjE0Nyw1LjE0NywwLDAsMCw5LjI0LDIuMTY0LDUuMjcyLDUuMjcyLDAsMCwwLDQuMjE2LDUuNjUzLDQuODY5LDQuODY5LDAsMCwwLDAsMTAuNGE0Ljk0Niw0Ljk0NiwwLDAsMCw1LjA2OCw0LjgxNEgxMy44MkE0LjI5Miw0LjI5MiwwLDAsMCwxOCwxMS4xMjcsNC4xMDUsNC4xMDUsMCwwLDAsMTQuNDksNy4xNVoiLz48cGF0aCBmaWxsPSIjZjJmMmYyIiBkPSJNMTIuOSwxMS40VjhIMTJ2NC4xM2gyLjQ2VjExLjRaTTUuNzYsOS43M2ExLjgyNSwxLjgyNSwwLDAsMS0uNTEtLjMxLjQ0MS40NDEsMCwwLDEtLjEyLS4zMi4zNDIuMzQyLDAsMCwxLC4xNS0uMy42ODMuNjgzLDAsMCwxLC40Mi0uMTIsMS42MiwxLjYyLDAsMCwxLDEsLjI5VjguMTFhMi41OCwyLjU4LDAsMCwwLTEtLjE2LDEuNjQxLDEuNjQxLDAsMCwwLTEuMDkuMzQsMS4wOCwxLjA4LDAsMCwwLS40Mi44OWMwLC41MS4zMi45MSwxLDEuMjFhMi45MDcsMi45MDcsMCwwLDEsLjYyLjM2LjQxOS40MTksMCwwLDEsLjE1LjMyLjM4MS4zODEsMCwwLDEtLjE2LjMxLjgwNi44MDYsMCwwLDEtLjQ1LjExLDEuNjYsMS42NiwwLDAsMS0xLjA5LS40MlYxMmEyLjE3MywyLjE3MywwLDAsMCwxLjA3LjI0LDEuODc3LDEuODc3LDAsMCwwLDEuMTgtLjMzQTEuMDgsMS4wOCwwLDAsMCw2Ljg0LDExYTEuMDQ4LDEuMDQ4LDAsMCwwLS4yNS0uN0EyLjQyNSwyLjQyNSwwLDAsMCw1Ljc2LDkuNzNaTTExLDExLjMyQTIuMTkxLDIuMTkxLDAsMCwwLDExLDlhMS44MDgsMS44MDgsMCwwLDAtLjctLjc1LDIsMiwwLDAsMC0xLS4yNiwyLjExMiwyLjExMiwwLDAsMC0xLjA4LjI3QTEuODU2LDEuODU2LDAsMCwwLDcuNDksOWEyLjQ2NSwyLjQ2NSwwLDAsMC0uMjYsMS4xNCwyLjI1NiwyLjI1NiwwLDAsMCwuMjQsMSwxLjc2NiwxLjc2NiwwLDAsMCwuNjkuNzQsMi4wNTYsMi4wNTYsMCwwLDAsMSwuM2wuODYsMWgxLjIxTDEwLDEyLjA4QTEuNzksMS43OSwwLDAsMCwxMSwxMS4zMlptLTEtLjI1YS45NDEuOTQxLDAsMCwxLS43Ni4zNS45MTYuOTE2LDAsMCwxLS43Ni0uMzYsMS41MjMsMS41MjMsMCwwLDEtLjI5LTEsMS41MjksMS41MjksMCwwLDEsLjI5LTEsMSwxLDAsMCwxLC43OC0uMzcuODY5Ljg2OSwwLDAsMSwuNzUuMzcsMS42MTksMS42MTksMCwwLDEsLjI3LDFBMS40NTksMS40NTksMCwwLDEsMTAsMTEuMDdaIi8+PC9nPuKAiyYjeGE7PC9zdmc+;" parent="1" vertex="1">
          <mxGeometry x="437" y="743" width="77" height="77" as="geometry" />
        </mxCell>
        <mxCell id="Yk7LDbt8gfweT-zW2T4R-3" value="" style="shape=image;verticalLabelPosition=bottom;labelBackgroundColor=default;verticalAlign=top;aspect=fixed;imageAspect=0;image=data:image/svg+xml,PHN2ZyB4bWxucz0iaHR0cDovL3d3dy53My5vcmcvMjAwMC9zdmciIHZpZXdCb3g9IjAgMCAxOCAxOCIgaGVpZ2h0PSIxOCIgd2lkdGg9IjE4IiBpZD0iYjA4OWNmY2EtMGRlMS00NTFjLWExY2EtNjY4MGVhNTBjYjRmIj48ZGVmcz48cmFkaWFsR3JhZGllbnQgZ3JhZGllbnRVbml0cz0idXNlclNwYWNlT25Vc2UiIGdyYWRpZW50VHJhbnNmb3JtPSJ0cmFuc2xhdGUoMTE3LjczOSAxOS42NDQpIHNjYWxlKDEuMDM2IDEuMDI3KSIgcj0iNS45NTQiIGN5PSItMTAuNDA5IiBjeD0iLTEwNS4wMDYiIGlkPSJiMjVkMDgzNi05NjRhLTRjODQtOGMyMC04NTVmNjZlODM0NWUiPjxzdG9wIHN0b3AtY29sb3I9IiM1ZWEwZWYiIG9mZnNldD0iMC4xODMiLz48c3RvcCBzdG9wLWNvbG9yPSIjMDA3OGQ0IiBvZmZzZXQ9IjEiLz48L3JhZGlhbEdyYWRpZW50PjxjbGlwUGF0aCBpZD0iYjM2YzdmNWQtMmVmMS00NzYwLThhMjUtZWViOTY2MWY0ZTQ3Ij48cGF0aCBmaWxsPSJub25lIiBkPSJNMTQuOTY5LDcuNTNBNi4xMzcsNi4xMzcsMCwxLDEsNy41NzQsMi45ODcsNi4xMzcsNi4xMzcsMCwwLDEsMTQuOTY5LDcuNTNaIi8+PC9jbGlwUGF0aD48L2RlZnM+PHRpdGxlPkljb24tZGF0YWJhc2VzLTEyMTwvdGl0bGU+PHBhdGggZmlsbD0iIzUwZTZmZiIgZD0iTTIuOTU0LDUuMjY2YS4xNzUuMTc1LDAsMCwxLS4xNzYtLjE3NmgwQTIuMDEyLDIuMDEyLDAsMCwwLC43NjksMy4wODFhLjE3Ni4xNzYsMCwwLDEtLjE3Ni0uMTc1aDBhLjE3Ni4xNzYsMCwwLDEsLjE3Ni0uMTc2QTIuMDEyLDIuMDEyLDAsMCwwLDIuNzc4LjcyLjE3NS4xNzUsMCwwLDEsMi45NTQuNTQ0aDBBLjE3NS4xNzUsMCwwLDEsMy4xMy43MmgwQTIuMDEyLDIuMDEyLDAsMCwwLDUuMTM5LDIuNzI5YS4xNzUuMTc1LDAsMCwxLC4xNzYuMTc2aDBhLjE3NS4xNzUsMCwwLDEtLjE3Ni4xNzZoMEEyLjAxMSwyLjAxMSwwLDAsMCwzLjEzLDUuMDkuMTc3LjE3NywwLDAsMSwyLjk1NCw1LjI2NloiLz48cGF0aCBmaWxsPSIjNTBlNmZmIiBkPSJNMTUuNjExLDE3LjQ1NmEuMTQxLjE0MSwwLDAsMS0uMTQxLS4xNDFoMGExLjYwOSwxLjYwOSwwLDAsMC0xLjYwNy0xLjYwNy4xNDEuMTQxLDAsMCwxLS4xNDEtLjE0aDBhLjE0MS4xNDEsMCwwLDEsLjE0MS0uMTQxaDBhMS42MDgsMS42MDgsMCwwLDAsMS42MDctMS42MDcuMTQxLjE0MSwwLDAsMSwuMTQxLS4xNDFoMGEuMTQxLjE0MSwwLDAsMSwuMTQxLjE0MWgwYTEuNjA4LDEuNjA4LDAsMCwwLDEuNjA3LDEuNjA3LjE0MS4xNDEsMCwxLDEsMCwuMjgyaDBhMS42MDksMS42MDksMCwwLDAtMS42MDcsMS42MDdBLjE0MS4xNDEsMCwwLDEsMTUuNjExLDE3LjQ1NloiLz48Zz48cGF0aCBmaWxsPSJ1cmwoI2IyNWQwODM2LTk2NGEtNGM4NC04YzIwLTg1NWY2NmU4MzQ1ZSkiIGQ9Ik0xNC45NjksNy41M0E2LjEzNyw2LjEzNywwLDEsMSw3LjU3NCwyLjk4Nyw2LjEzNyw2LjEzNywwLDAsMSwxNC45NjksNy41M1oiLz48ZyBjbGlwLXBhdGg9InVybCgjYjM2YzdmNWQtMmVmMS00NzYwLThhMjUtZWViOTY2MWY0ZTQ3KSI+PHBhdGggZmlsbD0iI2YyZjJmMiIgZD0iTTUuNzA5LDEzLjExNUExLjYzOCwxLjYzOCwwLDEsMCw1LjcxNCw5Ljg0LDEuMzA3LDEuMzA3LDAsMCwwLDUuNzIxLDkuNywxLjY1MSwxLjY1MSwwLDAsMCw0LjA2LDguMDY0SDIuODMyYTYuMjUxLDYuMjUxLDAsMCwwLDEuNTk1LDUuMDUxWiIvPjxwYXRoIGZpbGw9IiNmMmYyZjIiIGQ9Ik0xNS4wNDUsNy44MTVjMC0uMDE1LDAtLjAzLS4wMDctLjA0NGE1Ljk3OCw1Ljk3OCwwLDAsMC0xLjQwNi0yLjg4LDEuODI1LDEuODI1LDAsMCwwLS4yODktLjA5LDEuODA2LDEuODA2LDAsMCwwLTIuMywxLjY2MywyLDIsMCwwLDAtLjItLjAxMywxLjczNywxLjczNywwLDAsMC0uNTgxLDMuMzc0LDEuNDUxLDEuNDUxLDAsMCwwLC41NDEuMWgyLjAzQTEzLjQ1MywxMy40NTMsMCwwLDAsMTUuMDQ1LDcuODE1WiIvPjwvZz48L2c+PHBhdGggZmlsbD0iIzUwZTZmZiIgZD0iTTE3LjE5MSwzLjgzMmMtLjYyOS0xLjA0Ny0yLjEtMS40NTUtNC4xNTUtMS4xNDlhMTQuNjA2LDE0LjYwNiwwLDAsMC0yLjA4Mi40NTIsNi40NTYsNi40NTYsMCwwLDEsMS41MjguNzY3Yy4yNDEtLjA1My40ODMtLjExNi43MTUtLjE1MUE3LjQ5LDcuNDksMCwwLDEsMTQuMywzLjY2MmEyLjE4OCwyLjE4OCwwLDAsMSwxLjk1OS43MjVoMGMuMzgzLjYzOC4wNiwxLjcyOS0uODg2LDNhMTYuNzIzLDE2LjcyMywwLDAsMS00Ljc0OSw0LjA1MUExNi43NTgsMTYuNzU4LDAsMCwxLDQuOCwxMy43Yy0xLjU2NC4yMzQtMi42ODIsMC0zLjA2NS0uNjM2cy0uMDYtMS43My44ODYtMi45OTVjLjExNy0uMTU3LjE0Ni0uMjM0LjI3OS0uMzkyYTYuMjUyLDYuMjUyLDAsMCwxLC4wMjYtMS42M0ExMS41NTIsMTEuNTUyLDAsMCwwLDEuNzU2LDkuNDE5Qy41MTcsMTEuMDc2LjE4MSwxMi41NjYuODA5LDEzLjYxM2EzLjE2NSwzLjE2NSwwLDAsMCwyLjksMS4yNDksOC40MzQsOC40MzQsMCwwLDAsMS4yNTEtLjEsMTcuODU1LDE3Ljg1NSwwLDAsMCw2LjIxOS0yLjQsMTcuODA4LDE3LjgwOCwwLDAsMCw1LjA2MS00LjMzMkMxNy40ODMsNi4zNjksMTcuODE5LDQuODgsMTcuMTkxLDMuODMyWiIvPjwvc3ZnPg==;" parent="1" vertex="1">
          <mxGeometry x="-384.5" y="537.5" width="84" height="84" as="geometry" />
        </mxCell>
        <mxCell id="Yk7LDbt8gfweT-zW2T4R-4" value="" style="shape=image;verticalLabelPosition=bottom;labelBackgroundColor=default;verticalAlign=top;aspect=fixed;imageAspect=0;image=data:image/svg+xml,PHN2ZyB4bWxucz0iaHR0cDovL3d3dy53My5vcmcvMjAwMC9zdmciIHZpZXdCb3g9IjAgMCAxOCAxOCIgaGVpZ2h0PSIxOCIgd2lkdGg9IjE4IiBpZD0iYTRjMGE2ZGYtNzA3ZS00YWU3LTliODYtNzQyZTRmOTY1MWUwIj48ZGVmcz48bGluZWFyR3JhZGllbnQgZ3JhZGllbnRVbml0cz0idXNlclNwYWNlT25Vc2UiIHkyPSI3LjM3IiB4Mj0iMTcuNSIgeTE9IjcuMzciIHgxPSI5LjUiIGlkPSJhYzQyMGU0Ny1mMTkwLTQ2ZGYtYWIxNC03ZTFmOGZhM2E5M2QiPjxzdG9wIHN0b3AtY29sb3I9IiMwMDViYTEiIG9mZnNldD0iMCIvPjxzdG9wIHN0b3AtY29sb3I9IiMwMDYwYTkiIG9mZnNldD0iMC4wNyIvPjxzdG9wIHN0b3AtY29sb3I9IiMwMDcxYzgiIG9mZnNldD0iMC4zNiIvPjxzdG9wIHN0b3AtY29sb3I9IiMwMDc4ZDQiIG9mZnNldD0iMC41MiIvPjxzdG9wIHN0b3AtY29sb3I9IiMwMDViYTEiIG9mZnNldD0iMSIvPjwvbGluZWFyR3JhZGllbnQ+PGxpbmVhckdyYWRpZW50IGdyYWRpZW50VW5pdHM9InVzZXJTcGFjZU9uVXNlIiB5Mj0iNy4zNyIgeDI9IjguNSIgeTE9IjcuMzciIHgxPSIwLjUiIGlkPSJhNTFmZmQ4NC1hZjBhLTQ1N2EtYWJlZS0xZjcwNjU2ZGE1NmYiPjxzdG9wIHN0b3AtY29sb3I9IiMwMDViYTEiIG9mZnNldD0iMCIvPjxzdG9wIHN0b3AtY29sb3I9IiMwMDYwYTkiIG9mZnNldD0iMC4wNyIvPjxzdG9wIHN0b3AtY29sb3I9IiMwMDcxYzgiIG9mZnNldD0iMC4zNiIvPjxzdG9wIHN0b3AtY29sb3I9IiMwMDc4ZDQiIG9mZnNldD0iMC41MiIvPjxzdG9wIHN0b3AtY29sb3I9IiMwMDViYTEiIG9mZnNldD0iMSIvPjwvbGluZWFyR3JhZGllbnQ+PGxpbmVhckdyYWRpZW50IGdyYWRpZW50VW5pdHM9InVzZXJTcGFjZU9uVXNlIiB5Mj0iMTEuOSIgeDI9IjEzIiB5MT0iMTEuOSIgeDE9IjUiIGlkPSJiYmI0Yjg3ZS1iMWYwLTQwNDItYjZkNi05YjkxYjVkYWM3OTkiPjxzdG9wIHN0b3AtY29sb3I9IiMwMDViYTEiIG9mZnNldD0iMCIvPjxzdG9wIHN0b3AtY29sb3I9IiMwMDYwYTkiIG9mZnNldD0iMC4wNyIvPjxzdG9wIHN0b3AtY29sb3I9IiMwMDcxYzgiIG9mZnNldD0iMC4zNiIvPjxzdG9wIHN0b3AtY29sb3I9IiMwMDc4ZDQiIG9mZnNldD0iMC41MiIvPjxzdG9wIHN0b3AtY29sb3I9IiMwMDViYTEiIG9mZnNldD0iMSIvPjwvbGluZWFyR3JhZGllbnQ+PC9kZWZzPjx0aXRsZT5JY29uLWRhdGFiYXNlcy0xMzc8L3RpdGxlPjxwYXRoIGZpbGw9InVybCgjYWM0MjBlNDctZjE5MC00NmRmLWFiMTQtN2UxZjhmYTNhOTNkKSIgZD0iTTEzLjUsNC42MmMtMi4yMSwwLTQtLjU3LTQtMS4yOHY2Ljc5YzAsLjY5LDEuNzYsMS4yNiwzLjk1LDEuMjdoLjA1YzIuMjEsMCw0LS41Nyw0LTEuMjdWMy4zNEMxNy41LDQuMDUsMTUuNzEsNC42MiwxMy41LDQuNjJaIi8+PHBhdGggZmlsbD0iI2U4ZThlOCIgZD0iTTE3LjUsMy4zNGMwLC43MS0xLjc5LDEuMjgtNCwxLjI4cy00LS41Ny00LTEuMjgsMS43OS0xLjI3LDQtMS4yNyw0LC41Nyw0LDEuMjciLz48cGF0aCBmaWxsPSIjNTBlNmZmIiBkPSJNMTYuNTcsMy4yNGMwLC40NS0xLjM4LjgxLTMuMDcuODFzLTMuMDctLjM2LTMuMDctLjgxLDEuMzgtLjgxLDMuMDctLjgxLDMuMDcuMzYsMy4wNy44MSIvPjxwYXRoIGZpbGw9IiMzMmJlZGQiIGQ9Ik0xMy41LDMuNDNhOC42NSw4LjY1LDAsMCwwLTIuNDMuMyw3LjgsNy44LDAsMCwwLDIuNDMuMzIsNy44LDcuOCwwLDAsMCwyLjQzLS4zMkE4LjY1LDguNjUsMCwwLDAsMTMuNSwzLjQzWiIvPjxwYXRoIGZpbGw9InVybCgjYTUxZmZkODQtYWYwYS00NTdhLWFiZWUtMWY3MDY1NmRhNTZmKSIgZD0iTTQuNSw0LjYyYy0yLjIxLDAtNC0uNTctNC0xLjI4djYuNzljMCwuNjksMS43NiwxLjI2LDQsMS4yN2gwYzIuMjEsMCw0LS41Nyw0LTEuMjdWMy4zNEM4LjUsNC4wNSw2LjcxLDQuNjIsNC41LDQuNjJaIi8+PHBhdGggZmlsbD0iI2U4ZThlOCIgZD0iTTguNSwzLjM0YzAsLjcxLTEuNzksMS4yOC00LDEuMjhzLTQtLjU3LTQtMS4yOCwxLjc5LTEuMjcsNC0xLjI3LDQsLjU3LDQsMS4yNyIvPjxwYXRoIGZpbGw9IiM1MGU2ZmYiIGQ9Ik03LjU3LDMuMjRjMCwuNDUtMS4zOC44MS0zLjA3Ljgxcy0zLjA3LS4zNi0zLjA3LS44MSwxLjM4LS44MSwzLjA3LS44MSwzLjA3LjM2LDMuMDcuODEiLz48cGF0aCBmaWxsPSIjMzJiZWRkIiBkPSJNNC41LDMuNDNhOC42NSw4LjY1LDAsMCwwLTIuNDMuMyw3LjgsNy44LDAsMCwwLDIuNDMuMzIsNy44LDcuOCwwLDAsMCwyLjQzLS4zMkE4LjY1LDguNjUsMCwwLDAsNC41LDMuNDNaIi8+PGc+PHBhdGggZmlsbD0idXJsKCNiYmI0Yjg3ZS1iMWYwLTQwNDItYjZkNi05YjkxYjVkYWM3OTkpIiBkPSJNOSw5LjE1Yy0yLjIxLDAtNC0uNTctNC0xLjI4djYuNzljMCwuNywxLjc2LDEuMjYsMy45NSwxLjI3SDljMi4yMSwwLDQtLjU3LDQtMS4yN1Y3Ljg3QzEzLDguNTgsMTEuMjEsOS4xNSw5LDkuMTVaIi8+PHBhdGggZmlsbD0iI2U4ZThlOCIgZD0iTTEzLDcuODdjMCwuNzEtMS43OSwxLjI4LTQsMS4yOFM1LDguNTgsNSw3Ljg3LDYuNzksNi42LDksNi42czQsLjU3LDQsMS4yNyIvPjxwYXRoIGZpbGw9IiM1MGU2ZmYiIGQ9Ik0xMi4wNyw3Ljc3YzAsLjQ1LTEuMzguODEtMy4wNy44MXMtMy4wNy0uMzYtMy4wNy0uODFTNy4zMSw3LDksN3MzLjA3LjM2LDMuMDcuODEiLz48cGF0aCBmaWxsPSIjMzJiZWRkIiBkPSJNOSw4YTguNjUsOC42NSwwLDAsMC0yLjQzLjNBNy44LDcuOCwwLDAsMCw5LDguNThhNy44LDcuOCwwLDAsMCwyLjQzLS4zMkE4LjY1LDguNjUsMCwwLDAsOSw4WiIvPjwvZz48L3N2Zz4=;" parent="1" vertex="1">
          <mxGeometry x="441.75" y="670" width="70" height="70" as="geometry" />
        </mxCell>
        <mxCell id="Yk7LDbt8gfweT-zW2T4R-6" value="Cosmos DB" style="text;html=1;strokeColor=none;fillColor=none;align=center;verticalAlign=middle;whiteSpace=wrap;rounded=0;" parent="1" vertex="1">
          <mxGeometry x="-372.5" y="616.5" width="60" height="30" as="geometry" />
        </mxCell>
        <mxCell id="Yk7LDbt8gfweT-zW2T4R-9" value="REDIS" style="text;html=1;strokeColor=none;fillColor=none;align=center;verticalAlign=middle;whiteSpace=wrap;rounded=0;" parent="1" vertex="1">
          <mxGeometry x="444" y="650" width="60" height="30" as="geometry" />
        </mxCell>
        <mxCell id="Yk7LDbt8gfweT-zW2T4R-10" value="AZURE&amp;nbsp;&lt;br&gt;SQL" style="text;html=1;strokeColor=none;fillColor=none;align=center;verticalAlign=middle;whiteSpace=wrap;rounded=0;" parent="1" vertex="1">
          <mxGeometry x="446.75" y="815" width="60" height="30" as="geometry" />
        </mxCell>
        <mxCell id="Yk7LDbt8gfweT-zW2T4R-14" style="edgeStyle=orthogonalEdgeStyle;rounded=0;orthogonalLoop=1;jettySize=auto;html=1;entryX=0;entryY=0.5;entryDx=0;entryDy=0;" parent="1" target="Yk7LDbt8gfweT-zW2T4R-20" edge="1">
          <mxGeometry relative="1" as="geometry">
            <mxPoint x="2098" y="630" as="sourcePoint" />
            <Array as="points">
              <mxPoint x="2098" y="630" />
              <mxPoint x="2168" y="630" />
              <mxPoint x="2168" y="894" />
            </Array>
          </mxGeometry>
        </mxCell>
        <mxCell id="Yk7LDbt8gfweT-zW2T4R-15" style="edgeStyle=orthogonalEdgeStyle;rounded=0;orthogonalLoop=1;jettySize=auto;html=1;entryX=-0.013;entryY=0.623;entryDx=0;entryDy=0;entryPerimeter=0;exitX=1;exitY=0.5;exitDx=0;exitDy=0;" parent="1" source="0DpliHtyRFmvJdhoWtfq-4" target="Yk7LDbt8gfweT-zW2T4R-19" edge="1">
          <mxGeometry relative="1" as="geometry">
            <mxPoint x="2098" y="623.51" as="sourcePoint" />
            <Array as="points">
              <mxPoint x="2168" y="630" />
              <mxPoint x="2168" y="980" />
            </Array>
          </mxGeometry>
        </mxCell>
        <mxCell id="Yk7LDbt8gfweT-zW2T4R-16" style="edgeStyle=orthogonalEdgeStyle;rounded=0;orthogonalLoop=1;jettySize=auto;html=1;entryX=1;entryY=0.5;entryDx=0;entryDy=0;" parent="1" target="Yk7LDbt8gfweT-zW2T4R-20" edge="1">
          <mxGeometry relative="1" as="geometry">
            <mxPoint x="2681" y="748.51" as="sourcePoint" />
            <Array as="points">
              <mxPoint x="2681" y="893.51" />
            </Array>
          </mxGeometry>
        </mxCell>
        <mxCell id="Yk7LDbt8gfweT-zW2T4R-17" style="edgeStyle=orthogonalEdgeStyle;rounded=0;orthogonalLoop=1;jettySize=auto;html=1;entryX=1;entryY=0.5;entryDx=0;entryDy=0;" parent="1" target="Yk7LDbt8gfweT-zW2T4R-19" edge="1">
          <mxGeometry relative="1" as="geometry">
            <mxPoint x="2681" y="748.51" as="sourcePoint" />
            <Array as="points">
              <mxPoint x="2681" y="970.51" />
            </Array>
          </mxGeometry>
        </mxCell>
        <mxCell id="Yk7LDbt8gfweT-zW2T4R-18" style="edgeStyle=orthogonalEdgeStyle;rounded=0;orthogonalLoop=1;jettySize=auto;html=1;entryX=0;entryY=0.623;entryDx=0;entryDy=0;entryPerimeter=0;strokeColor=#FF66FF;" parent="1" target="Yk7LDbt8gfweT-zW2T4R-19" edge="1">
          <mxGeometry relative="1" as="geometry">
            <mxPoint x="2251" y="606.51" as="sourcePoint" />
            <Array as="points">
              <mxPoint x="2298" y="606.51" />
              <mxPoint x="2298" y="979.51" />
            </Array>
          </mxGeometry>
        </mxCell>
        <mxCell id="Yk7LDbt8gfweT-zW2T4R-19" value="" style="shape=image;verticalLabelPosition=bottom;labelBackgroundColor=default;verticalAlign=top;aspect=fixed;imageAspect=0;image=data:image/svg+xml,PHN2ZyB4bWxucz0iaHR0cDovL3d3dy53My5vcmcvMjAwMC9zdmciIHZpZXdCb3g9IjAgMCAxOCAxOCIgaGVpZ2h0PSIxOCIgd2lkdGg9IjE4Ij48ZGVmcz48bGluZWFyR3JhZGllbnQgZ3JhZGllbnRVbml0cz0idXNlclNwYWNlT25Vc2UiIHkyPSIyLjM4MyIgeDI9IjcuNTE2IiB5MT0iMTUuOTQzIiB4MT0iOS45MDgiIGlkPSJmNjdkMTU4NS02MTY0LTRhZDAtYjJkZC1mOWNjNTliMjk2OWYiPjxzdG9wIHN0b3AtY29sb3I9IiMwMDc4ZDQiIG9mZnNldD0iMC4xNSIvPjxzdG9wIHN0b3AtY29sb3I9IiM1ZWEwZWYiIG9mZnNldD0iMC44Ii8+PHN0b3Agc3RvcC1jb2xvcj0iIzgzYjlmOSIgb2Zmc2V0PSIxIi8+PC9saW5lYXJHcmFkaWVudD48L2RlZnM+PGcgaWQ9ImE0ZmQxODY4LTU0ZmUtNGNhNi04ZmY2LTNiMDE4NjZkYzI3YiI+PHBhdGggZmlsbD0idXJsKCNmNjdkMTU4NS02MTY0LTRhZDAtYjJkZC1mOWNjNTliMjk2OWYpIiBkPSJNMTQuNDksNy4xNUE1LjE0Nyw1LjE0NywwLDAsMCw5LjI0LDIuMTY0LDUuMjcyLDUuMjcyLDAsMCwwLDQuMjE2LDUuNjUzLDQuODY5LDQuODY5LDAsMCwwLDAsMTAuNGE0Ljk0Niw0Ljk0NiwwLDAsMCw1LjA2OCw0LjgxNEgxMy44MkE0LjI5Miw0LjI5MiwwLDAsMCwxOCwxMS4xMjcsNC4xMDUsNC4xMDUsMCwwLDAsMTQuNDksNy4xNVoiLz48cGF0aCBmaWxsPSIjZjJmMmYyIiBkPSJNMTIuOSwxMS40VjhIMTJ2NC4xM2gyLjQ2VjExLjRaTTUuNzYsOS43M2ExLjgyNSwxLjgyNSwwLDAsMS0uNTEtLjMxLjQ0MS40NDEsMCwwLDEtLjEyLS4zMi4zNDIuMzQyLDAsMCwxLC4xNS0uMy42ODMuNjgzLDAsMCwxLC40Mi0uMTIsMS42MiwxLjYyLDAsMCwxLDEsLjI5VjguMTFhMi41OCwyLjU4LDAsMCwwLTEtLjE2LDEuNjQxLDEuNjQxLDAsMCwwLTEuMDkuMzQsMS4wOCwxLjA4LDAsMCwwLS40Mi44OWMwLC41MS4zMi45MSwxLDEuMjFhMi45MDcsMi45MDcsMCwwLDEsLjYyLjM2LjQxOS40MTksMCwwLDEsLjE1LjMyLjM4MS4zODEsMCwwLDEtLjE2LjMxLjgwNi44MDYsMCwwLDEtLjQ1LjExLDEuNjYsMS42NiwwLDAsMS0xLjA5LS40MlYxMmEyLjE3MywyLjE3MywwLDAsMCwxLjA3LjI0LDEuODc3LDEuODc3LDAsMCwwLDEuMTgtLjMzQTEuMDgsMS4wOCwwLDAsMCw2Ljg0LDExYTEuMDQ4LDEuMDQ4LDAsMCwwLS4yNS0uN0EyLjQyNSwyLjQyNSwwLDAsMCw1Ljc2LDkuNzNaTTExLDExLjMyQTIuMTkxLDIuMTkxLDAsMCwwLDExLDlhMS44MDgsMS44MDgsMCwwLDAtLjctLjc1LDIsMiwwLDAsMC0xLS4yNiwyLjExMiwyLjExMiwwLDAsMC0xLjA4LjI3QTEuODU2LDEuODU2LDAsMCwwLDcuNDksOWEyLjQ2NSwyLjQ2NSwwLDAsMC0uMjYsMS4xNCwyLjI1NiwyLjI1NiwwLDAsMCwuMjQsMSwxLjc2NiwxLjc2NiwwLDAsMCwuNjkuNzQsMi4wNTYsMi4wNTYsMCwwLDAsMSwuM2wuODYsMWgxLjIxTDEwLDEyLjA4QTEuNzksMS43OSwwLDAsMCwxMSwxMS4zMlptLTEtLjI1YS45NDEuOTQxLDAsMCwxLS43Ni4zNS45MTYuOTE2LDAsMCwxLS43Ni0uMzYsMS41MjMsMS41MjMsMCwwLDEtLjI5LTEsMS41MjksMS41MjksMCwwLDEsLjI5LTEsMSwxLDAsMCwxLC43OC0uMzcuODY5Ljg2OSwwLDAsMSwuNzUuMzcsMS42MTksMS42MTksMCwwLDEsLjI3LDFBMS40NTksMS40NTksMCwwLDEsMTAsMTEuMDdaIi8+PC9nPuKAiyYjeGE7PC9zdmc+;" parent="1" vertex="1">
          <mxGeometry x="2450" y="931.51" width="77" height="77" as="geometry" />
        </mxCell>
        <mxCell id="Yk7LDbt8gfweT-zW2T4R-20" value="" style="shape=image;verticalLabelPosition=bottom;labelBackgroundColor=default;verticalAlign=top;aspect=fixed;imageAspect=0;image=data:image/svg+xml,PHN2ZyB4bWxucz0iaHR0cDovL3d3dy53My5vcmcvMjAwMC9zdmciIHZpZXdCb3g9IjAgMCAxOCAxOCIgaGVpZ2h0PSIxOCIgd2lkdGg9IjE4IiBpZD0iYTRjMGE2ZGYtNzA3ZS00YWU3LTliODYtNzQyZTRmOTY1MWUwIj48ZGVmcz48bGluZWFyR3JhZGllbnQgZ3JhZGllbnRVbml0cz0idXNlclNwYWNlT25Vc2UiIHkyPSI3LjM3IiB4Mj0iMTcuNSIgeTE9IjcuMzciIHgxPSI5LjUiIGlkPSJhYzQyMGU0Ny1mMTkwLTQ2ZGYtYWIxNC03ZTFmOGZhM2E5M2QiPjxzdG9wIHN0b3AtY29sb3I9IiMwMDViYTEiIG9mZnNldD0iMCIvPjxzdG9wIHN0b3AtY29sb3I9IiMwMDYwYTkiIG9mZnNldD0iMC4wNyIvPjxzdG9wIHN0b3AtY29sb3I9IiMwMDcxYzgiIG9mZnNldD0iMC4zNiIvPjxzdG9wIHN0b3AtY29sb3I9IiMwMDc4ZDQiIG9mZnNldD0iMC41MiIvPjxzdG9wIHN0b3AtY29sb3I9IiMwMDViYTEiIG9mZnNldD0iMSIvPjwvbGluZWFyR3JhZGllbnQ+PGxpbmVhckdyYWRpZW50IGdyYWRpZW50VW5pdHM9InVzZXJTcGFjZU9uVXNlIiB5Mj0iNy4zNyIgeDI9IjguNSIgeTE9IjcuMzciIHgxPSIwLjUiIGlkPSJhNTFmZmQ4NC1hZjBhLTQ1N2EtYWJlZS0xZjcwNjU2ZGE1NmYiPjxzdG9wIHN0b3AtY29sb3I9IiMwMDViYTEiIG9mZnNldD0iMCIvPjxzdG9wIHN0b3AtY29sb3I9IiMwMDYwYTkiIG9mZnNldD0iMC4wNyIvPjxzdG9wIHN0b3AtY29sb3I9IiMwMDcxYzgiIG9mZnNldD0iMC4zNiIvPjxzdG9wIHN0b3AtY29sb3I9IiMwMDc4ZDQiIG9mZnNldD0iMC41MiIvPjxzdG9wIHN0b3AtY29sb3I9IiMwMDViYTEiIG9mZnNldD0iMSIvPjwvbGluZWFyR3JhZGllbnQ+PGxpbmVhckdyYWRpZW50IGdyYWRpZW50VW5pdHM9InVzZXJTcGFjZU9uVXNlIiB5Mj0iMTEuOSIgeDI9IjEzIiB5MT0iMTEuOSIgeDE9IjUiIGlkPSJiYmI0Yjg3ZS1iMWYwLTQwNDItYjZkNi05YjkxYjVkYWM3OTkiPjxzdG9wIHN0b3AtY29sb3I9IiMwMDViYTEiIG9mZnNldD0iMCIvPjxzdG9wIHN0b3AtY29sb3I9IiMwMDYwYTkiIG9mZnNldD0iMC4wNyIvPjxzdG9wIHN0b3AtY29sb3I9IiMwMDcxYzgiIG9mZnNldD0iMC4zNiIvPjxzdG9wIHN0b3AtY29sb3I9IiMwMDc4ZDQiIG9mZnNldD0iMC41MiIvPjxzdG9wIHN0b3AtY29sb3I9IiMwMDViYTEiIG9mZnNldD0iMSIvPjwvbGluZWFyR3JhZGllbnQ+PC9kZWZzPjx0aXRsZT5JY29uLWRhdGFiYXNlcy0xMzc8L3RpdGxlPjxwYXRoIGZpbGw9InVybCgjYWM0MjBlNDctZjE5MC00NmRmLWFiMTQtN2UxZjhmYTNhOTNkKSIgZD0iTTEzLjUsNC42MmMtMi4yMSwwLTQtLjU3LTQtMS4yOHY2Ljc5YzAsLjY5LDEuNzYsMS4yNiwzLjk1LDEuMjdoLjA1YzIuMjEsMCw0LS41Nyw0LTEuMjdWMy4zNEMxNy41LDQuMDUsMTUuNzEsNC42MiwxMy41LDQuNjJaIi8+PHBhdGggZmlsbD0iI2U4ZThlOCIgZD0iTTE3LjUsMy4zNGMwLC43MS0xLjc5LDEuMjgtNCwxLjI4cy00LS41Ny00LTEuMjgsMS43OS0xLjI3LDQtMS4yNyw0LC41Nyw0LDEuMjciLz48cGF0aCBmaWxsPSIjNTBlNmZmIiBkPSJNMTYuNTcsMy4yNGMwLC40NS0xLjM4LjgxLTMuMDcuODFzLTMuMDctLjM2LTMuMDctLjgxLDEuMzgtLjgxLDMuMDctLjgxLDMuMDcuMzYsMy4wNy44MSIvPjxwYXRoIGZpbGw9IiMzMmJlZGQiIGQ9Ik0xMy41LDMuNDNhOC42NSw4LjY1LDAsMCwwLTIuNDMuMyw3LjgsNy44LDAsMCwwLDIuNDMuMzIsNy44LDcuOCwwLDAsMCwyLjQzLS4zMkE4LjY1LDguNjUsMCwwLDAsMTMuNSwzLjQzWiIvPjxwYXRoIGZpbGw9InVybCgjYTUxZmZkODQtYWYwYS00NTdhLWFiZWUtMWY3MDY1NmRhNTZmKSIgZD0iTTQuNSw0LjYyYy0yLjIxLDAtNC0uNTctNC0xLjI4djYuNzljMCwuNjksMS43NiwxLjI2LDQsMS4yN2gwYzIuMjEsMCw0LS41Nyw0LTEuMjdWMy4zNEM4LjUsNC4wNSw2LjcxLDQuNjIsNC41LDQuNjJaIi8+PHBhdGggZmlsbD0iI2U4ZThlOCIgZD0iTTguNSwzLjM0YzAsLjcxLTEuNzksMS4yOC00LDEuMjhzLTQtLjU3LTQtMS4yOCwxLjc5LTEuMjcsNC0xLjI3LDQsLjU3LDQsMS4yNyIvPjxwYXRoIGZpbGw9IiM1MGU2ZmYiIGQ9Ik03LjU3LDMuMjRjMCwuNDUtMS4zOC44MS0zLjA3Ljgxcy0zLjA3LS4zNi0zLjA3LS44MSwxLjM4LS44MSwzLjA3LS44MSwzLjA3LjM2LDMuMDcuODEiLz48cGF0aCBmaWxsPSIjMzJiZWRkIiBkPSJNNC41LDMuNDNhOC42NSw4LjY1LDAsMCwwLTIuNDMuMyw3LjgsNy44LDAsMCwwLDIuNDMuMzIsNy44LDcuOCwwLDAsMCwyLjQzLS4zMkE4LjY1LDguNjUsMCwwLDAsNC41LDMuNDNaIi8+PGc+PHBhdGggZmlsbD0idXJsKCNiYmI0Yjg3ZS1iMWYwLTQwNDItYjZkNi05YjkxYjVkYWM3OTkpIiBkPSJNOSw5LjE1Yy0yLjIxLDAtNC0uNTctNC0xLjI4djYuNzljMCwuNywxLjc2LDEuMjYsMy45NSwxLjI3SDljMi4yMSwwLDQtLjU3LDQtMS4yN1Y3Ljg3QzEzLDguNTgsMTEuMjEsOS4xNSw5LDkuMTVaIi8+PHBhdGggZmlsbD0iI2U4ZThlOCIgZD0iTTEzLDcuODdjMCwuNzEtMS43OSwxLjI4LTQsMS4yOFM1LDguNTgsNSw3Ljg3LDYuNzksNi42LDksNi42czQsLjU3LDQsMS4yNyIvPjxwYXRoIGZpbGw9IiM1MGU2ZmYiIGQ9Ik0xMi4wNyw3Ljc3YzAsLjQ1LTEuMzguODEtMy4wNy44MXMtMy4wNy0uMzYtMy4wNy0uODFTNy4zMSw3LDksN3MzLjA3LjM2LDMuMDcuODEiLz48cGF0aCBmaWxsPSIjMzJiZWRkIiBkPSJNOSw4YTguNjUsOC42NSwwLDAsMC0yLjQzLjNBNy44LDcuOCwwLDAsMCw5LDguNThhNy44LDcuOCwwLDAsMCwyLjQzLS4zMkE4LjY1LDguNjUsMCwwLDAsOSw4WiIvPjwvZz48L3N2Zz4=;" parent="1" vertex="1">
          <mxGeometry x="2454.75" y="858.51" width="70" height="70" as="geometry" />
        </mxCell>
        <mxCell id="Yk7LDbt8gfweT-zW2T4R-21" value="REDIS" style="text;html=1;strokeColor=none;fillColor=none;align=center;verticalAlign=middle;whiteSpace=wrap;rounded=0;" parent="1" vertex="1">
          <mxGeometry x="2457" y="838.51" width="60" height="30" as="geometry" />
        </mxCell>
        <mxCell id="Yk7LDbt8gfweT-zW2T4R-22" value="AZURE&amp;nbsp;&lt;br&gt;SQL" style="text;html=1;strokeColor=none;fillColor=none;align=center;verticalAlign=middle;whiteSpace=wrap;rounded=0;" parent="1" vertex="1">
          <mxGeometry x="2459.75" y="1003.51" width="60" height="30" as="geometry" />
        </mxCell>
        <mxCell id="zBErQ_lC7ytDDQyFHN0Z-7" style="edgeStyle=orthogonalEdgeStyle;rounded=0;orthogonalLoop=1;jettySize=auto;html=1;" parent="1" source="zBErQ_lC7ytDDQyFHN0Z-2" target="CiojnqRroy4dIicwmazC-49" edge="1">
          <mxGeometry relative="1" as="geometry" />
        </mxCell>
        <mxCell id="zBErQ_lC7ytDDQyFHN0Z-2" value="" style="shape=image;verticalLabelPosition=bottom;labelBackgroundColor=default;verticalAlign=top;aspect=fixed;imageAspect=0;image=data:image/svg+xml,PHN2ZyB4bWxucz0iaHR0cDovL3d3dy53My5vcmcvMjAwMC9zdmciIHZpZXdCb3g9IjAgMCAxOCAxOCIgaGVpZ2h0PSIxOCIgd2lkdGg9IjE4Ij48ZGVmcz48bGluZWFyR3JhZGllbnQgZ3JhZGllbnRVbml0cz0idXNlclNwYWNlT25Vc2UiIHkyPSIzLjc1IiB4Mj0iNy45NCIgeTE9IjcuNyIgeDE9IjcuOTQiIGlkPSJhZmMyNzgzMC04MzU0LTRjMDgtYWRmOS1lMjk5NTI3ZWJlNTUiPjxzdG9wIHN0b3AtY29sb3I9IiM1ZTk2MjQiIG9mZnNldD0iMCIvPjxzdG9wIHN0b3AtY29sb3I9IiM3NmJjMmQiIG9mZnNldD0iMSIvPjwvbGluZWFyR3JhZGllbnQ+PGxpbmVhckdyYWRpZW50IGdyYWRpZW50VW5pdHM9InVzZXJTcGFjZU9uVXNlIiB5Mj0iMTAuMzEiIHgyPSI3Ljk0IiB5MT0iMTQuMjYiIHgxPSI3Ljk0IiBpZD0iZWRjNTYxYWMtYTFkNi00MzlmLWEwOGItNTk0ZWYwMjE0ZWUzIj48c3RvcCBzdG9wLWNvbG9yPSIjNWU5NjI0IiBvZmZzZXQ9IjAiLz48c3RvcCBzdG9wLWNvbG9yPSIjNzZiYzJkIiBvZmZzZXQ9IjEiLz48L2xpbmVhckdyYWRpZW50PjwvZGVmcz48dGl0bGU+SWNvbi1pbnRlZ3JhdGlvbi0yMDY8L3RpdGxlPjxnPjxnIGlkPSJhYTdlYTg0ZS1mYWFhLTQ2OTgtODlmZi0yMDNiNTUzMDg5ZjIiPjxnPjxnPjxwYXRoIGZpbGw9IiNhM2EzYTMiIGQ9Ik0xLjA2LDEuNDJIMi4zNWEwLDAsMCwwLDEsMCwwVjVhLjI5LjI5LDAsMCwxLS4yOS4yOUguNzdBLjI5LjI5LDAsMCwxLC40OCw1VjJBLjU3LjU3LDAsMCwxLDEuMDYsMS40MloiLz48cGF0aCBvcGFjaXR5PSIwLjUiIGZpbGw9IiNhM2EzYTMiIGQ9Ik0xLjA2LDEuNDJIMi4zNWEwLDAsMCwwLDEsMCwwVjVhLjI5LjI5LDAsMCwxLS4yOS4yOUguNzdBLjI5LjI5LDAsMCwxLC40OCw1VjJBLjU3LjU3LDAsMCwxLDEuMDYsMS40MloiLz48L2c+PGc+PHBhdGggZmlsbD0iI2EzYTNhMyIgZD0iTTE1LjY1LDEuNDJoMS4yOWEuNTcuNTcsMCwwLDEsLjU3LjU3VjVhLjI5LjI5LDAsMCwxLS4yOS4yOUgxNS45NEEuMjkuMjksMCwwLDEsMTUuNjUsNVYxLjQyQTAsMCwwLDAsMSwxNS42NSwxLjQyWiIvPjxwYXRoIG9wYWNpdHk9IjAuNSIgZmlsbD0iI2EzYTNhMyIgZD0iTTE1LjY1LDEuNDJoMS4yOWEuNTcuNTcsMCwwLDEsLjU3LjU3VjVhLjI5LjI5LDAsMCwxLS4yOS4yOUgxNS45NEEuMjkuMjksMCwwLDEsMTUuNjUsNVYxLjQyQTAsMCwwLDAsMSwxNS42NSwxLjQyWiIvPjwvZz48cGF0aCBmaWxsPSIjOTQ5NDk0IiB0cmFuc2Zvcm09InRyYW5zbGF0ZSgxMS4zMiAtNi42OCkgcm90YXRlKDkwKSIgZD0iTTguNjYtNi4xOUg5LjkxYTAsMCwwLDAsMSwwLDB2MTdhMCwwLDAsMCwxLDAsMEg4LjY2YS41Ny41NywwLDAsMS0uNTctLjU3Vi01LjYyQS41Ny41NywwLDAsMSw4LjY2LTYuMTlaIi8+PGc+PHBhdGggZmlsbD0iI2EzYTNhMyIgZD0iTS43NywxMi42OUgyLjA2YS4yOS4yOSwwLDAsMSwuMjkuMjl2My42MWEwLDAsMCwwLDEsMCwwSDEuMDZBLjU3LjU3LDAsMCwxLC40OCwxNlYxM0EuMjkuMjksMCwwLDEsLjc3LDEyLjY5WiIvPjxwYXRoIG9wYWNpdHk9IjAuNSIgZmlsbD0iI2EzYTNhMyIgZD0iTS43NywxMi42OUgyLjA2YS4yOS4yOSwwLDAsMSwuMjkuMjl2My42MWEwLDAsMCwwLDEsMCwwSDEuMDZBLjU3LjU3LDAsMCwxLC40OCwxNlYxM0EuMjkuMjksMCwwLDEsLjc3LDEyLjY5WiIvPjwvZz48Zz48cGF0aCBmaWxsPSIjYTNhM2EzIiBkPSJNMTUuOTQsMTIuNjloMS4yOWEuMjkuMjksMCwwLDEsLjI5LjI5djNhLjU3LjU3LDAsMCwxLS41Ny41N0gxNS42NWEwLDAsMCwwLDEsMCwwVjEzQS4yOS4yOSwwLDAsMSwxNS45NCwxMi42OVoiLz48cGF0aCBvcGFjaXR5PSIwLjUiIGZpbGw9IiNhM2EzYTMiIGQ9Ik0xNS45NCwxMi42OWgxLjI5YS4yOS4yOSwwLDAsMSwuMjkuMjl2M2EuNTcuNTcsMCwwLDEtLjU3LjU3SDE1LjY1YTAsMCwwLDAsMSwwLDBWMTNBLjI5LjI5LDAsMCwxLDE1Ljk0LDEyLjY5WiIvPjwvZz48cGF0aCBmaWxsPSIjOTQ5NDk0IiB0cmFuc2Zvcm09InRyYW5zbGF0ZSgtNi42OCAyNC42OCkgcm90YXRlKC05MCkiIGQ9Ik04LjY2LDcuMTZIOS45MWEwLDAsMCwwLDEsMCwwdjE3YTAsMCwwLDAsMSwwLDBIOC42NmEuNTcuNTcsMCwwLDEtLjU3LS41N1Y3LjczQS41Ny41NywwLDAsMSw4LjY2LDcuMTZaIi8+PHBhdGggZmlsbD0iIzVlYTBlZiIgZD0iTTE0LjkxLDguODQsMTMuMDksN2EuMDkuMDksMCwwLDAtLjE2LjA3VjguMmEuMDkuMDksMCwwLDEtLjEuMUg3LjU5YTEuMDUsMS4wNSwwLDAsMC0uODMtLjQxLDEuMSwxLjEsMCwxLDAsMCwyLjE5LDEuMDgsMS4wOCwwLDAsMCwuODQtLjQyaDUuMjNhLjA5LjA5LDAsMCwxLC4xLjA5djEuMTFhLjA5LjA5LDAsMCwwLC4xNi4wNmwxLjgyLTEuODFBLjIuMiwwLDAsMCwxNC45MSw4Ljg0WiIvPjxwYXRoIGZpbGw9InVybCgjYWZjMjc4MzAtODM1NC00YzA4LWFkZjktZTI5OTUyN2ViZTU1KSIgZD0iTTExLjU1LDUuNTksOS43MywzLjc4YS4wOS4wOSwwLDAsMC0uMTYuMDdWNWEuMDkuMDksMCwwLDEtLjA5LjFINi4yYTEuMDcsMS4wNywwLDAsMC0uODQtLjQxLDEuMSwxLjEsMCwxLDAsLjg1LDEuNzdIOS40OGEuMDkuMDksMCwwLDEsLjA5LjA5VjcuNjFhLjA5LjA5LDAsMCwwLC4xNi4wNmwxLjgyLTEuODFBLjIuMiwwLDAsMCwxMS41NSw1LjU5WiIvPjxwYXRoIGZpbGw9InVybCgjZWRjNTYxYWMtYTFkNi00MzlmLWEwOGItNTk0ZWYwMjE0ZWUzKSIgZD0iTTExLjU1LDEyLjE1LDkuNzMsMTAuMzRhLjA5LjA5LDAsMCwwLS4xNi4wN3YxLjFhLjEuMSwwLDAsMS0uMDkuMUg2LjJhMS4wNywxLjA3LDAsMCwwLS44NC0uNDFBMS4xLDEuMSwwLDEsMCw2LjIxLDEzSDkuNDhhLjA5LjA5LDAsMCwxLC4wOS4wOXYxLjExYS4wOS4wOSwwLDAsMCwuMTYuMDZsMS44Mi0xLjgxQS4yLjIsMCwwLDAsMTEuNTUsMTIuMTVaIi8+PC9nPjwvZz48L2c+PC9zdmc+;" parent="1" vertex="1">
          <mxGeometry x="-205" y="314" width="70" height="70" as="geometry" />
        </mxCell>
        <mxCell id="zBErQ_lC7ytDDQyFHN0Z-6" style="edgeStyle=orthogonalEdgeStyle;rounded=0;orthogonalLoop=1;jettySize=auto;html=1;entryX=0.5;entryY=1;entryDx=0;entryDy=0;" parent="1" source="zBErQ_lC7ytDDQyFHN0Z-3" target="zBErQ_lC7ytDDQyFHN0Z-2" edge="1">
          <mxGeometry relative="1" as="geometry" />
        </mxCell>
        <mxCell id="zBErQ_lC7ytDDQyFHN0Z-3" value="" style="shape=image;verticalLabelPosition=bottom;labelBackgroundColor=default;verticalAlign=top;aspect=fixed;imageAspect=0;image=data:image/svg+xml,PHN2ZyB4bWxucz0iaHR0cDovL3d3dy53My5vcmcvMjAwMC9zdmciIHZpZXdCb3g9IjAgMCAxOCAxOCIgaGVpZ2h0PSIxOCIgd2lkdGg9IjE4IiBpZD0iZjJmMDQzNDktOGFlZS00NDEzLTg0YzktYTkwNTM2MTFiMzE5Ij48ZGVmcz48bGluZWFyR3JhZGllbnQgZ3JhZGllbnRVbml0cz0idXNlclNwYWNlT25Vc2UiIHkyPSI1Ljc5IiB4Mj0iOSIgeTE9IjE1LjgzIiB4MT0iOSIgaWQ9ImFkNGM0Zjk2LTA5YWEtNGY5MS1iYTEwLTVjYjhhZDUzMGY3NCI+PHN0b3Agc3RvcC1jb2xvcj0iI2IzYjNiMyIgb2Zmc2V0PSIwIi8+PHN0b3Agc3RvcC1jb2xvcj0iI2MxYzFjMSIgb2Zmc2V0PSIwLjI2Ii8+PHN0b3Agc3RvcC1jb2xvcj0iI2U2ZTZlNiIgb2Zmc2V0PSIxIi8+PC9saW5lYXJHcmFkaWVudD48L2RlZnM+PHRpdGxlPkljb24tc3RvcmFnZS04NjwvdGl0bGU+PHBhdGggZmlsbD0idXJsKCNhZDRjNGY5Ni0wOWFhLTRmOTEtYmExMC01Y2I4YWQ1MzBmNzQpIiBkPSJNLjUsNS43OWgxN2EwLDAsMCwwLDEsMCwwdjkuNDhhLjU3LjU3LDAsMCwxLS41Ny41N0gxLjA3YS41Ny41NywwLDAsMS0uNTctLjU3VjUuNzlBMCwwLDAsMCwxLC41LDUuNzlaIi8+PHBhdGggZmlsbD0iIzM3YzJiMSIgZD0iTTEuMDcsMi4xN0gxNi45M2EuNTcuNTcsMCwwLDEsLjU3LjU3VjUuNzlhMCwwLDAsMCwxLDAsMEguNWEwLDAsMCwwLDEsMCwwVjIuNzNBLjU3LjU3LDAsMCwxLDEuMDcsMi4xN1oiLz48cGF0aCBmaWxsPSIjZmZmIiBkPSJNMi44MSw2Ljg5SDE1LjE4YS4yNy4yNywwLDAsMSwuMjYuMjd2MS40YS4yNy4yNywwLDAsMS0uMjYuMjdIMi44MWEuMjcuMjcsMCwwLDEtLjI2LS4yN1Y3LjE2QS4yNy4yNywwLDAsMSwyLjgxLDYuODlaIi8+PHBhdGggZmlsbD0iIzM3YzJiMSIgZD0iTTIuODIsOS42OEgxNS4xOWEuMjcuMjcsMCwwLDEsLjI2LjI3djEuNDFhLjI3LjI3LDAsMCwxLS4yNi4yN0gyLjgyYS4yNy4yNywwLDAsMS0uMjYtLjI3VjEwQS4yNy4yNywwLDAsMSwyLjgyLDkuNjhaIi8+PHBhdGggZmlsbD0iIzI1ODI3NyIgZD0iTTIuODIsMTIuNUgxNS4xOWEuMjcuMjcsMCwwLDEsLjI2LjI3djEuNDFhLjI3LjI3LDAsMCwxLS4yNi4yN0gyLjgyYS4yNy4yNywwLDAsMS0uMjYtLjI3VjEyLjc3QS4yNy4yNywwLDAsMSwyLjgyLDEyLjVaIi8+PC9zdmc+;" parent="1" vertex="1">
          <mxGeometry x="-175" y="457.5" width="80" height="80" as="geometry" />
        </mxCell>
        <mxCell id="zBErQ_lC7ytDDQyFHN0Z-4" value="STORAGE&lt;br&gt;ACCOUNT" style="text;html=1;strokeColor=none;fillColor=none;align=center;verticalAlign=middle;whiteSpace=wrap;rounded=0;fontStyle=1" parent="1" vertex="1">
          <mxGeometry x="-165" y="530" width="60" height="30" as="geometry" />
        </mxCell>
        <mxCell id="zBErQ_lC7ytDDQyFHN0Z-8" value="EVENT GRID TOPIC" style="text;html=1;strokeColor=none;fillColor=none;align=center;verticalAlign=middle;whiteSpace=wrap;rounded=0;fontStyle=1" parent="1" vertex="1">
          <mxGeometry x="-240" y="284" width="140" height="30" as="geometry" />
        </mxCell>
        <mxCell id="zBErQ_lC7ytDDQyFHN0Z-9" value="" style="shape=image;verticalLabelPosition=bottom;labelBackgroundColor=default;verticalAlign=top;aspect=fixed;imageAspect=0;image=data:image/svg+xml,PHN2ZyB4bWxucz0iaHR0cDovL3d3dy53My5vcmcvMjAwMC9zdmciIHZpZXdCb3g9IjAgMCAxOCAxOCIgaGVpZ2h0PSIxOCIgd2lkdGg9IjE4IiBpZD0iYTJjODgzMDYtZmEwMy00ZTViLWIxOTItNDAxZjBiNzc4MDhiIj48ZGVmcz48bGluZWFyR3JhZGllbnQgZ3JhZGllbnRVbml0cz0idXNlclNwYWNlT25Vc2UiIGdyYWRpZW50VHJhbnNmb3JtPSJ0cmFuc2xhdGUoMjEyLjU3MyAzNzAuNTQ4KSBzY2FsZSgxLjE1NiAxLjAyOSkiIHkyPSItMzU5LjIzMiIgeDI9Ii0xNzUuOTkzIiB5MT0iLTM0My43MjMiIHgxPSItMTc1Ljk5MyIgaWQ9ImI0MDNhY2E3LWYzODctNDQzNC05NmI0LWFlMTU3ZWRjODM1ZiI+PHN0b3Agc3RvcC1jb2xvcj0iI2ZlYTExYiIgb2Zmc2V0PSIwIi8+PHN0b3Agc3RvcC1jb2xvcj0iI2ZlYTUxYSIgb2Zmc2V0PSIwLjI4NCIvPjxzdG9wIHN0b3AtY29sb3I9IiNmZWIwMTgiIG9mZnNldD0iMC41NDciLz48c3RvcCBzdG9wLWNvbG9yPSIjZmZjMzE0IiBvZmZzZXQ9IjAuOCIvPjxzdG9wIHN0b3AtY29sb3I9IiNmZmQ3MGYiIG9mZnNldD0iMSIvPjwvbGluZWFyR3JhZGllbnQ+PC9kZWZzPjx0aXRsZT5JY29uLWNvbXB1dGUtMjk8L3RpdGxlPjxnPjxwYXRoIGZpbGw9IiM1MGU2ZmYiIHRyYW5zZm9ybT0idHJhbnNsYXRlKDEyLjUwNyAxNi43MDUpIHJvdGF0ZSgxMzQuOTE5KSIgZD0iTTIuMzcsNy40NzVIMy4yYS4yNjcuMjY3LDAsMCwxLC4yNjcuMjY3djYuMTQ4YS41MzMuNTMzLDAsMCwxLS41MzMuNTMzSDIuMWEwLDAsMCwwLDEsMCwwVjcuNzQxYS4yNjcuMjY3LDAsMCwxLC4yNjctLjI2N1oiLz48cGF0aCBmaWxsPSIjMTQ5MGRmIiB0cmFuc2Zvcm09InRyYW5zbGF0ZSg1Ljc1OSAwLjExNCkgcm90YXRlKDQ0LjkxOSkiIGQ9Ik0yLjMyNSwzLjZoLjgzM2EuMjY3LjI2NywwLDAsMSwuMjY3LjI2N3Y2LjU4M2EwLDAsMCwwLDEsMCwwSDIuNTkxYS41MzMuNTMzLDAsMCwxLS41MzMtLjUzM1YzLjg2NUEuMjY3LjI2NywwLDAsMSwyLjMyNSwzLjZaIi8+PC9nPjxnPjxwYXRoIGZpbGw9IiM1MGU2ZmYiIHRyYW5zZm9ybT0idHJhbnNsYXRlKDEyLjIyMyAtNy41NTUpIHJvdGF0ZSg0NS4wODEpIiBkPSJNMTQuNTMsNy40NzVoLjgzM2EuNTMzLjUzMywwLDAsMSwuNTMzLjUzM3Y2LjE0OGEuMjY3LjI2NywwLDAsMS0uMjY3LjI2N0gxNC44YS4yNjcuMjY3LDAsMCwxLS4yNjctLjI2N1Y3LjQ3NWEwLDAsMCwwLDEsMCwwWiIvPjxwYXRoIGZpbGw9IiMxNDkwZGYiIHRyYW5zZm9ybT0idHJhbnNsYXRlKDMxLjAyMiAxLjIyMikgcm90YXRlKDEzNS4wODEpIiBkPSJNMTUuMTA4LDMuNmguODMzYTAsMCwwLDAsMSwwLDB2Ni41ODNhLjI2Ny4yNjcsMCwwLDEtLjI2Ny4yNjdoLS44MzNhLjI2Ny4yNjcsMCwwLDEtLjI2Ny0uMjY3VjQuMTMxYS41MzMuNTMzLDAsMCwxLC41MzMtLjUzM1oiLz48L2c+PHBhdGggZmlsbD0idXJsKCNiNDAzYWNhNy1mMzg3LTQ0MzQtOTZiNC1hZTE1N2VkYzgzNWYpIiBkPSJNOC40NTksOS45SDQuODdhLjE5My4xOTMsMCwwLDEtLjItLjE4MS4xNjYuMTY2LDAsMCwxLC4wMTgtLjA3NUw4Ljk5MSwxLjEzYS4yMDYuMjA2LDAsMCwxLC4xODYtLjEwNmg0LjI0NWEuMTkzLjE5MywwLDAsMSwuMi4xODEuMTY1LjE2NSwwLDAsMS0uMDM1LjFMOC41MzQsNy45NjZoNC45MjhhLjE5My4xOTMsMCwwLDEsLjIuMTgxLjE3Ni4xNzYsMCwwLDEtLjA1Mi4xMjJMNS40MjEsMTYuNzg4Yy0uMDc3LjA0Ni0uNjI0LjUtLjM1Ni0uMTg5aDBaIi8+PC9zdmc+;" parent="1" vertex="1">
          <mxGeometry x="1632.5" y="626.5" width="50" height="50" as="geometry" />
        </mxCell>
        <mxCell id="zBErQ_lC7ytDDQyFHN0Z-10" style="edgeStyle=orthogonalEdgeStyle;rounded=0;orthogonalLoop=1;jettySize=auto;html=1;" parent="1" source="zBErQ_lC7ytDDQyFHN0Z-11" target="zBErQ_lC7ytDDQyFHN0Z-13" edge="1">
          <mxGeometry relative="1" as="geometry" />
        </mxCell>
        <mxCell id="zBErQ_lC7ytDDQyFHN0Z-11" value="Function App" style="text;html=1;strokeColor=none;fillColor=none;align=center;verticalAlign=middle;whiteSpace=wrap;rounded=0;" parent="1" vertex="1">
          <mxGeometry x="1620" y="669" width="75" height="27.5" as="geometry" />
        </mxCell>
        <mxCell id="zBErQ_lC7ytDDQyFHN0Z-12" value="&lt;font color=&quot;#33ffff&quot;&gt;Order processing&lt;/font&gt;" style="text;html=1;strokeColor=none;fillColor=none;align=center;verticalAlign=middle;whiteSpace=wrap;rounded=0;" parent="1" vertex="1">
          <mxGeometry x="1610" y="686.5" width="95" height="20" as="geometry" />
        </mxCell>
        <mxCell id="zBErQ_lC7ytDDQyFHN0Z-13" value="" style="shape=image;verticalLabelPosition=bottom;labelBackgroundColor=default;verticalAlign=top;aspect=fixed;imageAspect=0;image=data:image/svg+xml,PHN2ZyB4bWxucz0iaHR0cDovL3d3dy53My5vcmcvMjAwMC9zdmciIHZpZXdCb3g9IjAgMCAxOCAxOCIgaGVpZ2h0PSIxOCIgd2lkdGg9IjE4IiBpZD0iYjA4OWNmY2EtMGRlMS00NTFjLWExY2EtNjY4MGVhNTBjYjRmIj48ZGVmcz48cmFkaWFsR3JhZGllbnQgZ3JhZGllbnRVbml0cz0idXNlclNwYWNlT25Vc2UiIGdyYWRpZW50VHJhbnNmb3JtPSJ0cmFuc2xhdGUoMTE3LjczOSAxOS42NDQpIHNjYWxlKDEuMDM2IDEuMDI3KSIgcj0iNS45NTQiIGN5PSItMTAuNDA5IiBjeD0iLTEwNS4wMDYiIGlkPSJiMjVkMDgzNi05NjRhLTRjODQtOGMyMC04NTVmNjZlODM0NWUiPjxzdG9wIHN0b3AtY29sb3I9IiM1ZWEwZWYiIG9mZnNldD0iMC4xODMiLz48c3RvcCBzdG9wLWNvbG9yPSIjMDA3OGQ0IiBvZmZzZXQ9IjEiLz48L3JhZGlhbEdyYWRpZW50PjxjbGlwUGF0aCBpZD0iYjM2YzdmNWQtMmVmMS00NzYwLThhMjUtZWViOTY2MWY0ZTQ3Ij48cGF0aCBmaWxsPSJub25lIiBkPSJNMTQuOTY5LDcuNTNBNi4xMzcsNi4xMzcsMCwxLDEsNy41NzQsMi45ODcsNi4xMzcsNi4xMzcsMCwwLDEsMTQuOTY5LDcuNTNaIi8+PC9jbGlwUGF0aD48L2RlZnM+PHRpdGxlPkljb24tZGF0YWJhc2VzLTEyMTwvdGl0bGU+PHBhdGggZmlsbD0iIzUwZTZmZiIgZD0iTTIuOTU0LDUuMjY2YS4xNzUuMTc1LDAsMCwxLS4xNzYtLjE3NmgwQTIuMDEyLDIuMDEyLDAsMCwwLC43NjksMy4wODFhLjE3Ni4xNzYsMCwwLDEtLjE3Ni0uMTc1aDBhLjE3Ni4xNzYsMCwwLDEsLjE3Ni0uMTc2QTIuMDEyLDIuMDEyLDAsMCwwLDIuNzc4LjcyLjE3NS4xNzUsMCwwLDEsMi45NTQuNTQ0aDBBLjE3NS4xNzUsMCwwLDEsMy4xMy43MmgwQTIuMDEyLDIuMDEyLDAsMCwwLDUuMTM5LDIuNzI5YS4xNzUuMTc1LDAsMCwxLC4xNzYuMTc2aDBhLjE3NS4xNzUsMCwwLDEtLjE3Ni4xNzZoMEEyLjAxMSwyLjAxMSwwLDAsMCwzLjEzLDUuMDkuMTc3LjE3NywwLDAsMSwyLjk1NCw1LjI2NloiLz48cGF0aCBmaWxsPSIjNTBlNmZmIiBkPSJNMTUuNjExLDE3LjQ1NmEuMTQxLjE0MSwwLDAsMS0uMTQxLS4xNDFoMGExLjYwOSwxLjYwOSwwLDAsMC0xLjYwNy0xLjYwNy4xNDEuMTQxLDAsMCwxLS4xNDEtLjE0aDBhLjE0MS4xNDEsMCwwLDEsLjE0MS0uMTQxaDBhMS42MDgsMS42MDgsMCwwLDAsMS42MDctMS42MDcuMTQxLjE0MSwwLDAsMSwuMTQxLS4xNDFoMGEuMTQxLjE0MSwwLDAsMSwuMTQxLjE0MWgwYTEuNjA4LDEuNjA4LDAsMCwwLDEuNjA3LDEuNjA3LjE0MS4xNDEsMCwxLDEsMCwuMjgyaDBhMS42MDksMS42MDksMCwwLDAtMS42MDcsMS42MDdBLjE0MS4xNDEsMCwwLDEsMTUuNjExLDE3LjQ1NloiLz48Zz48cGF0aCBmaWxsPSJ1cmwoI2IyNWQwODM2LTk2NGEtNGM4NC04YzIwLTg1NWY2NmU4MzQ1ZSkiIGQ9Ik0xNC45NjksNy41M0E2LjEzNyw2LjEzNywwLDEsMSw3LjU3NCwyLjk4Nyw2LjEzNyw2LjEzNywwLDAsMSwxNC45NjksNy41M1oiLz48ZyBjbGlwLXBhdGg9InVybCgjYjM2YzdmNWQtMmVmMS00NzYwLThhMjUtZWViOTY2MWY0ZTQ3KSI+PHBhdGggZmlsbD0iI2YyZjJmMiIgZD0iTTUuNzA5LDEzLjExNUExLjYzOCwxLjYzOCwwLDEsMCw1LjcxNCw5Ljg0LDEuMzA3LDEuMzA3LDAsMCwwLDUuNzIxLDkuNywxLjY1MSwxLjY1MSwwLDAsMCw0LjA2LDguMDY0SDIuODMyYTYuMjUxLDYuMjUxLDAsMCwwLDEuNTk1LDUuMDUxWiIvPjxwYXRoIGZpbGw9IiNmMmYyZjIiIGQ9Ik0xNS4wNDUsNy44MTVjMC0uMDE1LDAtLjAzLS4wMDctLjA0NGE1Ljk3OCw1Ljk3OCwwLDAsMC0xLjQwNi0yLjg4LDEuODI1LDEuODI1LDAsMCwwLS4yODktLjA5LDEuODA2LDEuODA2LDAsMCwwLTIuMywxLjY2MywyLDIsMCwwLDAtLjItLjAxMywxLjczNywxLjczNywwLDAsMC0uNTgxLDMuMzc0LDEuNDUxLDEuNDUxLDAsMCwwLC41NDEuMWgyLjAzQTEzLjQ1MywxMy40NTMsMCwwLDAsMTUuMDQ1LDcuODE1WiIvPjwvZz48L2c+PHBhdGggZmlsbD0iIzUwZTZmZiIgZD0iTTE3LjE5MSwzLjgzMmMtLjYyOS0xLjA0Ny0yLjEtMS40NTUtNC4xNTUtMS4xNDlhMTQuNjA2LDE0LjYwNiwwLDAsMC0yLjA4Mi40NTIsNi40NTYsNi40NTYsMCwwLDEsMS41MjguNzY3Yy4yNDEtLjA1My40ODMtLjExNi43MTUtLjE1MUE3LjQ5LDcuNDksMCwwLDEsMTQuMywzLjY2MmEyLjE4OCwyLjE4OCwwLDAsMSwxLjk1OS43MjVoMGMuMzgzLjYzOC4wNiwxLjcyOS0uODg2LDNhMTYuNzIzLDE2LjcyMywwLDAsMS00Ljc0OSw0LjA1MUExNi43NTgsMTYuNzU4LDAsMCwxLDQuOCwxMy43Yy0xLjU2NC4yMzQtMi42ODIsMC0zLjA2NS0uNjM2cy0uMDYtMS43My44ODYtMi45OTVjLjExNy0uMTU3LjE0Ni0uMjM0LjI3OS0uMzkyYTYuMjUyLDYuMjUyLDAsMCwxLC4wMjYtMS42M0ExMS41NTIsMTEuNTUyLDAsMCwwLDEuNzU2LDkuNDE5Qy41MTcsMTEuMDc2LjE4MSwxMi41NjYuODA5LDEzLjYxM2EzLjE2NSwzLjE2NSwwLDAsMCwyLjksMS4yNDksOC40MzQsOC40MzQsMCwwLDAsMS4yNTEtLjEsMTcuODU1LDE3Ljg1NSwwLDAsMCw2LjIxOS0yLjQsMTcuODA4LDE3LjgwOCwwLDAsMCw1LjA2MS00LjMzMkMxNy40ODMsNi4zNjksMTcuODE5LDQuODgsMTcuMTkxLDMuODMyWiIvPjwvc3ZnPg==;" parent="1" vertex="1">
          <mxGeometry x="1615.5" y="775" width="84" height="84" as="geometry" />
        </mxCell>
        <mxCell id="zBErQ_lC7ytDDQyFHN0Z-14" value="Cosmos DB" style="text;html=1;strokeColor=none;fillColor=none;align=center;verticalAlign=middle;whiteSpace=wrap;rounded=0;" parent="1" vertex="1">
          <mxGeometry x="1627.5" y="854" width="60" height="30" as="geometry" />
        </mxCell>
        <mxCell id="zBErQ_lC7ytDDQyFHN0Z-15" style="edgeStyle=orthogonalEdgeStyle;rounded=0;orthogonalLoop=1;jettySize=auto;html=1;" parent="1" source="zBErQ_lC7ytDDQyFHN0Z-16" target="zBErQ_lC7ytDDQyFHN0Z-9" edge="1">
          <mxGeometry relative="1" as="geometry" />
        </mxCell>
        <mxCell id="zBErQ_lC7ytDDQyFHN0Z-16" value="" style="shape=image;verticalLabelPosition=bottom;labelBackgroundColor=default;verticalAlign=top;aspect=fixed;imageAspect=0;image=data:image/svg+xml,PHN2ZyB4bWxucz0iaHR0cDovL3d3dy53My5vcmcvMjAwMC9zdmciIHZpZXdCb3g9IjAgMCAxOCAxOCIgaGVpZ2h0PSIxOCIgd2lkdGg9IjE4Ij48ZGVmcz48bGluZWFyR3JhZGllbnQgZ3JhZGllbnRVbml0cz0idXNlclNwYWNlT25Vc2UiIHkyPSIzLjc1IiB4Mj0iNy45NCIgeTE9IjcuNyIgeDE9IjcuOTQiIGlkPSJhZmMyNzgzMC04MzU0LTRjMDgtYWRmOS1lMjk5NTI3ZWJlNTUiPjxzdG9wIHN0b3AtY29sb3I9IiM1ZTk2MjQiIG9mZnNldD0iMCIvPjxzdG9wIHN0b3AtY29sb3I9IiM3NmJjMmQiIG9mZnNldD0iMSIvPjwvbGluZWFyR3JhZGllbnQ+PGxpbmVhckdyYWRpZW50IGdyYWRpZW50VW5pdHM9InVzZXJTcGFjZU9uVXNlIiB5Mj0iMTAuMzEiIHgyPSI3Ljk0IiB5MT0iMTQuMjYiIHgxPSI3Ljk0IiBpZD0iZWRjNTYxYWMtYTFkNi00MzlmLWEwOGItNTk0ZWYwMjE0ZWUzIj48c3RvcCBzdG9wLWNvbG9yPSIjNWU5NjI0IiBvZmZzZXQ9IjAiLz48c3RvcCBzdG9wLWNvbG9yPSIjNzZiYzJkIiBvZmZzZXQ9IjEiLz48L2xpbmVhckdyYWRpZW50PjwvZGVmcz48dGl0bGU+SWNvbi1pbnRlZ3JhdGlvbi0yMDY8L3RpdGxlPjxnPjxnIGlkPSJhYTdlYTg0ZS1mYWFhLTQ2OTgtODlmZi0yMDNiNTUzMDg5ZjIiPjxnPjxnPjxwYXRoIGZpbGw9IiNhM2EzYTMiIGQ9Ik0xLjA2LDEuNDJIMi4zNWEwLDAsMCwwLDEsMCwwVjVhLjI5LjI5LDAsMCwxLS4yOS4yOUguNzdBLjI5LjI5LDAsMCwxLC40OCw1VjJBLjU3LjU3LDAsMCwxLDEuMDYsMS40MloiLz48cGF0aCBvcGFjaXR5PSIwLjUiIGZpbGw9IiNhM2EzYTMiIGQ9Ik0xLjA2LDEuNDJIMi4zNWEwLDAsMCwwLDEsMCwwVjVhLjI5LjI5LDAsMCwxLS4yOS4yOUguNzdBLjI5LjI5LDAsMCwxLC40OCw1VjJBLjU3LjU3LDAsMCwxLDEuMDYsMS40MloiLz48L2c+PGc+PHBhdGggZmlsbD0iI2EzYTNhMyIgZD0iTTE1LjY1LDEuNDJoMS4yOWEuNTcuNTcsMCwwLDEsLjU3LjU3VjVhLjI5LjI5LDAsMCwxLS4yOS4yOUgxNS45NEEuMjkuMjksMCwwLDEsMTUuNjUsNVYxLjQyQTAsMCwwLDAsMSwxNS42NSwxLjQyWiIvPjxwYXRoIG9wYWNpdHk9IjAuNSIgZmlsbD0iI2EzYTNhMyIgZD0iTTE1LjY1LDEuNDJoMS4yOWEuNTcuNTcsMCwwLDEsLjU3LjU3VjVhLjI5LjI5LDAsMCwxLS4yOS4yOUgxNS45NEEuMjkuMjksMCwwLDEsMTUuNjUsNVYxLjQyQTAsMCwwLDAsMSwxNS42NSwxLjQyWiIvPjwvZz48cGF0aCBmaWxsPSIjOTQ5NDk0IiB0cmFuc2Zvcm09InRyYW5zbGF0ZSgxMS4zMiAtNi42OCkgcm90YXRlKDkwKSIgZD0iTTguNjYtNi4xOUg5LjkxYTAsMCwwLDAsMSwwLDB2MTdhMCwwLDAsMCwxLDAsMEg4LjY2YS41Ny41NywwLDAsMS0uNTctLjU3Vi01LjYyQS41Ny41NywwLDAsMSw4LjY2LTYuMTlaIi8+PGc+PHBhdGggZmlsbD0iI2EzYTNhMyIgZD0iTS43NywxMi42OUgyLjA2YS4yOS4yOSwwLDAsMSwuMjkuMjl2My42MWEwLDAsMCwwLDEsMCwwSDEuMDZBLjU3LjU3LDAsMCwxLC40OCwxNlYxM0EuMjkuMjksMCwwLDEsLjc3LDEyLjY5WiIvPjxwYXRoIG9wYWNpdHk9IjAuNSIgZmlsbD0iI2EzYTNhMyIgZD0iTS43NywxMi42OUgyLjA2YS4yOS4yOSwwLDAsMSwuMjkuMjl2My42MWEwLDAsMCwwLDEsMCwwSDEuMDZBLjU3LjU3LDAsMCwxLC40OCwxNlYxM0EuMjkuMjksMCwwLDEsLjc3LDEyLjY5WiIvPjwvZz48Zz48cGF0aCBmaWxsPSIjYTNhM2EzIiBkPSJNMTUuOTQsMTIuNjloMS4yOWEuMjkuMjksMCwwLDEsLjI5LjI5djNhLjU3LjU3LDAsMCwxLS41Ny41N0gxNS42NWEwLDAsMCwwLDEsMCwwVjEzQS4yOS4yOSwwLDAsMSwxNS45NCwxMi42OVoiLz48cGF0aCBvcGFjaXR5PSIwLjUiIGZpbGw9IiNhM2EzYTMiIGQ9Ik0xNS45NCwxMi42OWgxLjI5YS4yOS4yOSwwLDAsMSwuMjkuMjl2M2EuNTcuNTcsMCwwLDEtLjU3LjU3SDE1LjY1YTAsMCwwLDAsMSwwLDBWMTNBLjI5LjI5LDAsMCwxLDE1Ljk0LDEyLjY5WiIvPjwvZz48cGF0aCBmaWxsPSIjOTQ5NDk0IiB0cmFuc2Zvcm09InRyYW5zbGF0ZSgtNi42OCAyNC42OCkgcm90YXRlKC05MCkiIGQ9Ik04LjY2LDcuMTZIOS45MWEwLDAsMCwwLDEsMCwwdjE3YTAsMCwwLDAsMSwwLDBIOC42NmEuNTcuNTcsMCwwLDEtLjU3LS41N1Y3LjczQS41Ny41NywwLDAsMSw4LjY2LDcuMTZaIi8+PHBhdGggZmlsbD0iIzVlYTBlZiIgZD0iTTE0LjkxLDguODQsMTMuMDksN2EuMDkuMDksMCwwLDAtLjE2LjA3VjguMmEuMDkuMDksMCwwLDEtLjEuMUg3LjU5YTEuMDUsMS4wNSwwLDAsMC0uODMtLjQxLDEuMSwxLjEsMCwxLDAsMCwyLjE5LDEuMDgsMS4wOCwwLDAsMCwuODQtLjQyaDUuMjNhLjA5LjA5LDAsMCwxLC4xLjA5djEuMTFhLjA5LjA5LDAsMCwwLC4xNi4wNmwxLjgyLTEuODFBLjIuMiwwLDAsMCwxNC45MSw4Ljg0WiIvPjxwYXRoIGZpbGw9InVybCgjYWZjMjc4MzAtODM1NC00YzA4LWFkZjktZTI5OTUyN2ViZTU1KSIgZD0iTTExLjU1LDUuNTksOS43MywzLjc4YS4wOS4wOSwwLDAsMC0uMTYuMDdWNWEuMDkuMDksMCwwLDEtLjA5LjFINi4yYTEuMDcsMS4wNywwLDAsMC0uODQtLjQxLDEuMSwxLjEsMCwxLDAsLjg1LDEuNzdIOS40OGEuMDkuMDksMCwwLDEsLjA5LjA5VjcuNjFhLjA5LjA5LDAsMCwwLC4xNi4wNmwxLjgyLTEuODFBLjIuMiwwLDAsMCwxMS41NSw1LjU5WiIvPjxwYXRoIGZpbGw9InVybCgjZWRjNTYxYWMtYTFkNi00MzlmLWEwOGItNTk0ZWYwMjE0ZWUzKSIgZD0iTTExLjU1LDEyLjE1LDkuNzMsMTAuMzRhLjA5LjA5LDAsMCwwLS4xNi4wN3YxLjFhLjEuMSwwLDAsMS0uMDkuMUg2LjJhMS4wNywxLjA3LDAsMCwwLS44NC0uNDFBMS4xLDEuMSwwLDEsMCw2LjIxLDEzSDkuNDhhLjA5LjA5LDAsMCwxLC4wOS4wOXYxLjExYS4wOS4wOSwwLDAsMCwuMTYuMDZsMS44Mi0xLjgxQS4yLjIsMCwwLDAsMTEuNTUsMTIuMTVaIi8+PC9nPjwvZz48L2c+PC9zdmc+;" parent="1" vertex="1">
          <mxGeometry x="1795" y="551.5" width="70" height="70" as="geometry" />
        </mxCell>
        <mxCell id="zBErQ_lC7ytDDQyFHN0Z-17" style="edgeStyle=orthogonalEdgeStyle;rounded=0;orthogonalLoop=1;jettySize=auto;html=1;entryX=0.5;entryY=1;entryDx=0;entryDy=0;" parent="1" source="zBErQ_lC7ytDDQyFHN0Z-18" target="zBErQ_lC7ytDDQyFHN0Z-16" edge="1">
          <mxGeometry relative="1" as="geometry" />
        </mxCell>
        <mxCell id="zBErQ_lC7ytDDQyFHN0Z-18" value="" style="shape=image;verticalLabelPosition=bottom;labelBackgroundColor=default;verticalAlign=top;aspect=fixed;imageAspect=0;image=data:image/svg+xml,PHN2ZyB4bWxucz0iaHR0cDovL3d3dy53My5vcmcvMjAwMC9zdmciIHZpZXdCb3g9IjAgMCAxOCAxOCIgaGVpZ2h0PSIxOCIgd2lkdGg9IjE4IiBpZD0iZjJmMDQzNDktOGFlZS00NDEzLTg0YzktYTkwNTM2MTFiMzE5Ij48ZGVmcz48bGluZWFyR3JhZGllbnQgZ3JhZGllbnRVbml0cz0idXNlclNwYWNlT25Vc2UiIHkyPSI1Ljc5IiB4Mj0iOSIgeTE9IjE1LjgzIiB4MT0iOSIgaWQ9ImFkNGM0Zjk2LTA5YWEtNGY5MS1iYTEwLTVjYjhhZDUzMGY3NCI+PHN0b3Agc3RvcC1jb2xvcj0iI2IzYjNiMyIgb2Zmc2V0PSIwIi8+PHN0b3Agc3RvcC1jb2xvcj0iI2MxYzFjMSIgb2Zmc2V0PSIwLjI2Ii8+PHN0b3Agc3RvcC1jb2xvcj0iI2U2ZTZlNiIgb2Zmc2V0PSIxIi8+PC9saW5lYXJHcmFkaWVudD48L2RlZnM+PHRpdGxlPkljb24tc3RvcmFnZS04NjwvdGl0bGU+PHBhdGggZmlsbD0idXJsKCNhZDRjNGY5Ni0wOWFhLTRmOTEtYmExMC01Y2I4YWQ1MzBmNzQpIiBkPSJNLjUsNS43OWgxN2EwLDAsMCwwLDEsMCwwdjkuNDhhLjU3LjU3LDAsMCwxLS41Ny41N0gxLjA3YS41Ny41NywwLDAsMS0uNTctLjU3VjUuNzlBMCwwLDAsMCwxLC41LDUuNzlaIi8+PHBhdGggZmlsbD0iIzM3YzJiMSIgZD0iTTEuMDcsMi4xN0gxNi45M2EuNTcuNTcsMCwwLDEsLjU3LjU3VjUuNzlhMCwwLDAsMCwxLDAsMEguNWEwLDAsMCwwLDEsMCwwVjIuNzNBLjU3LjU3LDAsMCwxLDEuMDcsMi4xN1oiLz48cGF0aCBmaWxsPSIjZmZmIiBkPSJNMi44MSw2Ljg5SDE1LjE4YS4yNy4yNywwLDAsMSwuMjYuMjd2MS40YS4yNy4yNywwLDAsMS0uMjYuMjdIMi44MWEuMjcuMjcsMCwwLDEtLjI2LS4yN1Y3LjE2QS4yNy4yNywwLDAsMSwyLjgxLDYuODlaIi8+PHBhdGggZmlsbD0iIzM3YzJiMSIgZD0iTTIuODIsOS42OEgxNS4xOWEuMjcuMjcsMCwwLDEsLjI2LjI3djEuNDFhLjI3LjI3LDAsMCwxLS4yNi4yN0gyLjgyYS4yNy4yNywwLDAsMS0uMjYtLjI3VjEwQS4yNy4yNywwLDAsMSwyLjgyLDkuNjhaIi8+PHBhdGggZmlsbD0iIzI1ODI3NyIgZD0iTTIuODIsMTIuNUgxNS4xOWEuMjcuMjcsMCwwLDEsLjI2LjI3djEuNDFhLjI3LjI3LDAsMCwxLS4yNi4yN0gyLjgyYS4yNy4yNywwLDAsMS0uMjYtLjI3VjEyLjc3QS4yNy4yNywwLDAsMSwyLjgyLDEyLjVaIi8+PC9zdmc+;" parent="1" vertex="1">
          <mxGeometry x="1825" y="695" width="80" height="80" as="geometry" />
        </mxCell>
        <mxCell id="zBErQ_lC7ytDDQyFHN0Z-19" value="STORAGE&lt;br&gt;ACCOUNT" style="text;html=1;strokeColor=none;fillColor=none;align=center;verticalAlign=middle;whiteSpace=wrap;rounded=0;fontStyle=1" parent="1" vertex="1">
          <mxGeometry x="1835" y="767.5" width="60" height="30" as="geometry" />
        </mxCell>
        <mxCell id="zBErQ_lC7ytDDQyFHN0Z-20" value="EVENT GRID TOPIC" style="text;html=1;strokeColor=none;fillColor=none;align=center;verticalAlign=middle;whiteSpace=wrap;rounded=0;fontStyle=1" parent="1" vertex="1">
          <mxGeometry x="1760" y="521.5" width="140" height="30" as="geometry" />
        </mxCell>
        <mxCell id="SkkHxx1sFV9UMpqCaw0L-1" value="" style="shape=image;verticalLabelPosition=bottom;labelBackgroundColor=default;verticalAlign=top;aspect=fixed;imageAspect=0;image=data:image/svg+xml,PHN2ZyB4bWxucz0iaHR0cDovL3d3dy53My5vcmcvMjAwMC9zdmciIHZpZXdCb3g9IjAgMCAxOCAxOCIgaGVpZ2h0PSIxOCIgd2lkdGg9IjE4IiBpZD0iZTQzYzc3Y2UtNGFiOS00NDZmLWFhNzQtYzQxNDI5YmI5Y2JiIj48ZGVmcz48bGluZWFyR3JhZGllbnQgZ3JhZGllbnRVbml0cz0idXNlclNwYWNlT25Vc2UiIHkyPSIxMS40MiIgeDI9IjEyLjM0IiB5MT0iNS4xNiIgeDE9IjguMjEiIGlkPSJiMzcxZTlkNC0wM2NlLTQyNDItOWY3OS1kNWEyNjlmZmNiODgiPjxzdG9wIHN0b3AtY29sb3I9IiNmOWExMWYiIG9mZnNldD0iMCIvPjxzdG9wIHN0b3AtY29sb3I9IiNmODlmMWYiIG9mZnNldD0iMC4wMiIvPjxzdG9wIHN0b3AtY29sb3I9IiNmMjg3MjEiIG9mZnNldD0iMC4zOSIvPjxzdG9wIHN0b3AtY29sb3I9IiNlZDc4MjMiIG9mZnNldD0iMC43MiIvPjxzdG9wIHN0b3AtY29sb3I9IiNlYzczMjMiIG9mZnNldD0iMSIvPjwvbGluZWFyR3JhZGllbnQ+PGxpbmVhckdyYWRpZW50IGhyZWY9IiNiMzcxZTlkNC0wM2NlLTQyNDItOWY3OS1kNWEyNjlmZmNiODgiIHkyPSIxOC4xIiB4Mj0iMTYuMjciIHkxPSIxMS4wMyIgeDE9IjExLjA5IiBpZD0iYTE3OTRmZDUtZTFhOS00MDhmLTk2MDUtODEwY2UzOGFiODdhIi8+PC9kZWZzPjx0aXRsZT5JY29uLWlkZW50aXR5LTIzMTwvdGl0bGU+PHBvbHlnb24gZmlsbD0iI2ZhYTIxZCIgcG9pbnRzPSIxLjAxIDEwLjE5IDguOTMgMTUuMzMgMTYuOTkgMTAuMTcgMTggMTEuMzUgOC45MyAxNy4xOSAwIDExLjM1IDEuMDEgMTAuMTkiLz48cG9seWdvbiBmaWxsPSIjZmZmIiBwb2ludHM9IjEuNjEgOS41MyA4LjkzIDAuODEgMTYuNCA5LjU0IDguOTMgMTQuMjYgMS42MSA5LjUzIi8+PHBvbHlnb24gZmlsbD0iI2Y3OGQxZSIgcG9pbnRzPSI4LjkzIDAuODEgOC45MyAxNC4yNiAxLjYxIDkuNTMgOC45MyAwLjgxIi8+PHBvbHlnb24gZmlsbD0idXJsKCNiMzcxZTlkNC0wM2NlLTQyNDItOWY3OS1kNWEyNjlmZmNiODgpIiBwb2ludHM9IjguOTMgMC44MSA4LjkzIDE0LjI2IDE2LjQgOS41NCA4LjkzIDAuODEiLz48cG9seWdvbiBmaWxsPSIjZjc4ZDFlIiBwb2ludHM9IjguOTMgNy43NiAxNi40IDkuNTQgOC45MyAxNC4yNiA4LjkzIDcuNzYiLz48cG9seWdvbiBmaWxsPSIjZmFhMjFkIiBwb2ludHM9IjguOTMgMTQuMjYgMS42MSA5LjUzIDguOTMgNy43NiA4LjkzIDE0LjI2Ii8+PHBvbHlnb24gZmlsbD0idXJsKCNhMTc5NGZkNS1lMWE5LTQwOGYtOTYwNS04MTBjZTM4YWI4N2EpIiBwb2ludHM9IjguOTMgMTcuMTkgMTggMTEuMzUgMTYuOTkgMTAuMTcgOC45MyAxNS4zMyA4LjkzIDE3LjE5Ii8+PC9zdmc+;" parent="1" vertex="1">
          <mxGeometry x="35" y="295" width="50" height="50" as="geometry" />
        </mxCell>
        <mxCell id="SkkHxx1sFV9UMpqCaw0L-2" value="azure ad" style="text;html=1;strokeColor=none;fillColor=none;align=center;verticalAlign=middle;whiteSpace=wrap;rounded=0;" parent="1" vertex="1">
          <mxGeometry x="102.5" y="310" width="60" height="30" as="geometry" />
        </mxCell>
        <mxCell id="SkkHxx1sFV9UMpqCaw0L-4" style="edgeStyle=orthogonalEdgeStyle;rounded=0;orthogonalLoop=1;jettySize=auto;html=1;exitX=1;exitY=0.5;exitDx=0;exitDy=0;" parent="1" source="SkkHxx1sFV9UMpqCaw0L-1" target="CiojnqRroy4dIicwmazC-46" edge="1">
          <mxGeometry relative="1" as="geometry">
            <Array as="points">
              <mxPoint x="175" y="320" />
              <mxPoint x="175" y="368" />
              <mxPoint x="200" y="368" />
            </Array>
          </mxGeometry>
        </mxCell>
        <mxCell id="SkkHxx1sFV9UMpqCaw0L-3" value="&lt;font color=&quot;#33ffff&quot;&gt;Authentication&lt;/font&gt;" style="text;html=1;strokeColor=none;fillColor=none;align=center;verticalAlign=middle;whiteSpace=wrap;rounded=0;" parent="1" vertex="1">
          <mxGeometry x="92" y="320" width="80" height="30" as="geometry" />
        </mxCell>
        <mxCell id="SkkHxx1sFV9UMpqCaw0L-5" value="" style="shape=image;verticalLabelPosition=bottom;labelBackgroundColor=default;verticalAlign=top;aspect=fixed;imageAspect=0;image=data:image/svg+xml,PHN2ZyB4bWxucz0iaHR0cDovL3d3dy53My5vcmcvMjAwMC9zdmciIHZpZXdCb3g9IjAgMCAxOCAxOCIgaGVpZ2h0PSIxOCIgd2lkdGg9IjE4IiBpZD0iZTQzYzc3Y2UtNGFiOS00NDZmLWFhNzQtYzQxNDI5YmI5Y2JiIj48ZGVmcz48bGluZWFyR3JhZGllbnQgZ3JhZGllbnRVbml0cz0idXNlclNwYWNlT25Vc2UiIHkyPSIxMS40MiIgeDI9IjEyLjM0IiB5MT0iNS4xNiIgeDE9IjguMjEiIGlkPSJiMzcxZTlkNC0wM2NlLTQyNDItOWY3OS1kNWEyNjlmZmNiODgiPjxzdG9wIHN0b3AtY29sb3I9IiNmOWExMWYiIG9mZnNldD0iMCIvPjxzdG9wIHN0b3AtY29sb3I9IiNmODlmMWYiIG9mZnNldD0iMC4wMiIvPjxzdG9wIHN0b3AtY29sb3I9IiNmMjg3MjEiIG9mZnNldD0iMC4zOSIvPjxzdG9wIHN0b3AtY29sb3I9IiNlZDc4MjMiIG9mZnNldD0iMC43MiIvPjxzdG9wIHN0b3AtY29sb3I9IiNlYzczMjMiIG9mZnNldD0iMSIvPjwvbGluZWFyR3JhZGllbnQ+PGxpbmVhckdyYWRpZW50IGhyZWY9IiNiMzcxZTlkNC0wM2NlLTQyNDItOWY3OS1kNWEyNjlmZmNiODgiIHkyPSIxOC4xIiB4Mj0iMTYuMjciIHkxPSIxMS4wMyIgeDE9IjExLjA5IiBpZD0iYTE3OTRmZDUtZTFhOS00MDhmLTk2MDUtODEwY2UzOGFiODdhIi8+PC9kZWZzPjx0aXRsZT5JY29uLWlkZW50aXR5LTIzMTwvdGl0bGU+PHBvbHlnb24gZmlsbD0iI2ZhYTIxZCIgcG9pbnRzPSIxLjAxIDEwLjE5IDguOTMgMTUuMzMgMTYuOTkgMTAuMTcgMTggMTEuMzUgOC45MyAxNy4xOSAwIDExLjM1IDEuMDEgMTAuMTkiLz48cG9seWdvbiBmaWxsPSIjZmZmIiBwb2ludHM9IjEuNjEgOS41MyA4LjkzIDAuODEgMTYuNCA5LjU0IDguOTMgMTQuMjYgMS42MSA5LjUzIi8+PHBvbHlnb24gZmlsbD0iI2Y3OGQxZSIgcG9pbnRzPSI4LjkzIDAuODEgOC45MyAxNC4yNiAxLjYxIDkuNTMgOC45MyAwLjgxIi8+PHBvbHlnb24gZmlsbD0idXJsKCNiMzcxZTlkNC0wM2NlLTQyNDItOWY3OS1kNWEyNjlmZmNiODgpIiBwb2ludHM9IjguOTMgMC44MSA4LjkzIDE0LjI2IDE2LjQgOS41NCA4LjkzIDAuODEiLz48cG9seWdvbiBmaWxsPSIjZjc4ZDFlIiBwb2ludHM9IjguOTMgNy43NiAxNi40IDkuNTQgOC45MyAxNC4yNiA4LjkzIDcuNzYiLz48cG9seWdvbiBmaWxsPSIjZmFhMjFkIiBwb2ludHM9IjguOTMgMTQuMjYgMS42MSA5LjUzIDguOTMgNy43NiA4LjkzIDE0LjI2Ii8+PHBvbHlnb24gZmlsbD0idXJsKCNhMTc5NGZkNS1lMWE5LTQwOGYtOTYwNS04MTBjZTM4YWI4N2EpIiBwb2ludHM9IjguOTMgMTcuMTkgMTggMTEuMzUgMTYuOTkgMTAuMTcgOC45MyAxNS4zMyA4LjkzIDE3LjE5Ii8+PC9zdmc+;" parent="1" vertex="1">
          <mxGeometry x="2098" y="331.5" width="50" height="50" as="geometry" />
        </mxCell>
        <mxCell id="SkkHxx1sFV9UMpqCaw0L-6" value="azure ad" style="text;html=1;strokeColor=none;fillColor=none;align=center;verticalAlign=middle;whiteSpace=wrap;rounded=0;" parent="1" vertex="1">
          <mxGeometry x="2095" y="375.5" width="60" height="30" as="geometry" />
        </mxCell>
        <mxCell id="SkkHxx1sFV9UMpqCaw0L-8" style="edgeStyle=orthogonalEdgeStyle;rounded=0;orthogonalLoop=1;jettySize=auto;html=1;entryX=0;entryY=0.5;entryDx=0;entryDy=0;" parent="1" source="SkkHxx1sFV9UMpqCaw0L-7" target="0DpliHtyRFmvJdhoWtfq-32" edge="1">
          <mxGeometry relative="1" as="geometry">
            <Array as="points">
              <mxPoint x="2185" y="400" />
              <mxPoint x="2185" y="610" />
            </Array>
          </mxGeometry>
        </mxCell>
        <mxCell id="SkkHxx1sFV9UMpqCaw0L-7" value="&lt;font color=&quot;#33ffff&quot;&gt;Authentication&lt;/font&gt;" style="text;html=1;strokeColor=none;fillColor=none;align=center;verticalAlign=middle;whiteSpace=wrap;rounded=0;" parent="1" vertex="1">
          <mxGeometry x="2085" y="385" width="80" height="30" as="geometry" />
        </mxCell>
        <mxCell id="BFIAJAKv0G5DtbjrDZCw-2" style="edgeStyle=orthogonalEdgeStyle;rounded=0;orthogonalLoop=1;jettySize=auto;html=1;entryX=1;entryY=0.5;entryDx=0;entryDy=0;exitX=0.5;exitY=1;exitDx=0;exitDy=0;" parent="1" source="BFIAJAKv0G5DtbjrDZCw-1" target="CiojnqRroy4dIicwmazC-46" edge="1">
          <mxGeometry relative="1" as="geometry" />
        </mxCell>
        <mxCell id="BFIAJAKv0G5DtbjrDZCw-1" value="" style="shape=image;verticalLabelPosition=bottom;labelBackgroundColor=default;verticalAlign=top;aspect=fixed;imageAspect=0;image=data:image/svg+xml,PHN2ZyB4bWxucz0iaHR0cDovL3d3dy53My5vcmcvMjAwMC9zdmciIHZpZXdCb3g9IjAgMCAxOCAxOCIgaGVpZ2h0PSIxOCIgd2lkdGg9IjE4IiBpZD0iYjZmNmQ5OWUtZjMzMC00ODFkLTgzNmYtZWE1OGNjNDIyMTdmIj48ZGVmcz48cmFkaWFsR3JhZGllbnQgZ3JhZGllbnRVbml0cz0idXNlclNwYWNlT25Vc2UiIHI9IjYuNDIiIGN5PSI3LjM1IiBjeD0iOSIgaWQ9ImE3YTFjNDMxLTZjNmQtNGE4Zi05YTY5LThkYTQzN2U1YjBjNSI+PHN0b3Agc3RvcC1jb2xvcj0iI2I3N2FmNCIgb2Zmc2V0PSIwIi8+PHN0b3Agc3RvcC1jb2xvcj0iI2IzNzhmMiIgb2Zmc2V0PSIwLjIxIi8+PHN0b3Agc3RvcC1jb2xvcj0iI2E2NzJlZCIgb2Zmc2V0PSIwLjQzIi8+PHN0b3Agc3RvcC1jb2xvcj0iIzkyNjdlNCIgb2Zmc2V0PSIwLjY1Ii8+PHN0b3Agc3RvcC1jb2xvcj0iIzc1NTlkOCIgb2Zmc2V0PSIwLjg4Ii8+PHN0b3Agc3RvcC1jb2xvcj0iIzYyNGZkMCIgb2Zmc2V0PSIxIi8+PC9yYWRpYWxHcmFkaWVudD48bGluZWFyR3JhZGllbnQgZ3JhZGllbnRVbml0cz0idXNlclNwYWNlT25Vc2UiIHkyPSIxMS40OSIgeDI9IjkuMDgiIHkxPSIzLjkxIiB4MT0iOS4wMiIgaWQ9ImVjMGM0ZjBkLTVjOGUtNDg4Mi05NmExLTg5ZDYxODA4ZWI0OSI+PHN0b3Agc3RvcC1jb2xvcj0iI2YyZjJmMiIgb2Zmc2V0PSIwIi8+PHN0b3Agc3RvcC1vcGFjaXR5PSIwLjk5IiBzdG9wLWNvbG9yPSIjZjFmMWYyIiBvZmZzZXQ9IjAuMjMiLz48c3RvcCBzdG9wLW9wYWNpdHk9IjAuOTUiIHN0b3AtY29sb3I9IiNlZGVkZjEiIG9mZnNldD0iMC4zNyIvPjxzdG9wIHN0b3Atb3BhY2l0eT0iMC44OSIgc3RvcC1jb2xvcj0iI2U3ZTVmMCIgb2Zmc2V0PSIwLjQ4Ii8+PHN0b3Agc3RvcC1vcGFjaXR5PSIwLjgxIiBzdG9wLWNvbG9yPSIjZGVkYmVlIiBvZmZzZXQ9IjAuNTgiLz48c3RvcCBzdG9wLW9wYWNpdHk9IjAuNyIgc3RvcC1jb2xvcj0iI2QzY2VlYiIgb2Zmc2V0PSIwLjY3Ii8+PHN0b3Agc3RvcC1vcGFjaXR5PSIwLjU3IiBzdG9wLWNvbG9yPSIjYzRiZWU4IiBvZmZzZXQ9IjAuNzYiLz48c3RvcCBzdG9wLW9wYWNpdHk9IjAuNDEiIHN0b3AtY29sb3I9IiNiNGFiZTUiIG9mZnNldD0iMC44NCIvPjxzdG9wIHN0b3Atb3BhY2l0eT0iMC4yMiIgc3RvcC1jb2xvcj0iI2EwOTVlMSIgb2Zmc2V0PSIwLjkyIi8+PHN0b3Agc3RvcC1vcGFjaXR5PSIwLjAyIiBzdG9wLWNvbG9yPSIjOGI3ZGRjIiBvZmZzZXQ9IjAuOTkiLz48c3RvcCBzdG9wLW9wYWNpdHk9IjAiIHN0b3AtY29sb3I9IiM4OTdiZGMiIG9mZnNldD0iMSIvPjwvbGluZWFyR3JhZGllbnQ+PC9kZWZzPjx0aXRsZT5JY29uLW1hbmFnZS0zMTA8L3RpdGxlPjxwYXRoIGZpbGw9IiNjZWNlY2UiIGQ9Ik0xMC4yMywxNy4zOWwuODEtLjg3VjE0LjJIN3YyLjMybC44MS44N0EuMzIuMzIsMCwwLDAsOCwxNy41aDJBLjMyLjMyLDAsMCwwLDEwLjIzLDE3LjM5WiIvPjxwYXRoIGZpbGw9InVybCgjYTdhMWM0MzEtNmM2ZC00YThmLTlhNjktOGRhNDM3ZTViMGM1KSIgZD0iTTksLjVBNS44OSw1Ljg5LDAsMCwwLDMuMDksNy4wN2MuMjcsMi40NywyLjYyLDMuNjIsMy4yOSw2Ljc1YS40OS40OSwwLDAsMCwuNDcuMzhoNC4zYS40OS40OSwwLDAsMCwuNDctLjM4Yy42Ny0zLjEzLDMtNC4yOCwzLjI5LTYuNzVBNS44OSw1Ljg5LDAsMCwwLDksLjVaTTcsMTQuMiIvPjxwYXRoIGZpbGw9InVybCgjZWMwYzRmMGQtNWM4ZS00ODgyLTk2YTEtODlkNjE4MDhlYjQ5KSIgZD0iTTExLjQ2LDMuNzlhMS40LDEuNCwwLDAsMC0xLjM1LDEuNDRWNkg4VjUuMjNBMS40MSwxLjQxLDAsMCwwLDYuNTksMy43OSwxLjQsMS40LDAsMCwwLDUuMjQsNS4yMywxLjQxLDEuNDEsMCwwLDAsNi41OSw2LjY4aC42NHY2YS4zNi4zNiwwLDAsMCwuNzIsMHYtNmgyLjE2djZhLjM2LjM2LDAsMSwwLC43Miwwdi02aC42M2ExLjQsMS40LDAsMCwwLDEuMzUtMS40NUExLjQsMS40LDAsMCwwLDExLjQ2LDMuNzlaTTcuMjMsNkg2LjU1YS43NC43NCwwLDAsMS0uNjgtLjc3Ljc0Ljc0LDAsMCwxLC42OC0uNzcuNzQuNzQsMCwwLDEsLjY4Ljc3Wm00LjI4LDBoLS42OFY1LjE5YS42OC42OCwwLDEsMSwxLjM1LDBBLjczLjczLDAsMCwxLDExLjUxLDZaIi8+PHBvbHlnb24gZmlsbD0iIzk5OSIgcG9pbnRzPSI2Ljk2IDE1LjggMTEuMDQgMTUuMDEgMTEuMDQgMTQuNTYgNi45NiAxNS4zNiA2Ljk2IDE1LjgiLz48cG9seWdvbiBmaWxsPSIjOTk5IiBwb2ludHM9IjExLjA0IDE2LjExIDExLjA0IDE1LjY3IDYuOTYgMTYuNDggNi45NiAxNi41MiA3LjI3IDE2Ljg2IDExLjA0IDE2LjExIi8+PC9zdmc+;" parent="1" vertex="1">
          <mxGeometry x="231.5" y="240" width="40" height="40" as="geometry" />
        </mxCell>
        <mxCell id="BFIAJAKv0G5DtbjrDZCw-3" value="App Insights" style="text;html=1;strokeColor=none;fillColor=none;align=center;verticalAlign=middle;whiteSpace=wrap;rounded=0;" parent="1" vertex="1">
          <mxGeometry x="205" y="200" width="91" height="30" as="geometry" />
        </mxCell>
        <mxCell id="BFIAJAKv0G5DtbjrDZCw-4" value="&lt;font color=&quot;#33ffff&quot;&gt;Monitoreo&lt;/font&gt;" style="text;html=1;strokeColor=none;fillColor=none;align=center;verticalAlign=middle;whiteSpace=wrap;rounded=0;" parent="1" vertex="1">
          <mxGeometry x="211.5" y="210" width="80" height="30" as="geometry" />
        </mxCell>
        <mxCell id="BFIAJAKv0G5DtbjrDZCw-10" style="edgeStyle=orthogonalEdgeStyle;rounded=0;orthogonalLoop=1;jettySize=auto;html=1;entryX=0;entryY=0.5;entryDx=0;entryDy=0;" parent="1" source="BFIAJAKv0G5DtbjrDZCw-5" target="0DpliHtyRFmvJdhoWtfq-32" edge="1">
          <mxGeometry relative="1" as="geometry">
            <Array as="points">
              <mxPoint x="2130" y="480" />
              <mxPoint x="2130" y="610" />
            </Array>
          </mxGeometry>
        </mxCell>
        <mxCell id="BFIAJAKv0G5DtbjrDZCw-5" value="" style="shape=image;verticalLabelPosition=bottom;labelBackgroundColor=default;verticalAlign=top;aspect=fixed;imageAspect=0;image=data:image/svg+xml,PHN2ZyB4bWxucz0iaHR0cDovL3d3dy53My5vcmcvMjAwMC9zdmciIHZpZXdCb3g9IjAgMCAxOCAxOCIgaGVpZ2h0PSIxOCIgd2lkdGg9IjE4IiBpZD0iYjZmNmQ5OWUtZjMzMC00ODFkLTgzNmYtZWE1OGNjNDIyMTdmIj48ZGVmcz48cmFkaWFsR3JhZGllbnQgZ3JhZGllbnRVbml0cz0idXNlclNwYWNlT25Vc2UiIHI9IjYuNDIiIGN5PSI3LjM1IiBjeD0iOSIgaWQ9ImE3YTFjNDMxLTZjNmQtNGE4Zi05YTY5LThkYTQzN2U1YjBjNSI+PHN0b3Agc3RvcC1jb2xvcj0iI2I3N2FmNCIgb2Zmc2V0PSIwIi8+PHN0b3Agc3RvcC1jb2xvcj0iI2IzNzhmMiIgb2Zmc2V0PSIwLjIxIi8+PHN0b3Agc3RvcC1jb2xvcj0iI2E2NzJlZCIgb2Zmc2V0PSIwLjQzIi8+PHN0b3Agc3RvcC1jb2xvcj0iIzkyNjdlNCIgb2Zmc2V0PSIwLjY1Ii8+PHN0b3Agc3RvcC1jb2xvcj0iIzc1NTlkOCIgb2Zmc2V0PSIwLjg4Ii8+PHN0b3Agc3RvcC1jb2xvcj0iIzYyNGZkMCIgb2Zmc2V0PSIxIi8+PC9yYWRpYWxHcmFkaWVudD48bGluZWFyR3JhZGllbnQgZ3JhZGllbnRVbml0cz0idXNlclNwYWNlT25Vc2UiIHkyPSIxMS40OSIgeDI9IjkuMDgiIHkxPSIzLjkxIiB4MT0iOS4wMiIgaWQ9ImVjMGM0ZjBkLTVjOGUtNDg4Mi05NmExLTg5ZDYxODA4ZWI0OSI+PHN0b3Agc3RvcC1jb2xvcj0iI2YyZjJmMiIgb2Zmc2V0PSIwIi8+PHN0b3Agc3RvcC1vcGFjaXR5PSIwLjk5IiBzdG9wLWNvbG9yPSIjZjFmMWYyIiBvZmZzZXQ9IjAuMjMiLz48c3RvcCBzdG9wLW9wYWNpdHk9IjAuOTUiIHN0b3AtY29sb3I9IiNlZGVkZjEiIG9mZnNldD0iMC4zNyIvPjxzdG9wIHN0b3Atb3BhY2l0eT0iMC44OSIgc3RvcC1jb2xvcj0iI2U3ZTVmMCIgb2Zmc2V0PSIwLjQ4Ii8+PHN0b3Agc3RvcC1vcGFjaXR5PSIwLjgxIiBzdG9wLWNvbG9yPSIjZGVkYmVlIiBvZmZzZXQ9IjAuNTgiLz48c3RvcCBzdG9wLW9wYWNpdHk9IjAuNyIgc3RvcC1jb2xvcj0iI2QzY2VlYiIgb2Zmc2V0PSIwLjY3Ii8+PHN0b3Agc3RvcC1vcGFjaXR5PSIwLjU3IiBzdG9wLWNvbG9yPSIjYzRiZWU4IiBvZmZzZXQ9IjAuNzYiLz48c3RvcCBzdG9wLW9wYWNpdHk9IjAuNDEiIHN0b3AtY29sb3I9IiNiNGFiZTUiIG9mZnNldD0iMC44NCIvPjxzdG9wIHN0b3Atb3BhY2l0eT0iMC4yMiIgc3RvcC1jb2xvcj0iI2EwOTVlMSIgb2Zmc2V0PSIwLjkyIi8+PHN0b3Agc3RvcC1vcGFjaXR5PSIwLjAyIiBzdG9wLWNvbG9yPSIjOGI3ZGRjIiBvZmZzZXQ9IjAuOTkiLz48c3RvcCBzdG9wLW9wYWNpdHk9IjAiIHN0b3AtY29sb3I9IiM4OTdiZGMiIG9mZnNldD0iMSIvPjwvbGluZWFyR3JhZGllbnQ+PC9kZWZzPjx0aXRsZT5JY29uLW1hbmFnZS0zMTA8L3RpdGxlPjxwYXRoIGZpbGw9IiNjZWNlY2UiIGQ9Ik0xMC4yMywxNy4zOWwuODEtLjg3VjE0LjJIN3YyLjMybC44MS44N0EuMzIuMzIsMCwwLDAsOCwxNy41aDJBLjMyLjMyLDAsMCwwLDEwLjIzLDE3LjM5WiIvPjxwYXRoIGZpbGw9InVybCgjYTdhMWM0MzEtNmM2ZC00YThmLTlhNjktOGRhNDM3ZTViMGM1KSIgZD0iTTksLjVBNS44OSw1Ljg5LDAsMCwwLDMuMDksNy4wN2MuMjcsMi40NywyLjYyLDMuNjIsMy4yOSw2Ljc1YS40OS40OSwwLDAsMCwuNDcuMzhoNC4zYS40OS40OSwwLDAsMCwuNDctLjM4Yy42Ny0zLjEzLDMtNC4yOCwzLjI5LTYuNzVBNS44OSw1Ljg5LDAsMCwwLDksLjVaTTcsMTQuMiIvPjxwYXRoIGZpbGw9InVybCgjZWMwYzRmMGQtNWM4ZS00ODgyLTk2YTEtODlkNjE4MDhlYjQ5KSIgZD0iTTExLjQ2LDMuNzlhMS40LDEuNCwwLDAsMC0xLjM1LDEuNDRWNkg4VjUuMjNBMS40MSwxLjQxLDAsMCwwLDYuNTksMy43OSwxLjQsMS40LDAsMCwwLDUuMjQsNS4yMywxLjQxLDEuNDEsMCwwLDAsNi41OSw2LjY4aC42NHY2YS4zNi4zNiwwLDAsMCwuNzIsMHYtNmgyLjE2djZhLjM2LjM2LDAsMSwwLC43Miwwdi02aC42M2ExLjQsMS40LDAsMCwwLDEuMzUtMS40NUExLjQsMS40LDAsMCwwLDExLjQ2LDMuNzlaTTcuMjMsNkg2LjU1YS43NC43NCwwLDAsMS0uNjgtLjc3Ljc0Ljc0LDAsMCwxLC42OC0uNzcuNzQuNzQsMCwwLDEsLjY4Ljc3Wm00LjI4LDBoLS42OFY1LjE5YS42OC42OCwwLDEsMSwxLjM1LDBBLjczLjczLDAsMCwxLDExLjUxLDZaIi8+PHBvbHlnb24gZmlsbD0iIzk5OSIgcG9pbnRzPSI2Ljk2IDE1LjggMTEuMDQgMTUuMDEgMTEuMDQgMTQuNTYgNi45NiAxNS4zNiA2Ljk2IDE1LjgiLz48cG9seWdvbiBmaWxsPSIjOTk5IiBwb2ludHM9IjExLjA0IDE2LjExIDExLjA0IDE1LjY3IDYuOTYgMTYuNDggNi45NiAxNi41MiA3LjI3IDE2Ljg2IDExLjA0IDE2LjExIi8+PC9zdmc+;" parent="1" vertex="1">
          <mxGeometry x="2057.5" y="460" width="40" height="40" as="geometry" />
        </mxCell>
        <mxCell id="BFIAJAKv0G5DtbjrDZCw-6" value="&lt;font color=&quot;#33ffff&quot;&gt;Monitoreo&lt;/font&gt;" style="text;html=1;strokeColor=none;fillColor=none;align=center;verticalAlign=middle;whiteSpace=wrap;rounded=0;" parent="1" vertex="1">
          <mxGeometry x="2037.5" y="430" width="80" height="30" as="geometry" />
        </mxCell>
        <mxCell id="BFIAJAKv0G5DtbjrDZCw-8" value="App Insights" style="text;html=1;strokeColor=none;fillColor=none;align=center;verticalAlign=middle;whiteSpace=wrap;rounded=0;" parent="1" vertex="1">
          <mxGeometry x="215" y="210" width="91" height="30" as="geometry" />
        </mxCell>
        <mxCell id="BFIAJAKv0G5DtbjrDZCw-9" value="App Insights" style="text;html=1;strokeColor=none;fillColor=none;align=center;verticalAlign=middle;whiteSpace=wrap;rounded=0;" parent="1" vertex="1">
          <mxGeometry x="2034.5" y="440" width="91" height="30" as="geometry" />
        </mxCell>
        <mxCell id="gsTiCisiYZNEiEkq4ZJj-4" style="edgeStyle=orthogonalEdgeStyle;rounded=0;orthogonalLoop=1;jettySize=auto;html=1;entryX=1;entryY=0.5;entryDx=0;entryDy=0;" parent="1" source="gsTiCisiYZNEiEkq4ZJj-1" target="jNzlEzwgy13GT3eduAT7-4" edge="1">
          <mxGeometry relative="1" as="geometry" />
        </mxCell>
        <mxCell id="gsTiCisiYZNEiEkq4ZJj-1" value="" style="shape=image;verticalLabelPosition=bottom;labelBackgroundColor=default;verticalAlign=top;aspect=fixed;imageAspect=0;image=data:image/svg+xml,PHN2ZyB4bWxucz0iaHR0cDovL3d3dy53My5vcmcvMjAwMC9zdmciIHZpZXdCb3g9IjAgMCAxOCAxOCIgaGVpZ2h0PSIxOCIgd2lkdGg9IjE4IiBpZD0iYmM5MzE2OWEtMjRjNC00Njg2LTlmMzctYzdlNGY1M2IzZDM0Ij48ZGVmcz48cmFkaWFsR3JhZGllbnQgZ3JhZGllbnRVbml0cz0idXNlclNwYWNlT25Vc2UiIHI9IjguNSIgY3k9IjkiIGN4PSI5IiBpZD0iZmIxMTRjOTMtN2MxNi00NTQwLTg5OWEtMDc5NjA0MTYyOWU2Ij48c3RvcCBzdG9wLWNvbG9yPSIjNWVhMGVmIiBvZmZzZXQ9IjAuMTgiLz48c3RvcCBzdG9wLWNvbG9yPSIjNWM5ZmVlIiBvZmZzZXQ9IjAuNTYiLz48c3RvcCBzdG9wLWNvbG9yPSIjNTU5Y2VkIiBvZmZzZXQ9IjAuNjkiLz48c3RvcCBzdG9wLWNvbG9yPSIjNGE5N2U5IiBvZmZzZXQ9IjAuNzgiLz48c3RvcCBzdG9wLWNvbG9yPSIjMzk5MGU0IiBvZmZzZXQ9IjAuODYiLz48c3RvcCBzdG9wLWNvbG9yPSIjMjM4N2RlIiBvZmZzZXQ9IjAuOTMiLz48c3RvcCBzdG9wLWNvbG9yPSIjMDg3YmQ2IiBvZmZzZXQ9IjAuOTkiLz48c3RvcCBzdG9wLWNvbG9yPSIjMDA3OGQ0IiBvZmZzZXQ9IjEiLz48L3JhZGlhbEdyYWRpZW50PjxyYWRpYWxHcmFkaWVudCBncmFkaWVudFVuaXRzPSJ1c2VyU3BhY2VPblVzZSIgZ3JhZGllbnRUcmFuc2Zvcm09InRyYW5zbGF0ZSgtMjguNzEgLTE2My4yNCkgc2NhbGUoMC45NCAwLjk0KSIgcj0iOS44OCIgY3k9IjE4Mi4wNyIgY3g9IjM4Ljk1IiBpZD0iZWM0NzhiZDMtNWIzOC00ZTdmLWI2NjEtMTFmMzU1NTc4YmZmIj48c3RvcCBzdG9wLWNvbG9yPSIjZmZkNzBmIiBvZmZzZXQ9IjAuMjciLz48c3RvcCBzdG9wLWNvbG9yPSIjZmZjYjEyIiBvZmZzZXQ9IjAuNDkiLz48c3RvcCBzdG9wLWNvbG9yPSIjZmVhYzE5IiBvZmZzZXQ9IjAuODgiLz48c3RvcCBzdG9wLWNvbG9yPSIjZmVhMTFiIiBvZmZzZXQ9IjEiLz48L3JhZGlhbEdyYWRpZW50PjwvZGVmcz48dGl0bGU+SWNvbi1zZWN1cml0eS0yNDU8L3RpdGxlPjxwYXRoIGZpbGw9InVybCgjZmIxMTRjOTMtN2MxNi00NTQwLTg5OWEtMDc5NjA0MTYyOWU2KSIgZD0iTTksLjVBOC41LDguNSwwLDEsMCwxNy41LDksOC41MSw4LjUxLDAsMCwwLDksLjVaTTksMTYuMzRBNy4zNCw3LjM0LDAsMSwxLDE2LjM0LDksNy4zNCw3LjM0LDAsMCwxLDksMTYuMzRaIiBpZD0iYWFjZjgzMTEtYTMxNy00MDBmLWI2MTMtNzRiZDAwZGE1Y2UzIi8+PGNpcmNsZSBmaWxsPSIjZmZmIiByPSI3LjM0IiBjeT0iOSIgY3g9IjkiLz48Zz48cGF0aCBmaWxsPSJ1cmwoI2VjNDc4YmQzLTViMzgtNGU3Zi1iNjYxLTExZjM1NTU3OGJmZikiIGQ9Ik0xMy40NCw3LjMzYTEuODQsMS44NCwwLDAsMCwwLTIuNTloMEwxMC4yOSwxLjU4YTEuODMsMS44MywwLDAsMC0yLjU4LDBoMEw0LjU2LDQuNzRhMS44NCwxLjg0LDAsMCwwLDAsMi41OUw3LjE4LDEwYS41MS41MSwwLDAsMSwuMTUuMzZ2NC44OGEuNjMuNjMsMCwwLDAsLjE4LjQ0bDEuMiwxLjJhLjQxLjQxLDAsMCwwLC41OCwwbDEuMTYtMS4xNmgwbC42OC0uNjhhLjI1LjI1LDAsMCwwLDAtLjM0bC0uNDktLjQ5YS4yNy4yNywwLDAsMSwwLS4zN2wuNDktLjQ5YS4yNS4yNSwwLDAsMCwwLS4zNGwtLjQ5LS40OWEuMjcuMjcsMCwwLDEsMC0uMzdsLjQ5LS40OWEuMjUuMjUsMCwwLDAsMC0uMzRsLS42OC0uNjl2LS4yNVpNOSwyLjM1QTEsMSwwLDAsMSw5LDQuNDIsMSwxLDAsMSwxLDksMi4zNVoiIGlkPSJiZDk4M2M0MS1kYjczLTQwZWMtYTRmNC1kYTEyMTNmYzk5MjQiLz48cGF0aCBvcGFjaXR5PSIwLjc1IiBmaWxsPSIjZmY5MzAwIiBkPSJNOC4xOCwxNS4zaDBhLjIzLjIzLDAsMCwwLC4zOC0uMTd2LTRhLjI0LjI0LDAsMCwwLS4xMS0uMmgwYS4yMi4yMiwwLDAsMC0uMzQuMnY0QS4yOC4yOCwwLDAsMCw4LjE4LDE1LjNaIiBpZD0iYWQyZTdlNDQtOWJmZC00Nzc1LThiZjQtOGVmMjZhNTQ0OTIxIi8+PHJlY3Qgb3BhY2l0eT0iMC43NSIgZmlsbD0iI2ZmOTMwMCIgcng9IjAuMjgiIGhlaWdodD0iMC42MSIgd2lkdGg9IjUuMTciIHk9IjUuNzkiIHg9IjYuNDgiIGlkPSJhOTk2ZmJmZi0zOTM2LTRiMjQtYjQwNy0zNjkzMzZjMTQzYmEiLz48cmVjdCBvcGFjaXR5PSIwLjc1IiBmaWxsPSIjZmY5MzAwIiByeD0iMC4yOCIgaGVpZ2h0PSIwLjYxIiB3aWR0aD0iNS4xNyIgeT0iNi43OCIgeD0iNi40OCIgaWQ9ImJiMTJkMzFjLTMzNTItNGExOC04N2RkLWExNjlhNGE4NzIxZCIvPjwvZz48L3N2Zz4=;" parent="1" vertex="1">
          <mxGeometry x="735" y="448.5" width="46.5" height="46.5" as="geometry" />
        </mxCell>
        <mxCell id="gsTiCisiYZNEiEkq4ZJj-2" value="KeyVault" style="text;html=1;strokeColor=none;fillColor=none;align=center;verticalAlign=middle;whiteSpace=wrap;rounded=0;" parent="1" vertex="1">
          <mxGeometry x="728.25" y="485" width="60" height="30" as="geometry" />
        </mxCell>
        <mxCell id="gsTiCisiYZNEiEkq4ZJj-3" value="&lt;font color=&quot;#33ffff&quot;&gt;Store secrets&lt;/font&gt;" style="text;html=1;strokeColor=none;fillColor=none;align=center;verticalAlign=middle;whiteSpace=wrap;rounded=0;" parent="1" vertex="1">
          <mxGeometry x="717" y="495" width="80" height="30" as="geometry" />
        </mxCell>
        <mxCell id="gsTiCisiYZNEiEkq4ZJj-6" style="edgeStyle=orthogonalEdgeStyle;rounded=0;orthogonalLoop=1;jettySize=auto;html=1;entryX=0;entryY=0.5;entryDx=0;entryDy=0;" parent="1" source="gsTiCisiYZNEiEkq4ZJj-5" target="jNzlEzwgy13GT3eduAT7-4" edge="1">
          <mxGeometry relative="1" as="geometry" />
        </mxCell>
        <mxCell id="gsTiCisiYZNEiEkq4ZJj-5" value="" style="shape=image;verticalLabelPosition=bottom;labelBackgroundColor=default;verticalAlign=top;aspect=fixed;imageAspect=0;image=data:image/svg+xml,PHN2ZyB4bWxucz0iaHR0cDovL3d3dy53My5vcmcvMjAwMC9zdmciIHZpZXdCb3g9IjAgMCAxOCAxOCIgaGVpZ2h0PSIxOCIgd2lkdGg9IjE4IiBpZD0iZTRlNzY0Y2QtMmU3My00NzJmLWI4OGEtYmY4YmZjMmMyOTk0Ij48ZGVmcz48cmFkaWFsR3JhZGllbnQgZ3JhZGllbnRVbml0cz0idXNlclNwYWNlT25Vc2UiIGdyYWRpZW50VHJhbnNmb3JtPSJ0cmFuc2xhdGUoMy4yMyAxLjUxKSBzY2FsZSgxLjAxIDEuMDEpIiByPSI4LjQyIiBjeT0iNy40NSIgY3g9IjUuNzIiIGlkPSJhYzhiMzJkYS0zMGNhLTRiOTItOGQwZi04ZDJkNWVmMjc4YTAiPjxzdG9wIHN0b3AtY29sb3I9IiM1ZWEwZWYiIG9mZnNldD0iMC4xOCIvPjxzdG9wIHN0b3AtY29sb3I9IiM1YzlmZWUiIG9mZnNldD0iMC41NiIvPjxzdG9wIHN0b3AtY29sb3I9IiM1NTljZWQiIG9mZnNldD0iMC42OSIvPjxzdG9wIHN0b3AtY29sb3I9IiM0YTk3ZTkiIG9mZnNldD0iMC43OCIvPjxzdG9wIHN0b3AtY29sb3I9IiMzOTkwZTQiIG9mZnNldD0iMC44NiIvPjxzdG9wIHN0b3AtY29sb3I9IiMyMzg3ZGUiIG9mZnNldD0iMC45MyIvPjxzdG9wIHN0b3AtY29sb3I9IiMwODdiZDYiIG9mZnNldD0iMC45OSIvPjxzdG9wIHN0b3AtY29sb3I9IiMwMDc4ZDQiIG9mZnNldD0iMSIvPjwvcmFkaWFsR3JhZGllbnQ+PHJhZGlhbEdyYWRpZW50IGdyYWRpZW50VW5pdHM9InVzZXJTcGFjZU9uVXNlIiBncmFkaWVudFRyYW5zZm9ybT0idHJhbnNsYXRlKC0xNy43NyAtMTg1LjAxKSBzY2FsZSgwLjk1KSIgcj0iMi43IiBjeT0iMjAyLjI5IiBjeD0iMjguMTgiIGlkPSJhOTk1NDgyMC1jYjM4LTQ5NDMtOTg0Mi1mMGE1NjhkMmIwMTUiPjxzdG9wIHN0b3AtY29sb3I9IiM4YzhlOTAiIG9mZnNldD0iMC4xOSIvPjxzdG9wIHN0b3AtY29sb3I9IiM4NDg2ODgiIG9mZnNldD0iMC4zNSIvPjxzdG9wIHN0b3AtY29sb3I9IiM2ZTcwNzEiIG9mZnNldD0iMC42Ii8+PHN0b3Agc3RvcC1jb2xvcj0iIzRhNGI0YyIgb2Zmc2V0PSIwLjkxIi8+PHN0b3Agc3RvcC1jb2xvcj0iIzNlM2YzZiIgb2Zmc2V0PSIxIi8+PC9yYWRpYWxHcmFkaWVudD48L2RlZnM+PHRpdGxlPkljb24tbWFuYWdlLTMxNzwvdGl0bGU+PGVsbGlwc2UgZmlsbD0idXJsKCNhYzhiMzJkYS0zMGNhLTRiOTItOGQwZi04ZDJkNWVmMjc4YTApIiByeT0iOC40NyIgcng9IjguNSIgY3k9IjkiIGN4PSI5Ii8+PGVsbGlwc2UgZmlsbD0iI2ZmZiIgcnk9IjcuMzciIHJ4PSI3LjQiIGN5PSI5IiBjeD0iOSIvPjxwYXRoIGZpbGw9IiM5Y2ViZmYiIGQ9Ik0yLjcyLDkuNDRhNi4yNCw2LjI0LDAsMCwwLDEuODIsNGwyLTJhMy41MywzLjUzLDAsMCwxLTEtMloiLz48cGF0aCBmaWxsPSIjMzJiZWRkIiBkPSJNMTMuMTMsNC4yN0E2LjI1LDYuMjUsMCwwLDAsOS40NCwyLjc0VjUuNTNhMy40MSwzLjQxLDAsMCwxLDEuNzEuN1oiLz48cGF0aCBmaWxsPSIjMzJiZWRkIiBkPSJNNC44Nyw0LjI3bDIsMmEzLjQxLDMuNDEsMCwwLDEsMS43MS0uN1YyLjc0QTYuMjUsNi4yNSwwLDAsMCw0Ljg3LDQuMjdaIi8+PHBhdGggZmlsbD0iIzMyYmVkZCIgZD0iTTExLjc4LDYuODVhMy42LDMuNiwwLDAsMSwuNzEsMS43MWgyLjc5YTYuMTYsNi4xNiwwLDAsMC0xLjUzLTMuNjdaIi8+PHBhdGggZmlsbD0iIzUwZTZmZiIgZD0iTTYuMjIsNi44NWwtMi0yQTYuMTYsNi4xNiwwLDAsMCwyLjcyLDguNTZINS41MUEzLjYsMy42LDAsMCwxLDYuMjIsNi44NVoiLz48cGF0aCBmaWxsPSIjZjA0MDQ5IiBkPSJNMTQuMTQsN2EuNDUuNDUsMCwwLDAtLjU3LS4yNUw5LjQ1LDguNDFsLjMyLjgxLDQuMTItMS42M0EuNDQuNDQsMCwwLDAsMTQuMTQsN1oiLz48ZWxsaXBzZSBmaWxsPSJ1cmwoI2E5OTU0ODIwLWNiMzgtNDk0My05ODQyLWYwYTU2OGQyYjAxNSkiIHJ5PSIxLjIiIHJ4PSIxLjIiIGN5PSI5IiBjeD0iOSIvPjwvc3ZnPg==;" parent="1" vertex="1">
          <mxGeometry x="537" y="402" width="48" height="48" as="geometry" />
        </mxCell>
        <mxCell id="gsTiCisiYZNEiEkq4ZJj-7" value="Monitor" style="text;html=1;strokeColor=none;fillColor=none;align=center;verticalAlign=middle;whiteSpace=wrap;rounded=0;" parent="1" vertex="1">
          <mxGeometry x="531" y="440" width="60" height="30" as="geometry" />
        </mxCell>
        <mxCell id="gsTiCisiYZNEiEkq4ZJj-8" value="&lt;font color=&quot;#33ffff&quot;&gt;Monitors VM&lt;/font&gt;" style="text;html=1;strokeColor=none;fillColor=none;align=center;verticalAlign=middle;whiteSpace=wrap;rounded=0;" parent="1" vertex="1">
          <mxGeometry x="521.5" y="450" width="80" height="30" as="geometry" />
        </mxCell>
        <mxCell id="gsTiCisiYZNEiEkq4ZJj-10" style="edgeStyle=orthogonalEdgeStyle;rounded=0;orthogonalLoop=1;jettySize=auto;html=1;entryX=0;entryY=0.25;entryDx=0;entryDy=0;" parent="1" source="gsTiCisiYZNEiEkq4ZJj-11" target="0DpliHtyRFmvJdhoWtfq-29" edge="1">
          <mxGeometry relative="1" as="geometry">
            <mxPoint x="2705.5" y="696.5" as="targetPoint" />
          </mxGeometry>
        </mxCell>
        <mxCell id="gsTiCisiYZNEiEkq4ZJj-11" value="" style="shape=image;verticalLabelPosition=bottom;labelBackgroundColor=default;verticalAlign=top;aspect=fixed;imageAspect=0;image=data:image/svg+xml,PHN2ZyB4bWxucz0iaHR0cDovL3d3dy53My5vcmcvMjAwMC9zdmciIHZpZXdCb3g9IjAgMCAxOCAxOCIgaGVpZ2h0PSIxOCIgd2lkdGg9IjE4IiBpZD0iYmM5MzE2OWEtMjRjNC00Njg2LTlmMzctYzdlNGY1M2IzZDM0Ij48ZGVmcz48cmFkaWFsR3JhZGllbnQgZ3JhZGllbnRVbml0cz0idXNlclNwYWNlT25Vc2UiIHI9IjguNSIgY3k9IjkiIGN4PSI5IiBpZD0iZmIxMTRjOTMtN2MxNi00NTQwLTg5OWEtMDc5NjA0MTYyOWU2Ij48c3RvcCBzdG9wLWNvbG9yPSIjNWVhMGVmIiBvZmZzZXQ9IjAuMTgiLz48c3RvcCBzdG9wLWNvbG9yPSIjNWM5ZmVlIiBvZmZzZXQ9IjAuNTYiLz48c3RvcCBzdG9wLWNvbG9yPSIjNTU5Y2VkIiBvZmZzZXQ9IjAuNjkiLz48c3RvcCBzdG9wLWNvbG9yPSIjNGE5N2U5IiBvZmZzZXQ9IjAuNzgiLz48c3RvcCBzdG9wLWNvbG9yPSIjMzk5MGU0IiBvZmZzZXQ9IjAuODYiLz48c3RvcCBzdG9wLWNvbG9yPSIjMjM4N2RlIiBvZmZzZXQ9IjAuOTMiLz48c3RvcCBzdG9wLWNvbG9yPSIjMDg3YmQ2IiBvZmZzZXQ9IjAuOTkiLz48c3RvcCBzdG9wLWNvbG9yPSIjMDA3OGQ0IiBvZmZzZXQ9IjEiLz48L3JhZGlhbEdyYWRpZW50PjxyYWRpYWxHcmFkaWVudCBncmFkaWVudFVuaXRzPSJ1c2VyU3BhY2VPblVzZSIgZ3JhZGllbnRUcmFuc2Zvcm09InRyYW5zbGF0ZSgtMjguNzEgLTE2My4yNCkgc2NhbGUoMC45NCAwLjk0KSIgcj0iOS44OCIgY3k9IjE4Mi4wNyIgY3g9IjM4Ljk1IiBpZD0iZWM0NzhiZDMtNWIzOC00ZTdmLWI2NjEtMTFmMzU1NTc4YmZmIj48c3RvcCBzdG9wLWNvbG9yPSIjZmZkNzBmIiBvZmZzZXQ9IjAuMjciLz48c3RvcCBzdG9wLWNvbG9yPSIjZmZjYjEyIiBvZmZzZXQ9IjAuNDkiLz48c3RvcCBzdG9wLWNvbG9yPSIjZmVhYzE5IiBvZmZzZXQ9IjAuODgiLz48c3RvcCBzdG9wLWNvbG9yPSIjZmVhMTFiIiBvZmZzZXQ9IjEiLz48L3JhZGlhbEdyYWRpZW50PjwvZGVmcz48dGl0bGU+SWNvbi1zZWN1cml0eS0yNDU8L3RpdGxlPjxwYXRoIGZpbGw9InVybCgjZmIxMTRjOTMtN2MxNi00NTQwLTg5OWEtMDc5NjA0MTYyOWU2KSIgZD0iTTksLjVBOC41LDguNSwwLDEsMCwxNy41LDksOC41MSw4LjUxLDAsMCwwLDksLjVaTTksMTYuMzRBNy4zNCw3LjM0LDAsMSwxLDE2LjM0LDksNy4zNCw3LjM0LDAsMCwxLDksMTYuMzRaIiBpZD0iYWFjZjgzMTEtYTMxNy00MDBmLWI2MTMtNzRiZDAwZGE1Y2UzIi8+PGNpcmNsZSBmaWxsPSIjZmZmIiByPSI3LjM0IiBjeT0iOSIgY3g9IjkiLz48Zz48cGF0aCBmaWxsPSJ1cmwoI2VjNDc4YmQzLTViMzgtNGU3Zi1iNjYxLTExZjM1NTU3OGJmZikiIGQ9Ik0xMy40NCw3LjMzYTEuODQsMS44NCwwLDAsMCwwLTIuNTloMEwxMC4yOSwxLjU4YTEuODMsMS44MywwLDAsMC0yLjU4LDBoMEw0LjU2LDQuNzRhMS44NCwxLjg0LDAsMCwwLDAsMi41OUw3LjE4LDEwYS41MS41MSwwLDAsMSwuMTUuMzZ2NC44OGEuNjMuNjMsMCwwLDAsLjE4LjQ0bDEuMiwxLjJhLjQxLjQxLDAsMCwwLC41OCwwbDEuMTYtMS4xNmgwbC42OC0uNjhhLjI1LjI1LDAsMCwwLDAtLjM0bC0uNDktLjQ5YS4yNy4yNywwLDAsMSwwLS4zN2wuNDktLjQ5YS4yNS4yNSwwLDAsMCwwLS4zNGwtLjQ5LS40OWEuMjcuMjcsMCwwLDEsMC0uMzdsLjQ5LS40OWEuMjUuMjUsMCwwLDAsMC0uMzRsLS42OC0uNjl2LS4yNVpNOSwyLjM1QTEsMSwwLDAsMSw5LDQuNDIsMSwxLDAsMSwxLDksMi4zNVoiIGlkPSJiZDk4M2M0MS1kYjczLTQwZWMtYTRmNC1kYTEyMTNmYzk5MjQiLz48cGF0aCBvcGFjaXR5PSIwLjc1IiBmaWxsPSIjZmY5MzAwIiBkPSJNOC4xOCwxNS4zaDBhLjIzLjIzLDAsMCwwLC4zOC0uMTd2LTRhLjI0LjI0LDAsMCwwLS4xMS0uMmgwYS4yMi4yMiwwLDAsMC0uMzQuMnY0QS4yOC4yOCwwLDAsMCw4LjE4LDE1LjNaIiBpZD0iYWQyZTdlNDQtOWJmZC00Nzc1LThiZjQtOGVmMjZhNTQ0OTIxIi8+PHJlY3Qgb3BhY2l0eT0iMC43NSIgZmlsbD0iI2ZmOTMwMCIgcng9IjAuMjgiIGhlaWdodD0iMC42MSIgd2lkdGg9IjUuMTciIHk9IjUuNzkiIHg9IjYuNDgiIGlkPSJhOTk2ZmJmZi0zOTM2LTRiMjQtYjQwNy0zNjkzMzZjMTQzYmEiLz48cmVjdCBvcGFjaXR5PSIwLjc1IiBmaWxsPSIjZmY5MzAwIiByeD0iMC4yOCIgaGVpZ2h0PSIwLjYxIiB3aWR0aD0iNS4xNyIgeT0iNi43OCIgeD0iNi40OCIgaWQ9ImJiMTJkMzFjLTMzNTItNGExOC04N2RkLWExNjlhNGE4NzIxZCIvPjwvZz48L3N2Zz4=;" parent="1" vertex="1">
          <mxGeometry x="2756.25" y="608.5" width="46.5" height="46.5" as="geometry" />
        </mxCell>
        <mxCell id="gsTiCisiYZNEiEkq4ZJj-12" value="KeyVault" style="text;html=1;strokeColor=none;fillColor=none;align=center;verticalAlign=middle;whiteSpace=wrap;rounded=0;" parent="1" vertex="1">
          <mxGeometry x="2752.75" y="577" width="60" height="33" as="geometry" />
        </mxCell>
        <mxCell id="gsTiCisiYZNEiEkq4ZJj-13" value="&lt;font color=&quot;#33ffff&quot;&gt;Store secrets&lt;/font&gt;" style="text;html=1;strokeColor=none;fillColor=none;align=center;verticalAlign=middle;whiteSpace=wrap;rounded=0;" parent="1" vertex="1">
          <mxGeometry x="2737.5" y="590" width="80" height="30" as="geometry" />
        </mxCell>
        <mxCell id="gsTiCisiYZNEiEkq4ZJj-14" style="edgeStyle=orthogonalEdgeStyle;rounded=0;orthogonalLoop=1;jettySize=auto;html=1;entryX=0;entryY=0.5;entryDx=0;entryDy=0;" parent="1" source="gsTiCisiYZNEiEkq4ZJj-15" target="0DpliHtyRFmvJdhoWtfq-29" edge="1">
          <mxGeometry relative="1" as="geometry">
            <mxPoint x="2660.5" y="696.5" as="targetPoint" />
            <Array as="points">
              <mxPoint x="2677" y="799" />
              <mxPoint x="2677" y="800" />
              <mxPoint x="2710" y="800" />
              <mxPoint x="2710" y="738" />
            </Array>
          </mxGeometry>
        </mxCell>
        <mxCell id="gsTiCisiYZNEiEkq4ZJj-15" value="" style="shape=image;verticalLabelPosition=bottom;labelBackgroundColor=default;verticalAlign=top;aspect=fixed;imageAspect=0;image=data:image/svg+xml,PHN2ZyB4bWxucz0iaHR0cDovL3d3dy53My5vcmcvMjAwMC9zdmciIHZpZXdCb3g9IjAgMCAxOCAxOCIgaGVpZ2h0PSIxOCIgd2lkdGg9IjE4IiBpZD0iZTRlNzY0Y2QtMmU3My00NzJmLWI4OGEtYmY4YmZjMmMyOTk0Ij48ZGVmcz48cmFkaWFsR3JhZGllbnQgZ3JhZGllbnRVbml0cz0idXNlclNwYWNlT25Vc2UiIGdyYWRpZW50VHJhbnNmb3JtPSJ0cmFuc2xhdGUoMy4yMyAxLjUxKSBzY2FsZSgxLjAxIDEuMDEpIiByPSI4LjQyIiBjeT0iNy40NSIgY3g9IjUuNzIiIGlkPSJhYzhiMzJkYS0zMGNhLTRiOTItOGQwZi04ZDJkNWVmMjc4YTAiPjxzdG9wIHN0b3AtY29sb3I9IiM1ZWEwZWYiIG9mZnNldD0iMC4xOCIvPjxzdG9wIHN0b3AtY29sb3I9IiM1YzlmZWUiIG9mZnNldD0iMC41NiIvPjxzdG9wIHN0b3AtY29sb3I9IiM1NTljZWQiIG9mZnNldD0iMC42OSIvPjxzdG9wIHN0b3AtY29sb3I9IiM0YTk3ZTkiIG9mZnNldD0iMC43OCIvPjxzdG9wIHN0b3AtY29sb3I9IiMzOTkwZTQiIG9mZnNldD0iMC44NiIvPjxzdG9wIHN0b3AtY29sb3I9IiMyMzg3ZGUiIG9mZnNldD0iMC45MyIvPjxzdG9wIHN0b3AtY29sb3I9IiMwODdiZDYiIG9mZnNldD0iMC45OSIvPjxzdG9wIHN0b3AtY29sb3I9IiMwMDc4ZDQiIG9mZnNldD0iMSIvPjwvcmFkaWFsR3JhZGllbnQ+PHJhZGlhbEdyYWRpZW50IGdyYWRpZW50VW5pdHM9InVzZXJTcGFjZU9uVXNlIiBncmFkaWVudFRyYW5zZm9ybT0idHJhbnNsYXRlKC0xNy43NyAtMTg1LjAxKSBzY2FsZSgwLjk1KSIgcj0iMi43IiBjeT0iMjAyLjI5IiBjeD0iMjguMTgiIGlkPSJhOTk1NDgyMC1jYjM4LTQ5NDMtOTg0Mi1mMGE1NjhkMmIwMTUiPjxzdG9wIHN0b3AtY29sb3I9IiM4YzhlOTAiIG9mZnNldD0iMC4xOSIvPjxzdG9wIHN0b3AtY29sb3I9IiM4NDg2ODgiIG9mZnNldD0iMC4zNSIvPjxzdG9wIHN0b3AtY29sb3I9IiM2ZTcwNzEiIG9mZnNldD0iMC42Ii8+PHN0b3Agc3RvcC1jb2xvcj0iIzRhNGI0YyIgb2Zmc2V0PSIwLjkxIi8+PHN0b3Agc3RvcC1jb2xvcj0iIzNlM2YzZiIgb2Zmc2V0PSIxIi8+PC9yYWRpYWxHcmFkaWVudD48L2RlZnM+PHRpdGxlPkljb24tbWFuYWdlLTMxNzwvdGl0bGU+PGVsbGlwc2UgZmlsbD0idXJsKCNhYzhiMzJkYS0zMGNhLTRiOTItOGQwZi04ZDJkNWVmMjc4YTApIiByeT0iOC40NyIgcng9IjguNSIgY3k9IjkiIGN4PSI5Ii8+PGVsbGlwc2UgZmlsbD0iI2ZmZiIgcnk9IjcuMzciIHJ4PSI3LjQiIGN5PSI5IiBjeD0iOSIvPjxwYXRoIGZpbGw9IiM5Y2ViZmYiIGQ9Ik0yLjcyLDkuNDRhNi4yNCw2LjI0LDAsMCwwLDEuODIsNGwyLTJhMy41MywzLjUzLDAsMCwxLTEtMloiLz48cGF0aCBmaWxsPSIjMzJiZWRkIiBkPSJNMTMuMTMsNC4yN0E2LjI1LDYuMjUsMCwwLDAsOS40NCwyLjc0VjUuNTNhMy40MSwzLjQxLDAsMCwxLDEuNzEuN1oiLz48cGF0aCBmaWxsPSIjMzJiZWRkIiBkPSJNNC44Nyw0LjI3bDIsMmEzLjQxLDMuNDEsMCwwLDEsMS43MS0uN1YyLjc0QTYuMjUsNi4yNSwwLDAsMCw0Ljg3LDQuMjdaIi8+PHBhdGggZmlsbD0iIzMyYmVkZCIgZD0iTTExLjc4LDYuODVhMy42LDMuNiwwLDAsMSwuNzEsMS43MWgyLjc5YTYuMTYsNi4xNiwwLDAsMC0xLjUzLTMuNjdaIi8+PHBhdGggZmlsbD0iIzUwZTZmZiIgZD0iTTYuMjIsNi44NWwtMi0yQTYuMTYsNi4xNiwwLDAsMCwyLjcyLDguNTZINS41MUEzLjYsMy42LDAsMCwxLDYuMjIsNi44NVoiLz48cGF0aCBmaWxsPSIjZjA0MDQ5IiBkPSJNMTQuMTQsN2EuNDUuNDUsMCwwLDAtLjU3LS4yNUw5LjQ1LDguNDFsLjMyLjgxLDQuMTItMS42M0EuNDQuNDQsMCwwLDAsMTQuMTQsN1oiLz48ZWxsaXBzZSBmaWxsPSJ1cmwoI2E5OTU0ODIwLWNiMzgtNDk0My05ODQyLWYwYTU2OGQyYjAxNSkiIHJ5PSIxLjIiIHJ4PSIxLjIiIGN5PSI5IiBjeD0iOSIvPjwvc3ZnPg==;" parent="1" vertex="1">
          <mxGeometry x="2567.5" y="775" width="48" height="48" as="geometry" />
        </mxCell>
        <mxCell id="gsTiCisiYZNEiEkq4ZJj-16" value="Monitor" style="text;html=1;strokeColor=none;fillColor=none;align=center;verticalAlign=middle;whiteSpace=wrap;rounded=0;" parent="1" vertex="1">
          <mxGeometry x="2561.5" y="805" width="60" height="30" as="geometry" />
        </mxCell>
        <mxCell id="gsTiCisiYZNEiEkq4ZJj-17" value="&lt;font color=&quot;#33ffff&quot;&gt;Monitors VM&lt;/font&gt;" style="text;html=1;strokeColor=none;fillColor=none;align=center;verticalAlign=middle;whiteSpace=wrap;rounded=0;" parent="1" vertex="1">
          <mxGeometry x="2551.5" y="815" width="80" height="30" as="geometry" />
        </mxCell>
        <mxCell id="b2N0IGfm3zC9qGrUOJeF-2" value="PRIMARY" style="text;html=1;strokeColor=none;fillColor=none;align=center;verticalAlign=middle;whiteSpace=wrap;rounded=0;" vertex="1" parent="1">
          <mxGeometry x="1688" y="203" width="60" height="30" as="geometry" />
        </mxCell>
        <mxCell id="b2N0IGfm3zC9qGrUOJeF-3" value="" style="shape=image;verticalLabelPosition=bottom;labelBackgroundColor=default;verticalAlign=top;aspect=fixed;imageAspect=0;image=data:image/svg+xml,PHN2ZyB4bWxucz0iaHR0cDovL3d3dy53My5vcmcvMjAwMC9zdmciIHZpZXdCb3g9IjAgMCAxOCAxOCIgaGVpZ2h0PSIxOCIgd2lkdGg9IjE4IiBpZD0iYjcwYWNmMGEtMzRiNC00YmRmLTkwMjQtNzQ5NjA0M2ZmOTE1Ij48ZGVmcz48cmFkaWFsR3JhZGllbnQgZ3JhZGllbnRVbml0cz0idXNlclNwYWNlT25Vc2UiIGdyYWRpZW50VHJhbnNmb3JtPSJ0cmFuc2xhdGUoLTIwMDUuMzMgLTUxOC44Mykgc2NhbGUoMC4xNSkiIHI9IjU2LjY3IiBjeT0iMzUxOC44NiIgY3g9IjEzNDI4LjgxIiBpZD0iZTJjZjg3NDYtYzlhOC00ZWVlLTg2YzItNDk1MTk4M2M2MDMyIj48c3RvcCBzdG9wLWNvbG9yPSIjNWVhMGVmIiBvZmZzZXQ9IjAuMTgiLz48c3RvcCBzdG9wLWNvbG9yPSIjMDA3OGQ0IiBvZmZzZXQ9IjEiLz48L3JhZGlhbEdyYWRpZW50PjxsaW5lYXJHcmFkaWVudCBncmFkaWVudFVuaXRzPSJ1c2VyU3BhY2VPblVzZSIgeTI9IjcuNTMiIHgyPSI0LjM3IiB5MT0iMTEuNDgiIHgxPSI0LjQiIGlkPSJiZGQyMTNkZC1kMzEzLTQ3M2MtOGZmNC0wMTMzZmQzYTkwMzMiPjxzdG9wIHN0b3AtY29sb3I9IiNjY2MiIG9mZnNldD0iMCIvPjxzdG9wIHN0b3AtY29sb3I9IiNmY2ZjZmMiIG9mZnNldD0iMSIvPjwvbGluZWFyR3JhZGllbnQ+PGxpbmVhckdyYWRpZW50IGdyYWRpZW50VW5pdHM9InVzZXJTcGFjZU9uVXNlIiB5Mj0iMTEuOSIgeDI9IjEwLjEzIiB5MT0iMTUuNDUiIHgxPSIxMC4xMyIgaWQ9ImFmY2M2M2M1LTM2NDktNDQ3Ni1hNzQyLWJjYjUzYTU2OWYzYyI+PHN0b3Agc3RvcC1jb2xvcj0iI2NjYyIgb2Zmc2V0PSIwIi8+PHN0b3Agc3RvcC1jb2xvcj0iI2ZjZmNmYyIgb2Zmc2V0PSIxIi8+PC9saW5lYXJHcmFkaWVudD48bGluZWFyR3JhZGllbnQgZ3JhZGllbnRVbml0cz0idXNlclNwYWNlT25Vc2UiIHkyPSI3LjM4IiB4Mj0iMTQuMTgiIHkxPSIxMS4xNSIgeDE9IjE0LjE4IiBpZD0iYmQ4NzNmMGItOTk1NC00YWE1LWEzZGYtOWY0YzY0ZTg3MjlkIj48c3RvcCBzdG9wLWNvbG9yPSIjY2NjIiBvZmZzZXQ9IjAiLz48c3RvcCBzdG9wLWNvbG9yPSIjZmNmY2ZjIiBvZmZzZXQ9IjEiLz48L2xpbmVhckdyYWRpZW50PjwvZGVmcz48dGl0bGU+SWNvbi13ZWItNDE8L3RpdGxlPjxwYXRoIGZpbGw9InVybCgjZTJjZjg3NDYtYzlhOC00ZWVlLTg2YzItNDk1MTk4M2M2MDMyKSIgZD0iTTE0LjIxLDE1LjcyQTguNSw4LjUsMCwwLDEsMy43OSwyLjI4bC4wOS0uMDZhOC41LDguNSwwLDAsMSwxMC4zMywxMy41IiBpZD0iZWU3NWRkMDYtMWFjYS00Zjc2LTlkMTEtZDA1YTI4NDAyMGFkIi8+PHBhdGggb3BhY2l0eT0iMC42IiBmaWxsPSIjZmZmIiBkPSJNNi42OSw3LjIzQTEzLDEzLDAsMCwxLDE1LjYsMy42NWE4LjQ3LDguNDcsMCwwLDAtMS40OS0xLjQ0LDE0LjM0LDE0LjM0LDAsMCwwLTQuNjksMS4xQTEyLjU0LDEyLjU0LDAsMCwwLDUuMzQsNi4xMywyLjc2LDIuNzYsMCwwLDEsNi42OSw3LjIzWiIvPjxwYXRoIG9wYWNpdHk9IjAuNiIgZmlsbD0iI2ZmZiIgZD0iTTIuNDgsMTAuNjVhMTcuODYsMTcuODYsMCwwLDAtLjgzLDIuNjIsNy44Miw3LjgyLDAsMCwwLC42Mi45MmMuMTguMjMuMzUuNDQuNTUuNjVBMTcuOTQsMTcuOTQsMCwwLDEsMy45LDExLjM3LDIuNzYsMi43NiwwLDAsMSwyLjQ4LDEwLjY1WiIvPjxwYXRoIG9wYWNpdHk9IjAuNTUiIGZpbGw9IiNmMmYyZjIiIGQ9Ik0zLjQ2LDYuMTFhMTIsMTIsMCwwLDEtLjY5LTIuOTQsOC4xNSw4LjE1LDAsMCwwLTEuMSwxLjQ1QTEyLjY5LDEyLjY5LDAsMCwwLDIuMjQsNywyLjY5LDIuNjksMCwwLDEsMy40Niw2LjExWiIvPjxjaXJjbGUgZmlsbD0idXJsKCNiZGQyMTNkZC1kMzEzLTQ3M2MtOGZmNC0wMTMzZmQzYTkwMzMpIiByPSIyLjczIiBjeT0iOC42OCIgY3g9IjQuMzgiLz48cGF0aCBvcGFjaXR5PSIwLjU1IiBmaWxsPSIjZjJmMmYyIiBkPSJNOC4zNiwxMy42N0ExLjc3LDEuNzcsMCwwLDEsOC45LDEyLjRhMTEuODgsMTEuODgsMCwwLDEtMi41My0xLjg2LDIuNzQsMi43NCwwLDAsMS0xLjQ5LjgzLDEzLjEsMTMuMSwwLDAsMCwxLjQ1LDEuMjhBMTIuMTIsMTIuMTIsMCwwLDAsOC4zOCwxMy45LDEuNzksMS43OSwwLDAsMSw4LjM2LDEzLjY3WiIvPjxwYXRoIG9wYWNpdHk9IjAuNTUiIGZpbGw9IiNmMmYyZjIiIGQ9Ik0xNC42NiwxMy44OGExMiwxMiwwLDAsMS0yLjc2LS4zMi40MS40MSwwLDAsMSwwLC4xMSwxLjc1LDEuNzUsMCwwLDEtLjUxLDEuMjQsMTMuNjksMTMuNjksMCwwLDAsMy40Mi4yNEE4LjIxLDguMjEsMCwwLDAsMTYsMTMuODEsMTEuNSwxMS41LDAsMCwxLDE0LjY2LDEzLjg4WiIvPjxjaXJjbGUgZmlsbD0idXJsKCNhZmNjNjNjNS0zNjQ5LTQ0NzYtYTc0Mi1iY2I1M2E1NjlmM2MpIiByPSIxLjc4IiBjeT0iMTMuNjciIGN4PSIxMC4xMyIvPjxwYXRoIG9wYWNpdHk9IjAuNyIgZmlsbD0iI2YyZjJmMiIgZD0iTTEyLjMyLDguOTNhMS44MywxLjgzLDAsMCwxLC42MS0xQTI1LjUsMjUuNSwwLDAsMSw4LjQ3LDMuNzlhMTYuOTEsMTYuOTEsMCwwLDEtMi0yLjkyLDcuNjQsNy42NCwwLDAsMC0xLjA5LjQyQTE4LjE0LDE4LjE0LDAsMCwwLDcuNTMsNC40NywyNi40NCwyNi40NCwwLDAsMCwxMi4zMiw4LjkzWiIvPjxjaXJjbGUgZmlsbD0idXJsKCNiZDg3M2YwYi05OTU0LTRhYTUtYTNkZi05ZjRjNjRlODcyOWQpIiByPSIxLjg5IiBjeT0iOS4yNyIgY3g9IjE0LjE4Ii8+PHBhdGggb3BhY2l0eT0iMC41NSIgZmlsbD0iI2YyZjJmMiIgZD0iTTE3LjM1LDEwLjU0LDE3LDEwLjM3bDAsMC0uMy0uMTYtLjA2LDBMMTYuMzgsMTBsLS4wNywwTDE2LDkuOGExLjc2LDEuNzYsMCwwLDEtLjY0LjkyYy4xMi4wOC4yNS4xNS4zOC4yMmwuMDguMDUuMzUuMTksMCwwLC44Ni40NWgwYTguNjMsOC42MywwLDAsMCwuMjktMS4xMVoiLz48Y2lyY2xlIGZpbGw9InVybCgjYmRkMjEzZGQtZDMxMy00NzNjLThmZjQtMDEzM2ZkM2E5MDMzKSIgcj0iMi43MyIgY3k9IjguNjgiIGN4PSI0LjM4Ii8+PGNpcmNsZSBmaWxsPSJ1cmwoI2FmY2M2M2M1LTM2NDktNDQ3Ni1hNzQyLWJjYjUzYTU2OWYzYykiIHI9IjEuNzgiIGN5PSIxMy42NyIgY3g9IjEwLjEzIi8+PC9zdmc+;" vertex="1" parent="1">
          <mxGeometry x="3032.5" y="405.5" width="50" height="50" as="geometry" />
        </mxCell>
        <mxCell id="b2N0IGfm3zC9qGrUOJeF-4" value="App Service" style="text;html=1;strokeColor=none;fillColor=none;align=center;verticalAlign=middle;whiteSpace=wrap;rounded=0;" vertex="1" parent="1">
          <mxGeometry x="3020" y="455.5" width="75" height="30" as="geometry" />
        </mxCell>
        <mxCell id="b2N0IGfm3zC9qGrUOJeF-5" value="&lt;font color=&quot;#33ffff&quot;&gt;Inventory App DR&lt;/font&gt;" style="text;html=1;strokeColor=none;fillColor=none;align=center;verticalAlign=middle;whiteSpace=wrap;rounded=0;" vertex="1" parent="1">
          <mxGeometry x="3010" y="465" width="100" height="30" as="geometry" />
        </mxCell>
        <mxCell id="b2N0IGfm3zC9qGrUOJeF-7" value="Secondary" style="text;html=1;strokeColor=none;fillColor=none;align=center;verticalAlign=middle;whiteSpace=wrap;rounded=0;" vertex="1" parent="1">
          <mxGeometry x="3083" y="305" width="60" height="30" as="geometry" />
        </mxCell>
        <mxCell id="b2N0IGfm3zC9qGrUOJeF-11" style="edgeStyle=orthogonalEdgeStyle;rounded=0;orthogonalLoop=1;jettySize=auto;html=1;entryX=0.5;entryY=0;entryDx=0;entryDy=0;strokeColor=#09ecbf;" edge="1" parent="1" source="b2N0IGfm3zC9qGrUOJeF-9" target="0DpliHtyRFmvJdhoWtfq-32">
          <mxGeometry relative="1" as="geometry">
            <Array as="points">
              <mxPoint x="2210" y="130" />
              <mxPoint x="2210" y="585" />
            </Array>
          </mxGeometry>
        </mxCell>
        <mxCell id="b2N0IGfm3zC9qGrUOJeF-12" style="edgeStyle=orthogonalEdgeStyle;rounded=0;orthogonalLoop=1;jettySize=auto;html=1;entryX=0;entryY=0.5;entryDx=0;entryDy=0;strokeColor=#33FF99;" edge="1" parent="1" source="b2N0IGfm3zC9qGrUOJeF-9" target="b2N0IGfm3zC9qGrUOJeF-3">
          <mxGeometry relative="1" as="geometry">
            <Array as="points">
              <mxPoint x="2860" y="130" />
              <mxPoint x="2860" y="431" />
            </Array>
          </mxGeometry>
        </mxCell>
        <mxCell id="b2N0IGfm3zC9qGrUOJeF-9" value="" style="shape=image;verticalLabelPosition=bottom;labelBackgroundColor=default;verticalAlign=top;aspect=fixed;imageAspect=0;image=data:image/svg+xml,PHN2ZyB4bWxucz0iaHR0cDovL3d3dy53My5vcmcvMjAwMC9zdmciIHZpZXdCb3g9IjAgMCAxOCAxOCIgaGVpZ2h0PSIxOCIgd2lkdGg9IjE4IiBpZD0iYTE4YjkwNWQtOTNjNi00ZmVlLWJhNWItNjk5ZTI1NjJlMDBmIj48ZGVmcz48bGluZWFyR3JhZGllbnQgZ3JhZGllbnRVbml0cz0idXNlclNwYWNlT25Vc2UiIHkyPSIwLjUiIHgyPSI5IiB5MT0iMTcuNSIgeDE9IjkiIGlkPSJiMDJjN2EyMC0wMWRhLTRkYWYtOTFiOS1lMTE1Mjg0MThkZmMiPjxzdG9wIHN0b3AtY29sb3I9IiM2ZjRiYjIiIG9mZnNldD0iMC4xNiIvPjxzdG9wIHN0b3AtY29sb3I9IiM3NDUwYjUiIG9mZnNldD0iMC4zMiIvPjxzdG9wIHN0b3AtY29sb3I9IiM4MjVkYmYiIG9mZnNldD0iMC41MSIvPjxzdG9wIHN0b3AtY29sb3I9IiM5YTcyY2UiIG9mZnNldD0iMC43MiIvPjxzdG9wIHN0b3AtY29sb3I9IiNiYjkwZTQiIG9mZnNldD0iMC45NCIvPjxzdG9wIHN0b3AtY29sb3I9IiNjNjlhZWIiIG9mZnNldD0iMSIvPjwvbGluZWFyR3JhZGllbnQ+PC9kZWZzPjx0aXRsZT5JY29uLW5ldHdvcmtpbmctNjU8L3RpdGxlPjxwYXRoIGZpbGw9InVybCgjYjAyYzdhMjAtMDFkYS00ZGFmLTkxYjktZTExNTI4NDE4ZGZjKSIgZD0iTTEyLjI5LjVINS43MWEuNTYuNTYsMCwwLDAtLjQuMTdMLjY3LDUuMzFhLjU2LjU2LDAsMCwwLS4xNy40djYuNThhLjU2LjU2LDAsMCwwLC4xNy40bDQuNjQsNC42NGEuNTYuNTYsMCwwLDAsLjQuMTdoNi41OGEuNTYuNTYsMCwwLDAsLjQtLjE3bDQuNjQtNC42NGEuNTYuNTYsMCwwLDAsLjE3LS40VjUuNzFhLjU2LjU2LDAsMCwwLS4xNy0uNEwxMi42OS42N0EuNTYuNTYsMCwwLDAsMTIuMjkuNVoiLz48cGF0aCBmaWxsPSIjZjJmMmYyIiBkPSJNNiw3LjY0bC0uMDcuMDctMSwxYS4xNC4xNCwwLDAsMCwuMS4yM2gzLjhhLjE0LjE0LDAsMCwwLC4xNC0uMTRWNS4wNUEuMTQuMTQsMCwwLDAsOC42NCw1bC0xLDEtLjA3LjA3YS4xNS4xNSwwLDAsMS0uMiwwTDQuOCwzLjU0LDMuNDMsNC45Miw2LDcuNDRBLjE1LjE1LDAsMCwxLDYsNy42NFoiLz48cGF0aCBmaWxsPSIjZjJmMmYyIiBkPSJNMTYuMTgsNS45MSwxMi4wOSwxLjgyYS4yOC4yOCwwLDAsMC0uMi0uMDhINi4xMWEuMjguMjgsMCwwLDAtLjIuMDhMMS44Miw1LjkxYS4yOC4yOCwwLDAsMC0uMDguMnY1Ljc4YS4zLjMsMCwwLDAsLjA4LjJsNC4wOSw0LjA5YS4yOC4yOCwwLDAsMCwuMi4wOGg1Ljc4YS4yOC4yOCwwLDAsMCwuMi0uMDhsNC4wOS00LjA5YS4zLjMsMCwwLDAsLjA4LS4yVjYuMTFBLjI4LjI4LDAsMCwwLDE2LjE4LDUuOTFabS0uMzYsNS40NUwxMi42Nyw4LjIxbC43Ni0uNzdhLjE2LjE2LDAsMCwwLDAtLjI0LjE2LjE2LDAsMCwwLS4xMSwwbC0yLjcxLS4wN2EuMTcuMTcsMCwwLDAtLjE3LjE2aDBMMTAuNTEsMTBhLjE2LjE2LDAsMCwwLC4xNy4xNmgwYS4xMy4xMywwLDAsMCwuMTIsMGwuODUtLjg0TDE1LDEyLjYybC0yLjU0LDIuNTRMOSwxMS43MSw5LjgsMTFhLjE2LjE2LDAsMCwwLDAtLjI0LjE2LjE2LDAsMCwwLS4xMS0uMDVMNywxMC41OWEuMTcuMTcsMCwwLDAtLjE3LjE2aDBsLjA3LDIuNzFhLjE2LjE2LDAsMCwwLC4xNy4xNmgwYS4xNy4xNywwLDAsMCwuMTItLjA1TDgsMTIuNzRsMy4wOCwzLjA4SDYuMTdsLTQtNFY2LjE3TDMuNDMsNC45Miw0LjgsMy41NCw2LjE3LDIuMTdoNS42Nmw0LDRaIi8+PC9zdmc+;" vertex="1" parent="1">
          <mxGeometry x="2589.5" y="100" width="60.5" height="60.5" as="geometry" />
        </mxCell>
        <mxCell id="b2N0IGfm3zC9qGrUOJeF-14" style="edgeStyle=orthogonalEdgeStyle;rounded=0;orthogonalLoop=1;jettySize=auto;html=1;entryX=1;entryY=0;entryDx=0;entryDy=0;strokeColor=#FFD814;" edge="1" parent="1" source="b2N0IGfm3zC9qGrUOJeF-10" target="0DpliHtyRFmvJdhoWtfq-32">
          <mxGeometry relative="1" as="geometry" />
        </mxCell>
        <mxCell id="b2N0IGfm3zC9qGrUOJeF-15" style="edgeStyle=orthogonalEdgeStyle;rounded=0;orthogonalLoop=1;jettySize=auto;html=1;entryX=1;entryY=0.5;entryDx=0;entryDy=0;strokeColor=#FFD91A;" edge="1" parent="1" source="b2N0IGfm3zC9qGrUOJeF-10" target="b2N0IGfm3zC9qGrUOJeF-3">
          <mxGeometry relative="1" as="geometry" />
        </mxCell>
        <mxCell id="b2N0IGfm3zC9qGrUOJeF-10" value="" style="shape=image;verticalLabelPosition=bottom;labelBackgroundColor=default;verticalAlign=top;aspect=fixed;imageAspect=0;image=data:image/svg+xml,PHN2ZyB4bWxucz0iaHR0cDovL3d3dy53My5vcmcvMjAwMC9zdmciIHZpZXdCb3g9IjAgMCAxOCAxOCIgaGVpZ2h0PSIxOCIgd2lkdGg9IjE4IiBpZD0iYjljMjRkZjUtZTBkZC00ODM4LWEzODUtN2MxMWMyZDM0MzA0Ij48ZGVmcz48bGluZWFyR3JhZGllbnQgZ3JhZGllbnRVbml0cz0idXNlclNwYWNlT25Vc2UiIHkyPSIxLjA3IiB4Mj0iOSIgeTE9IjEzLjgzIiB4MT0iOSIgaWQ9ImFhMmVlNjk3LWU4ZDEtNGRhMS1hOGM1LTY0YzhlYmJiNzRjZiI+PHN0b3Agc3RvcC1jb2xvcj0iIzAwNzhkNCIgb2Zmc2V0PSIwIi8+PHN0b3Agc3RvcC1jb2xvcj0iIzVlYTBlZiIgb2Zmc2V0PSIwLjgyIi8+PC9saW5lYXJHcmFkaWVudD48L2RlZnM+PHRpdGxlPkljb24tbmV0d29ya2luZy03MzwvdGl0bGU+PHBhdGggZmlsbD0idXJsKCNhYTJlZTY5Ny1lOGQxLTRkYTEtYThjNS02NGM4ZWJiYjc0Y2YpIiBkPSJNMTgsOS44M0E0LDQsMCwwLDAsMTQuNDksNiw1LjEsNS4xLDAsMCwwLDkuMjQsMS4wN2E1LjIzLDUuMjMsMCwwLDAtNSwzLjQxQTQuODMsNC44MywwLDAsMCwwLDkuMTJhNC45LDQuOSwwLDAsMCw1LjA3LDQuNzFsLjQ0LDBoOC4yMWEuNzguNzgsMCwwLDAsLjIyLDBBNC4wOSw0LjA5LDAsMCwwLDE4LDkuODNaIi8+PHBhdGggZmlsbD0iI2YyZjJmMiIgZD0iTTYuNjMsNi44Mmg1LjA2djdINi42M1oiIGlkPSJmMDI3NjEzNS0wMDc5LTQ4OTctYTUxOC0yMWViNjM0NzJjMTYiLz48cGF0aCBmaWxsPSIjNTBlNmZmIiBkPSJNMTIuNjEsNi4zN2wtMy40OS0yYS4yNS4yNSwwLDAsMC0uMzEuMTVzMCwuMDYsMCwuMDhWMTYuNjhhLjI1LjI1LDAsMCwwLC4yNC4yNWguMDhsMy40OS0yLjA2YS4yNS4yNSwwLDAsMCwuMTctLjIzdi04QS4yNi4yNiwwLDAsMCwxMi42MSw2LjM3WiIgaWQ9ImU1Mjg4NzhkLTJlZDctNDM5Mi05NGU2LTk5YzZmYzk3MWJjYiIvPjwvc3ZnPg==;" vertex="1" parent="1">
          <mxGeometry x="2800" y="40" width="90" height="90" as="geometry" />
        </mxCell>
        <mxCell id="b2N0IGfm3zC9qGrUOJeF-13" value="Traffic Manager" style="text;html=1;strokeColor=none;fillColor=none;align=center;verticalAlign=middle;whiteSpace=wrap;rounded=0;" vertex="1" parent="1">
          <mxGeometry x="2583" y="160" width="60" height="30" as="geometry" />
        </mxCell>
        <mxCell id="b2N0IGfm3zC9qGrUOJeF-16" value="Front Door" style="text;html=1;strokeColor=none;fillColor=none;align=center;verticalAlign=middle;whiteSpace=wrap;rounded=0;" vertex="1" parent="1">
          <mxGeometry x="2812.75" y="10" width="60" height="30" as="geometry" />
        </mxCell>
      </root>
    </mxGraphModel>
  </diagram>
</mxfile>
